<svg width="56" height="56" viewBox="0 0 56 56" fill="none" xmlns="http://www.w3.org/2000/svg">
<rect width="56" height="56" rx="8" fill="#EDEBFF"/>
<g style="mix-blend-mode:multiply">
<path d="M27.0784 13.7955C27.3439 13.5985 27.6656 13.4922 27.9962 13.4922C28.3268 13.4922 28.6485 13.5985 28.914 13.7955C30.8118 15.1644 34.9962 19.38 34.9962 29.5533C34.9962 32.9133 33.7829 36.9578 32.8806 39.4311C32.6629 40.0378 32.0873 40.4422 31.434 40.4422H24.574C23.9206 40.4422 23.3295 40.0378 23.1118 39.4311C22.2095 36.9578 20.9962 32.9133 20.9962 29.5533C20.9962 19.38 25.1806 15.1644 27.0784 13.7955V13.7955ZM31.1073 26.4422C31.1073 24.7311 29.7073 23.3311 27.9962 23.3311C26.2851 23.3311 24.8851 24.7311 24.8851 26.4422C24.8851 28.1533 26.2851 29.5533 27.9962 29.5533C29.7073 29.5533 31.1073 28.1533 31.1073 26.4422ZM21.2918 41.2511C20.5451 39.3378 18.9273 34.7644 18.694 30.5644L16.9362 31.7311C16.0651 32.3222 15.5518 33.2867 15.5518 34.3289V41.2511C15.5518 42.3555 16.6562 43.1022 17.6829 42.6978L21.2918 41.2511V41.2511ZM40.4406 41.2511V34.3289C40.4406 33.2867 39.9273 32.3222 39.0562 31.7467L37.2984 30.58C37.0651 34.7644 35.4318 39.3533 34.7006 41.2667L38.3095 42.7133C39.3362 43.1022 40.4406 42.3555 40.4406 41.2511V41.2511Z" fill="#A799FF"/>
</g>
</svg>
