<svg width="22" height="22" viewBox="0 0 22 22" fill="none" xmlns="http://www.w3.org/2000/svg">
<g id="Group 18309">
<path id="Vector" d="M8.24995 0L5.49997 8.24997H0V6.41124C0 5.82777 0.231783 5.2682 0.644358 4.85562L4.85561 0.644361C5.26818 0.231784 5.82776 0 6.41123 0H8.24995Z" fill="#D1CAFF"/>
<path id="Vector_2" d="M10.9999 21.9999L0.644358 11.6443C0.231783 11.2318 0 10.6722 0 10.0887V8.25H5.49997L10.9999 21.9999Z" fill="#A799FF"/>
<path id="Vector_3" d="M21.3536 4.85562C21.7662 5.2682 21.998 5.82777 21.998 6.41124V8.24997H16.498L13.748 0H15.5868C16.1702 0 16.7298 0.231784 17.1424 0.644361L21.3536 4.85562Z" fill="#6851FF"/>
<path id="Vector_4" d="M21.9999 8.25V10.0887C21.9999 10.6722 21.7682 11.2318 21.3556 11.6443L11 21.9999L16.5 8.25H21.9999Z" fill="#522FD4"/>
<path id="Vector_5" d="M16.4999 8.25L11 21.9999L5.5 8.25H16.4999Z" fill="#6851FF"/>
<path id="Vector_6" d="M16.4999 8.24997H5.5L8.24998 0H13.75L16.4999 8.24997Z" fill="#A799FF"/>
<g id="Group 18174" style="mix-blend-mode:overlay" opacity="0.4">
<path id="Union" fill-rule="evenodd" clip-rule="evenodd" d="M5.49997 8.24997L8.24996 0H6.41124C5.82776 0 5.26819 0.231785 4.85561 0.644365L0.644362 4.85562C0.231784 5.2682 0 5.82777 0 6.41125V8.24997H5.49997ZM0.644363 11.6444L10.9999 22L21.3556 11.6444C21.7682 11.2318 21.9999 10.6722 21.9999 10.0887V8.25H16.5H5.5H5.49997H0V10.0887C0 10.6722 0.231784 11.2318 0.644363 11.6444ZM21.3556 4.85562C21.7682 5.2682 22 5.82777 22 6.41125V8.24997H16.5L13.75 0H15.5887C16.1722 0 16.7318 0.231785 17.1443 0.644364L21.3556 4.85562ZM5.5 8.24997H16.4999L13.75 0H8.24999L5.5 8.24997Z" fill="url(#paint0_radial_4250_104696)"/>
</g>
</g>
<defs>
<radialGradient id="paint0_radial_4250_104696" cx="0" cy="0" r="1" gradientUnits="userSpaceOnUse" gradientTransform="translate(11 9.34999) rotate(90) scale(12.65 12.65)">
<stop stop-color="#EDEBFF"/>
<stop offset="1" stop-color="white" stop-opacity="0"/>
</radialGradient>
</defs>
</svg>
