<svg width="512" height="672" viewBox="0 0 512 672" fill="none" xmlns="http://www.w3.org/2000/svg">
<g filter="url(#filter0_d_2432_59286)">
<rect x="56" y="44" width="400" height="560" rx="28" fill="white"/>
<path d="M200.227 160.909V131.818H202.091V160.909H200.227ZM204.716 141.705C204.64 140.871 204.303 140.223 203.705 139.761C203.114 139.292 202.269 139.057 201.17 139.057C200.443 139.057 199.837 139.152 199.352 139.341C198.867 139.53 198.504 139.792 198.261 140.125C198.019 140.451 197.894 140.826 197.886 141.25C197.871 141.598 197.939 141.905 198.091 142.17C198.25 142.436 198.477 142.67 198.773 142.875C199.076 143.072 199.439 143.246 199.864 143.398C200.288 143.549 200.765 143.682 201.295 143.795L203.295 144.25C204.447 144.5 205.462 144.833 206.341 145.25C207.227 145.667 207.97 146.163 208.568 146.739C209.174 147.314 209.633 147.977 209.943 148.727C210.254 149.477 210.413 150.318 210.42 151.25C210.413 152.72 210.042 153.981 209.307 155.034C208.572 156.087 207.515 156.894 206.136 157.455C204.765 158.015 203.11 158.295 201.17 158.295C199.223 158.295 197.527 158.004 196.08 157.42C194.633 156.837 193.508 155.951 192.705 154.761C191.902 153.572 191.489 152.068 191.466 150.25H196.852C196.898 151 197.098 151.625 197.455 152.125C197.811 152.625 198.299 153.004 198.92 153.261C199.549 153.519 200.277 153.648 201.102 153.648C201.86 153.648 202.504 153.545 203.034 153.341C203.572 153.136 203.985 152.852 204.273 152.489C204.561 152.125 204.708 151.708 204.716 151.239C204.708 150.799 204.572 150.424 204.307 150.114C204.042 149.795 203.633 149.523 203.08 149.295C202.534 149.061 201.837 148.845 200.989 148.648L198.557 148.08C196.542 147.617 194.955 146.871 193.795 145.841C192.636 144.803 192.061 143.402 192.068 141.636C192.061 140.197 192.447 138.936 193.227 137.852C194.008 136.769 195.087 135.924 196.466 135.318C197.845 134.712 199.417 134.409 201.182 134.409C202.985 134.409 204.549 134.716 205.875 135.33C207.208 135.936 208.242 136.788 208.977 137.886C209.712 138.985 210.087 140.258 210.102 141.705H204.716ZM213.216 158V153.955L221.705 146.523C222.341 145.947 222.883 145.42 223.33 144.943C223.777 144.458 224.117 143.973 224.352 143.489C224.587 142.996 224.705 142.462 224.705 141.886C224.705 141.242 224.564 140.693 224.284 140.239C224.004 139.777 223.617 139.42 223.125 139.17C222.633 138.92 222.068 138.795 221.432 138.795C220.788 138.795 220.223 138.928 219.739 139.193C219.254 139.451 218.875 139.826 218.602 140.318C218.337 140.811 218.205 141.409 218.205 142.114H212.875C212.875 140.53 213.231 139.163 213.943 138.011C214.655 136.86 215.655 135.973 216.943 135.352C218.239 134.723 219.742 134.409 221.455 134.409C223.22 134.409 224.754 134.705 226.057 135.295C227.36 135.886 228.367 136.712 229.08 137.773C229.799 138.826 230.159 140.049 230.159 141.443C230.159 142.33 229.981 143.208 229.625 144.08C229.269 144.951 228.629 145.913 227.705 146.966C226.788 148.019 225.485 149.28 223.795 150.75L221.011 153.318V153.466H230.443V158H213.216ZM243.247 158.568C241.217 158.568 239.467 158.087 237.997 157.125C236.527 156.155 235.395 154.765 234.599 152.955C233.804 151.136 233.41 148.951 233.418 146.398C233.425 143.845 233.823 141.678 234.611 139.898C235.406 138.11 236.535 136.75 237.997 135.818C239.467 134.879 241.217 134.409 243.247 134.409C245.277 134.409 247.027 134.879 248.497 135.818C249.974 136.75 251.111 138.11 251.906 139.898C252.702 141.686 253.096 143.852 253.088 146.398C253.088 148.958 252.69 151.148 251.895 152.966C251.099 154.784 249.967 156.174 248.497 157.136C247.035 158.091 245.285 158.568 243.247 158.568ZM243.247 153.966C244.459 153.966 245.44 153.348 246.19 152.114C246.94 150.871 247.312 148.966 247.304 146.398C247.304 144.716 247.134 143.33 246.793 142.239C246.452 141.14 245.978 140.322 245.372 139.784C244.766 139.246 244.058 138.977 243.247 138.977C242.043 138.977 241.069 139.587 240.327 140.807C239.584 142.019 239.209 143.883 239.202 146.398C239.194 148.102 239.357 149.515 239.69 150.636C240.031 151.758 240.509 152.595 241.122 153.148C241.736 153.693 242.444 153.966 243.247 153.966ZM267.071 134.727V158H261.457V139.977H261.321L256.116 143.159V138.295L261.855 134.727H267.071ZM274.199 158.33C273.381 158.33 272.68 158.042 272.097 157.466C271.521 156.89 271.237 156.193 271.244 155.375C271.237 154.572 271.521 153.886 272.097 153.318C272.68 152.742 273.381 152.455 274.199 152.455C274.972 152.455 275.653 152.742 276.244 153.318C276.843 153.886 277.146 154.572 277.153 155.375C277.146 155.92 277.002 156.417 276.722 156.864C276.449 157.311 276.089 157.667 275.642 157.932C275.203 158.197 274.722 158.33 274.199 158.33ZM289.04 134.409C290.313 134.409 291.528 134.617 292.688 135.034C293.847 135.443 294.881 136.098 295.79 137C296.699 137.894 297.415 139.072 297.938 140.534C298.46 141.996 298.722 143.78 298.722 145.886C298.729 147.826 298.502 149.564 298.04 151.102C297.578 152.633 296.915 153.936 296.051 155.011C295.195 156.087 294.165 156.909 292.96 157.477C291.756 158.038 290.411 158.318 288.926 158.318C287.29 158.318 285.847 158.004 284.597 157.375C283.354 156.739 282.358 155.883 281.608 154.807C280.866 153.731 280.422 152.527 280.278 151.193H285.812C285.987 151.966 286.354 152.549 286.915 152.943C287.475 153.33 288.146 153.523 288.926 153.523C290.35 153.523 291.415 152.905 292.119 151.67C292.824 150.436 293.176 148.758 293.176 146.636H293.04C292.714 147.333 292.252 147.932 291.653 148.432C291.063 148.932 290.377 149.314 289.597 149.58C288.816 149.845 287.994 149.977 287.131 149.977C285.737 149.977 284.506 149.659 283.438 149.023C282.377 148.386 281.544 147.511 280.938 146.398C280.339 145.284 280.036 144.011 280.028 142.58C280.021 140.973 280.396 139.557 281.153 138.33C281.911 137.095 282.968 136.133 284.324 135.443C285.68 134.746 287.252 134.402 289.04 134.409ZM289.074 138.727C288.377 138.727 287.756 138.89 287.21 139.216C286.672 139.542 286.248 139.981 285.938 140.534C285.627 141.087 285.475 141.708 285.483 142.398C285.491 143.087 285.646 143.708 285.949 144.261C286.259 144.814 286.68 145.254 287.21 145.58C287.748 145.905 288.362 146.068 289.051 146.068C289.566 146.068 290.044 145.973 290.483 145.784C290.922 145.595 291.305 145.333 291.631 145C291.956 144.659 292.21 144.265 292.392 143.818C292.581 143.371 292.672 142.894 292.665 142.386C292.657 141.712 292.498 141.098 292.188 140.545C291.877 139.992 291.449 139.553 290.903 139.227C290.366 138.894 289.756 138.727 289.074 138.727ZM310.571 134.409C311.844 134.409 313.06 134.617 314.219 135.034C315.378 135.443 316.412 136.098 317.321 137C318.23 137.894 318.946 139.072 319.469 140.534C319.991 141.996 320.253 143.78 320.253 145.886C320.26 147.826 320.033 149.564 319.571 151.102C319.109 152.633 318.446 153.936 317.582 155.011C316.726 156.087 315.696 156.909 314.491 157.477C313.287 158.038 311.942 158.318 310.457 158.318C308.821 158.318 307.378 158.004 306.128 157.375C304.885 156.739 303.889 155.883 303.139 154.807C302.397 153.731 301.954 152.527 301.81 151.193H307.344C307.518 151.966 307.885 152.549 308.446 152.943C309.007 153.33 309.677 153.523 310.457 153.523C311.882 153.523 312.946 152.905 313.651 151.67C314.355 150.436 314.707 148.758 314.707 146.636H314.571C314.245 147.333 313.783 147.932 313.185 148.432C312.594 148.932 311.908 149.314 311.128 149.58C310.348 149.845 309.526 149.977 308.662 149.977C307.268 149.977 306.037 149.659 304.969 149.023C303.908 148.386 303.075 147.511 302.469 146.398C301.87 145.284 301.567 144.011 301.56 142.58C301.552 140.973 301.927 139.557 302.685 138.33C303.442 137.095 304.499 136.133 305.855 135.443C307.211 134.746 308.783 134.402 310.571 134.409ZM310.605 138.727C309.908 138.727 309.287 138.89 308.741 139.216C308.204 139.542 307.779 139.981 307.469 140.534C307.158 141.087 307.007 141.708 307.014 142.398C307.022 143.087 307.177 143.708 307.48 144.261C307.791 144.814 308.211 145.254 308.741 145.58C309.279 145.905 309.893 146.068 310.582 146.068C311.098 146.068 311.575 145.973 312.014 145.784C312.454 145.595 312.836 145.333 313.162 145C313.488 144.659 313.741 144.265 313.923 143.818C314.113 143.371 314.204 142.894 314.196 142.386C314.188 141.712 314.029 141.098 313.719 140.545C313.408 139.992 312.98 139.553 312.435 139.227C311.897 138.894 311.287 138.727 310.605 138.727Z" fill="#18171A"/>
<path d="M120.207 339L120.006 339.684V359.52L120.207 359.721L129.415 354.278L120.207 339Z" fill="#343434"/>
<path d="M120.208 339L111 354.278L120.208 359.721V350.093V339Z" fill="#8C8C8C"/>
<path d="M120.208 361.465L120.095 361.603V368.669L120.208 369L129.422 356.024L120.208 361.465Z" fill="#3C3C3B"/>
<path d="M120.208 369V361.465L111 356.024L120.208 369Z" fill="#8C8C8C"/>
<path d="M120.208 359.722L129.416 354.279L120.208 350.094V359.722Z" fill="#141414"/>
<path d="M111 354.279L120.208 359.722V350.094L111 354.279Z" fill="#393939"/>
<path d="M149.278 360V348.364H156.574V349.875H151.034V353.42H156.193V354.926H151.034V358.489H156.642V360H149.278ZM162.857 351.273V352.636H158.089V351.273H162.857ZM159.368 349.182H161.067V357.438C161.067 357.767 161.116 358.015 161.214 358.182C161.313 358.345 161.44 358.456 161.595 358.517C161.754 358.574 161.927 358.602 162.112 358.602C162.249 358.602 162.368 358.593 162.47 358.574C162.572 358.555 162.652 358.54 162.709 358.528L163.016 359.932C162.917 359.97 162.777 360.008 162.595 360.045C162.413 360.087 162.186 360.11 161.913 360.114C161.466 360.121 161.05 360.042 160.663 359.875C160.277 359.708 159.964 359.451 159.726 359.102C159.487 358.754 159.368 358.316 159.368 357.79V349.182ZM166.622 354.818V360H164.923V348.364H166.599V352.693H166.707C166.912 352.223 167.224 351.85 167.645 351.574C168.065 351.297 168.615 351.159 169.293 351.159C169.891 351.159 170.414 351.282 170.861 351.528C171.312 351.775 171.66 352.142 171.906 352.631C172.156 353.116 172.281 353.722 172.281 354.449V360H170.582V354.653C170.582 354.013 170.418 353.517 170.088 353.165C169.759 352.809 169.3 352.631 168.713 352.631C168.312 352.631 167.952 352.716 167.634 352.886C167.319 353.057 167.071 353.307 166.889 353.636C166.711 353.962 166.622 354.356 166.622 354.818ZM178.31 360.176C177.45 360.176 176.709 359.992 176.088 359.625C175.471 359.254 174.993 358.733 174.656 358.062C174.323 357.388 174.156 356.598 174.156 355.693C174.156 354.799 174.323 354.011 174.656 353.33C174.993 352.648 175.463 352.116 176.065 351.733C176.671 351.35 177.38 351.159 178.19 351.159C178.683 351.159 179.16 351.241 179.622 351.403C180.084 351.566 180.499 351.822 180.866 352.17C181.234 352.519 181.524 352.972 181.736 353.528C181.948 354.081 182.054 354.754 182.054 355.545V356.148H175.116V354.875H180.389C180.389 354.428 180.298 354.032 180.116 353.688C179.935 353.339 179.679 353.064 179.349 352.864C179.024 352.663 178.641 352.562 178.202 352.562C177.724 352.562 177.308 352.68 176.952 352.915C176.599 353.146 176.327 353.449 176.134 353.824C175.944 354.195 175.849 354.598 175.849 355.034V356.028C175.849 356.612 175.952 357.108 176.156 357.517C176.365 357.926 176.654 358.239 177.026 358.455C177.397 358.667 177.83 358.773 178.327 358.773C178.649 358.773 178.942 358.727 179.207 358.636C179.473 358.542 179.702 358.402 179.895 358.216C180.088 358.03 180.236 357.801 180.338 357.528L181.946 357.818C181.817 358.292 181.586 358.706 181.253 359.062C180.923 359.415 180.509 359.689 180.009 359.886C179.512 360.08 178.946 360.176 178.31 360.176ZM183.939 360V351.273H185.581V352.659H185.672C185.831 352.189 186.111 351.82 186.513 351.551C186.918 351.278 187.376 351.142 187.888 351.142C187.994 351.142 188.119 351.146 188.263 351.153C188.411 351.161 188.526 351.17 188.609 351.182V352.807C188.541 352.788 188.42 352.767 188.246 352.744C188.071 352.718 187.897 352.705 187.723 352.705C187.321 352.705 186.964 352.79 186.649 352.96C186.339 353.127 186.092 353.36 185.911 353.659C185.729 353.955 185.638 354.292 185.638 354.67V360H183.939ZM193.528 360.176C192.669 360.176 191.928 359.992 191.307 359.625C190.689 359.254 190.212 358.733 189.875 358.062C189.542 357.388 189.375 356.598 189.375 355.693C189.375 354.799 189.542 354.011 189.875 353.33C190.212 352.648 190.682 352.116 191.284 351.733C191.89 351.35 192.598 351.159 193.409 351.159C193.902 351.159 194.379 351.241 194.841 351.403C195.303 351.566 195.718 351.822 196.085 352.17C196.453 352.519 196.742 352.972 196.955 353.528C197.167 354.081 197.273 354.754 197.273 355.545V356.148H190.335V354.875H195.608C195.608 354.428 195.517 354.032 195.335 353.688C195.153 353.339 194.898 353.064 194.568 352.864C194.242 352.663 193.86 352.562 193.42 352.562C192.943 352.562 192.527 352.68 192.17 352.915C191.818 353.146 191.545 353.449 191.352 353.824C191.163 354.195 191.068 354.598 191.068 355.034V356.028C191.068 356.612 191.17 357.108 191.375 357.517C191.583 357.926 191.873 358.239 192.244 358.455C192.616 358.667 193.049 358.773 193.545 358.773C193.867 358.773 194.161 358.727 194.426 358.636C194.691 358.542 194.92 358.402 195.114 358.216C195.307 358.03 195.455 357.801 195.557 357.528L197.165 357.818C197.036 358.292 196.805 358.706 196.472 359.062C196.142 359.415 195.727 359.689 195.227 359.886C194.731 360.08 194.165 360.176 193.528 360.176ZM204.686 356.381V351.273H206.391V360H204.72V358.489H204.629C204.429 358.955 204.107 359.343 203.663 359.653C203.224 359.96 202.677 360.114 202.021 360.114C201.461 360.114 200.964 359.991 200.533 359.744C200.105 359.494 199.768 359.125 199.521 358.636C199.279 358.148 199.158 357.544 199.158 356.824V351.273H200.857V356.619C200.857 357.214 201.021 357.687 201.351 358.04C201.68 358.392 202.108 358.568 202.635 358.568C202.953 358.568 203.269 358.489 203.584 358.33C203.902 358.17 204.165 357.93 204.374 357.608C204.586 357.286 204.69 356.877 204.686 356.381ZM208.673 360V351.273H210.304V352.693H210.412C210.594 352.212 210.891 351.837 211.304 351.568C211.717 351.295 212.211 351.159 212.787 351.159C213.37 351.159 213.859 351.295 214.253 351.568C214.651 351.841 214.944 352.216 215.134 352.693H215.224C215.433 352.227 215.764 351.856 216.219 351.58C216.673 351.299 217.215 351.159 217.844 351.159C218.635 351.159 219.281 351.407 219.781 351.903C220.285 352.4 220.537 353.148 220.537 354.148V360H218.838V354.307C218.838 353.716 218.677 353.288 218.355 353.023C218.033 352.758 217.649 352.625 217.202 352.625C216.649 352.625 216.219 352.795 215.912 353.136C215.605 353.473 215.452 353.907 215.452 354.438V360H213.759V354.199C213.759 353.725 213.611 353.345 213.315 353.057C213.02 352.769 212.635 352.625 212.162 352.625C211.84 352.625 211.543 352.71 211.27 352.881C211.001 353.047 210.783 353.28 210.616 353.58C210.454 353.879 210.372 354.225 210.372 354.619V360H208.673Z" fill="#18171A"/>
<path d="M350.648 347.455V332.909H351.58V347.455H350.648ZM353.562 337.42C353.502 336.883 353.252 336.466 352.812 336.17C352.373 335.871 351.82 335.722 351.153 335.722C350.676 335.722 350.263 335.797 349.915 335.949C349.566 336.097 349.295 336.301 349.102 336.562C348.913 336.82 348.818 337.114 348.818 337.443C348.818 337.72 348.883 337.958 349.011 338.159C349.144 338.36 349.316 338.528 349.528 338.665C349.744 338.797 349.975 338.909 350.222 339C350.468 339.087 350.705 339.159 350.932 339.216L352.068 339.511C352.439 339.602 352.82 339.725 353.21 339.881C353.6 340.036 353.962 340.241 354.295 340.494C354.629 340.748 354.898 341.062 355.102 341.438C355.311 341.812 355.415 342.261 355.415 342.784C355.415 343.443 355.244 344.028 354.903 344.54C354.566 345.051 354.076 345.455 353.432 345.75C352.792 346.045 352.017 346.193 351.108 346.193C350.237 346.193 349.483 346.055 348.847 345.778C348.21 345.502 347.712 345.11 347.352 344.602C346.992 344.091 346.794 343.485 346.756 342.784H348.517C348.551 343.205 348.688 343.555 348.926 343.835C349.169 344.112 349.477 344.318 349.852 344.455C350.231 344.587 350.646 344.653 351.097 344.653C351.593 344.653 352.034 344.576 352.42 344.42C352.811 344.261 353.117 344.042 353.341 343.761C353.564 343.477 353.676 343.146 353.676 342.767C353.676 342.422 353.578 342.14 353.381 341.92C353.188 341.701 352.924 341.519 352.591 341.375C352.261 341.231 351.888 341.104 351.472 340.994L350.097 340.619C349.165 340.366 348.426 339.992 347.881 339.5C347.339 339.008 347.068 338.356 347.068 337.545C347.068 336.875 347.25 336.29 347.614 335.79C347.977 335.29 348.47 334.902 349.091 334.625C349.712 334.345 350.413 334.205 351.193 334.205C351.981 334.205 352.676 334.343 353.278 334.619C353.884 334.896 354.362 335.277 354.71 335.761C355.059 336.242 355.241 336.795 355.256 337.42H353.562ZM357.354 346V344.727L361.291 340.648C361.712 340.205 362.058 339.816 362.331 339.483C362.607 339.146 362.814 338.826 362.95 338.523C363.087 338.22 363.155 337.898 363.155 337.557C363.155 337.17 363.064 336.837 362.882 336.557C362.7 336.273 362.452 336.055 362.138 335.903C361.823 335.748 361.469 335.67 361.075 335.67C360.659 335.67 360.295 335.756 359.984 335.926C359.674 336.097 359.435 336.337 359.268 336.648C359.102 336.958 359.018 337.322 359.018 337.739H357.342C357.342 337.03 357.505 336.411 357.831 335.881C358.157 335.35 358.604 334.939 359.172 334.648C359.74 334.352 360.386 334.205 361.109 334.205C361.84 334.205 362.484 334.35 363.041 334.642C363.602 334.93 364.039 335.324 364.354 335.824C364.668 336.32 364.825 336.881 364.825 337.506C364.825 337.938 364.744 338.36 364.581 338.773C364.422 339.186 364.143 339.646 363.746 340.153C363.348 340.657 362.795 341.269 362.087 341.989L359.774 344.409V344.494H365.013V346H357.354ZM371.217 346.193C370.32 346.189 369.553 345.953 368.916 345.483C368.28 345.013 367.793 344.33 367.456 343.432C367.119 342.534 366.95 341.453 366.95 340.188C366.95 338.926 367.119 337.848 367.456 336.955C367.797 336.061 368.286 335.379 368.922 334.909C369.562 334.439 370.327 334.205 371.217 334.205C372.107 334.205 372.871 334.441 373.507 334.915C374.143 335.384 374.63 336.066 374.967 336.96C375.308 337.85 375.479 338.926 375.479 340.188C375.479 341.456 375.31 342.54 374.973 343.438C374.636 344.331 374.149 345.015 373.513 345.489C372.876 345.958 372.111 346.193 371.217 346.193ZM371.217 344.676C372.005 344.676 372.621 344.292 373.064 343.523C373.511 342.754 373.734 341.642 373.734 340.188C373.734 339.222 373.632 338.405 373.428 337.739C373.227 337.068 372.937 336.561 372.558 336.216C372.183 335.867 371.736 335.693 371.217 335.693C370.433 335.693 369.818 336.08 369.371 336.852C368.924 337.625 368.698 338.737 368.695 340.188C368.695 341.157 368.795 341.977 368.996 342.648C369.2 343.314 369.49 343.82 369.865 344.165C370.24 344.506 370.691 344.676 371.217 344.676ZM381.909 334.364V346H380.148V336.125H380.08L377.295 337.943V336.261L380.199 334.364H381.909ZM385.527 346.108C385.216 346.108 384.949 345.998 384.726 345.778C384.502 345.555 384.391 345.286 384.391 344.972C384.391 344.661 384.502 344.396 384.726 344.176C384.949 343.953 385.216 343.841 385.527 343.841C385.838 343.841 386.105 343.953 386.328 344.176C386.552 344.396 386.663 344.661 386.663 344.972C386.663 345.18 386.61 345.371 386.504 345.545C386.402 345.716 386.266 345.852 386.095 345.955C385.925 346.057 385.735 346.108 385.527 346.108ZM392.645 334.205C393.164 334.208 393.675 334.303 394.179 334.489C394.683 334.674 395.137 334.977 395.543 335.398C395.952 335.818 396.277 336.386 396.52 337.102C396.766 337.814 396.891 338.701 396.895 339.761C396.895 340.78 396.793 341.687 396.588 342.483C396.384 343.275 396.09 343.943 395.707 344.489C395.329 345.034 394.868 345.449 394.327 345.733C393.785 346.017 393.175 346.159 392.497 346.159C391.804 346.159 391.188 346.023 390.651 345.75C390.113 345.477 389.675 345.1 389.338 344.619C389.001 344.134 388.791 343.578 388.707 342.949H390.44C390.554 343.449 390.785 343.854 391.134 344.165C391.486 344.472 391.94 344.625 392.497 344.625C393.349 344.625 394.014 344.254 394.491 343.511C394.969 342.765 395.209 341.723 395.213 340.386H395.122C394.925 340.712 394.679 340.992 394.384 341.227C394.092 341.462 393.764 341.644 393.401 341.773C393.037 341.902 392.649 341.966 392.236 341.966C391.565 341.966 390.955 341.801 390.406 341.472C389.857 341.142 389.42 340.689 389.094 340.114C388.768 339.538 388.605 338.881 388.605 338.142C388.605 337.407 388.772 336.741 389.105 336.142C389.442 335.544 389.912 335.07 390.514 334.722C391.12 334.369 391.83 334.197 392.645 334.205ZM392.651 335.682C392.207 335.682 391.808 335.792 391.452 336.011C391.099 336.227 390.821 336.521 390.616 336.892C390.412 337.259 390.31 337.669 390.31 338.119C390.31 338.57 390.408 338.979 390.605 339.347C390.806 339.71 391.079 340 391.423 340.216C391.772 340.428 392.17 340.534 392.616 340.534C392.95 340.534 393.26 340.47 393.548 340.341C393.836 340.212 394.088 340.034 394.304 339.807C394.52 339.576 394.688 339.314 394.81 339.023C394.931 338.731 394.991 338.424 394.991 338.102C394.991 337.674 394.889 337.277 394.685 336.909C394.484 336.542 394.207 336.246 393.855 336.023C393.503 335.795 393.101 335.682 392.651 335.682ZM402.817 334.205C403.336 334.208 403.847 334.303 404.351 334.489C404.855 334.674 405.309 334.977 405.714 335.398C406.124 335.818 406.449 336.386 406.692 337.102C406.938 337.814 407.063 338.701 407.067 339.761C407.067 340.78 406.964 341.687 406.76 342.483C406.555 343.275 406.262 343.943 405.879 344.489C405.5 345.034 405.04 345.449 404.499 345.733C403.957 346.017 403.347 346.159 402.669 346.159C401.976 346.159 401.36 346.023 400.822 345.75C400.285 345.477 399.847 345.1 399.51 344.619C399.173 344.134 398.963 343.578 398.879 342.949H400.612C400.726 343.449 400.957 343.854 401.305 344.165C401.658 344.472 402.112 344.625 402.669 344.625C403.521 344.625 404.186 344.254 404.663 343.511C405.141 342.765 405.381 341.723 405.385 340.386H405.294C405.097 340.712 404.851 340.992 404.555 341.227C404.264 341.462 403.936 341.644 403.572 341.773C403.209 341.902 402.821 341.966 402.408 341.966C401.737 341.966 401.127 341.801 400.578 341.472C400.029 341.142 399.591 340.689 399.266 340.114C398.94 339.538 398.777 338.881 398.777 338.142C398.777 337.407 398.944 336.741 399.277 336.142C399.614 335.544 400.084 335.07 400.686 334.722C401.292 334.369 402.002 334.197 402.817 334.205ZM402.822 335.682C402.379 335.682 401.98 335.792 401.624 336.011C401.271 336.227 400.993 336.521 400.788 336.892C400.584 337.259 400.482 337.669 400.482 338.119C400.482 338.57 400.58 338.979 400.777 339.347C400.978 339.71 401.25 340 401.595 340.216C401.944 340.428 402.341 340.534 402.788 340.534C403.122 340.534 403.432 340.47 403.72 340.341C404.008 340.212 404.26 340.034 404.476 339.807C404.692 339.576 404.86 339.314 404.982 339.023C405.103 338.731 405.163 338.424 405.163 338.102C405.163 337.674 405.061 337.277 404.857 336.909C404.656 336.542 404.379 336.246 404.027 336.023C403.675 335.795 403.273 335.682 402.822 335.682Z" fill="#18171A"/>
<path d="M337.453 373.139C336.704 373.139 336.066 372.935 335.539 372.528C335.012 372.117 334.609 371.522 334.331 370.743C334.053 369.961 333.913 369.016 333.913 367.909C333.913 366.809 334.053 365.869 334.331 365.09C334.613 364.308 335.017 363.711 335.544 363.3C336.074 362.886 336.711 362.679 337.453 362.679C338.196 362.679 338.83 362.886 339.357 363.3C339.888 363.711 340.292 364.308 340.57 365.09C340.852 365.869 340.993 366.809 340.993 367.909C340.993 369.016 340.854 369.961 340.575 370.743C340.297 371.522 339.894 372.117 339.367 372.528C338.84 372.935 338.202 373.139 337.453 373.139ZM337.453 372.045C338.196 372.045 338.772 371.687 339.183 370.972C339.594 370.256 339.8 369.235 339.8 367.909C339.8 367.027 339.705 366.277 339.516 365.657C339.331 365.037 339.062 364.565 338.711 364.24C338.363 363.915 337.944 363.753 337.453 363.753C336.717 363.753 336.142 364.116 335.728 364.842C335.314 365.564 335.107 366.587 335.107 367.909C335.107 368.791 335.199 369.54 335.385 370.156C335.571 370.773 335.837 371.242 336.185 371.563C336.537 371.885 336.959 372.045 337.453 372.045ZM343.402 373.08C343.156 373.08 342.946 372.992 342.77 372.816C342.595 372.64 342.507 372.43 342.507 372.185C342.507 371.939 342.595 371.729 342.77 371.553C342.946 371.378 343.156 371.29 343.402 371.29C343.647 371.29 343.857 371.378 344.033 371.553C344.209 371.729 344.297 371.939 344.297 372.185C344.297 372.347 344.255 372.496 344.172 372.632C344.093 372.768 343.985 372.877 343.849 372.96C343.717 373.04 343.567 373.08 343.402 373.08ZM348.745 362.818V373H347.512V364.111H347.452L344.966 365.761V364.509L347.512 362.818H348.745ZM351.673 373V372.105L355.034 368.426C355.428 367.995 355.753 367.621 356.008 367.303C356.264 366.981 356.452 366.679 356.575 366.398C356.701 366.113 356.764 365.814 356.764 365.503C356.764 365.145 356.678 364.835 356.506 364.573C356.336 364.311 356.104 364.109 355.809 363.967C355.515 363.824 355.183 363.753 354.815 363.753C354.424 363.753 354.083 363.834 353.791 363.996C353.503 364.156 353.279 364.379 353.12 364.668C352.964 364.956 352.886 365.294 352.886 365.682H351.713C351.713 365.085 351.85 364.562 352.126 364.111C352.401 363.66 352.775 363.309 353.249 363.057C353.726 362.805 354.262 362.679 354.855 362.679C355.452 362.679 355.98 362.805 356.441 363.057C356.902 363.309 357.263 363.648 357.525 364.076C357.787 364.504 357.917 364.979 357.917 365.503C357.917 365.877 357.849 366.244 357.714 366.602C357.581 366.956 357.349 367.352 357.018 367.79C356.689 368.224 356.234 368.754 355.65 369.381L353.363 371.827V371.906H358.096V373H351.673ZM363.331 373.139C362.748 373.139 362.223 373.023 361.756 372.791C361.288 372.559 360.914 372.241 360.632 371.837C360.35 371.432 360.196 370.972 360.17 370.455H361.363C361.409 370.915 361.618 371.296 361.989 371.598C362.364 371.896 362.811 372.045 363.331 372.045C363.749 372.045 364.12 371.948 364.445 371.752C364.773 371.557 365.03 371.288 365.216 370.947C365.405 370.602 365.499 370.213 365.499 369.778C365.499 369.334 365.401 368.938 365.206 368.59C365.014 368.239 364.748 367.962 364.41 367.76C364.072 367.558 363.686 367.455 363.252 367.452C362.94 367.448 362.621 367.496 362.292 367.596C361.964 367.692 361.694 367.816 361.482 367.969L360.329 367.83L360.945 362.818H366.235V363.912H361.979L361.621 366.915H361.681C361.89 366.749 362.152 366.612 362.466 366.502C362.781 366.393 363.109 366.338 363.451 366.338C364.074 366.338 364.629 366.487 365.116 366.786C365.607 367.08 365.991 367.485 366.27 367.999C366.551 368.512 366.692 369.099 366.692 369.759C366.692 370.408 366.546 370.988 366.255 371.499C365.966 372.006 365.569 372.407 365.062 372.702C364.555 372.993 363.978 373.139 363.331 373.139ZM372.048 373.139C371.63 373.133 371.213 373.053 370.795 372.901C370.377 372.748 369.996 372.491 369.652 372.13C369.307 371.765 369.03 371.273 368.821 370.653C368.613 370.03 368.508 369.248 368.508 368.307C368.508 367.405 368.593 366.607 368.762 365.911C368.931 365.211 369.176 364.623 369.498 364.146C369.819 363.665 370.207 363.3 370.661 363.052C371.118 362.803 371.634 362.679 372.207 362.679C372.777 362.679 373.284 362.793 373.728 363.022C374.176 363.247 374.54 363.562 374.822 363.967C375.104 364.371 375.286 364.837 375.369 365.364H374.156C374.043 364.906 373.824 364.527 373.5 364.225C373.175 363.924 372.744 363.773 372.207 363.773C371.418 363.773 370.797 364.116 370.343 364.802C369.892 365.488 369.665 366.451 369.662 367.69H369.741C369.927 367.409 370.147 367.168 370.402 366.969C370.661 366.767 370.946 366.612 371.257 366.502C371.569 366.393 371.899 366.338 372.247 366.338C372.83 366.338 373.364 366.484 373.848 366.776C374.332 367.064 374.719 367.463 375.011 367.974C375.303 368.481 375.449 369.062 375.449 369.719C375.449 370.348 375.308 370.925 375.026 371.449C374.744 371.969 374.348 372.384 373.838 372.692C373.331 372.997 372.734 373.146 372.048 373.139ZM372.048 372.045C372.466 372.045 372.84 371.941 373.172 371.732C373.506 371.523 373.77 371.243 373.962 370.892C374.158 370.541 374.255 370.15 374.255 369.719C374.255 369.298 374.161 368.915 373.972 368.57C373.786 368.222 373.529 367.946 373.201 367.74C372.877 367.535 372.505 367.432 372.088 367.432C371.773 367.432 371.48 367.495 371.208 367.621C370.936 367.743 370.697 367.912 370.492 368.128C370.29 368.343 370.131 368.59 370.015 368.869C369.899 369.144 369.841 369.434 369.841 369.739C369.841 370.143 369.935 370.521 370.124 370.872C370.316 371.223 370.578 371.507 370.909 371.722C371.244 371.938 371.624 372.045 372.048 372.045ZM381.52 373V362.818H387.665V363.912H382.753V367.352H387.347V368.446H382.753V371.906H387.744V373H381.52ZM389.33 363.912V362.818H396.967V363.912H393.765V373H392.532V363.912H389.33ZM398.87 373V362.818H400.103V367.352H405.532V362.818H406.765V373H405.532V368.446H400.103V373H398.87Z" fill="#4E4D52"/>
<g filter="url(#filter1_b_2432_59286)">
<path d="M56 72C56 56.536 68.536 44 84 44H428C443.464 44 456 56.536 456 72V108H56V72Z" fill="white" fill-opacity="0.9"/>
<rect x="72" y="60" width="32" height="32" rx="16" fill="#F8F8FA"/>
<path fill-rule="evenodd" clip-rule="evenodd" d="M85.5754 72.9703C85.5754 71.6315 86.6608 70.5461 87.9997 70.5461C89.3385 70.5461 90.4239 71.6315 90.4239 72.9703C90.4239 74.3092 89.3385 75.3946 87.9997 75.3946C86.6608 75.3946 85.5754 74.3092 85.5754 72.9703ZM87.9997 69.334C85.9914 69.334 84.3633 70.962 84.3633 72.9703C84.3633 74.9787 85.9914 76.6067 87.9997 76.6067C90.008 76.6067 91.636 74.9787 91.636 72.9703C91.636 70.962 90.008 69.334 87.9997 69.334ZM82.5451 79.94C82.5451 79.1033 83.2235 78.4249 84.0603 78.4249H91.9391C92.7759 78.4249 93.4542 79.1033 93.4542 79.94C93.4542 80.7768 92.7759 81.4552 91.9391 81.4552H84.0603C83.2235 81.4552 82.5451 80.7768 82.5451 79.94ZM84.0603 77.2128C82.554 77.2128 81.333 78.4338 81.333 79.94C81.333 81.4463 82.554 82.6673 84.0603 82.6673H91.9391C93.4453 82.6673 94.6663 81.4463 94.6663 79.94C94.6663 78.4338 93.4453 77.2128 91.9391 77.2128H84.0603Z" fill="#4E4D52"/>
<g style="mix-blend-mode:multiply">
<rect x="114" y="60" width="284" height="32" fill="white"/>
</g>
<rect x="408" y="60" width="32" height="32" rx="16" fill="#F5F5F7"/>
<path d="M424 75.041L427.987 71.0224C428.182 70.8258 428.5 70.8252 428.696 71.021L428.979 71.3041C429.175 71.4999 429.174 71.8176 428.977 72.0126L424.959 75.9995L428.963 80.0035C429.158 80.1988 429.158 80.5154 428.963 80.7106L428.696 80.9778C428.5 81.1737 428.182 81.173 427.987 80.9764L424 76.958L419.996 80.962C419.801 81.1573 419.484 81.1573 419.289 80.962L419.038 80.7106C418.842 80.5153 418.842 80.1987 419.038 80.0034L423.042 75.9994L419.023 72.0126C418.827 71.8176 418.826 71.4999 419.022 71.3041L419.289 71.0369C419.485 70.8417 419.801 70.8417 419.996 71.037L424 75.041Z" fill="#4E4D52"/>
<path d="M225.501 81V70.8182H231.645V71.9119H226.733V75.3523H231.327V76.446H226.733V79.9062H231.725V81H225.501ZM237.03 73.3636V74.358H233.072V73.3636H237.03ZM234.226 71.5341H235.399V78.8125C235.399 79.1439 235.447 79.3925 235.543 79.5582C235.643 79.7206 235.769 79.83 235.921 79.8864C236.077 79.9394 236.241 79.9659 236.413 79.9659C236.542 79.9659 236.648 79.9593 236.731 79.946C236.814 79.9295 236.881 79.9162 236.93 79.9062L237.169 80.9602C237.089 80.9901 236.978 81.0199 236.836 81.0497C236.693 81.0829 236.513 81.0994 236.294 81.0994C235.962 81.0994 235.638 81.0282 235.319 80.8857C235.005 80.7431 234.743 80.526 234.534 80.2344C234.328 79.9427 234.226 79.5748 234.226 79.1307V71.5341ZM240.132 76.4062V81H238.959V70.8182H240.132V74.5568H240.231C240.41 74.1624 240.679 73.8492 241.037 73.6172C241.398 73.3819 241.879 73.2642 242.479 73.2642C242.999 73.2642 243.455 73.3686 243.846 73.5774C244.237 73.7829 244.54 74.0994 244.756 74.527C244.974 74.9512 245.084 75.4915 245.084 76.1477V81H243.91V76.2273C243.91 75.6207 243.753 75.1518 243.438 74.8203C243.126 74.4856 242.694 74.3182 242.14 74.3182C241.756 74.3182 241.411 74.3994 241.106 74.5618C240.805 74.7242 240.566 74.9612 240.39 75.2727C240.218 75.5843 240.132 75.9621 240.132 76.4062ZM250.432 81.1591C249.696 81.1591 249.061 80.9967 248.528 80.6719C247.997 80.3438 247.588 79.8864 247.3 79.2997C247.015 78.7098 246.872 78.0237 246.872 77.2415C246.872 76.4593 247.015 75.7699 247.3 75.1733C247.588 74.5734 247.989 74.1061 248.503 73.7713C249.02 73.4332 249.623 73.2642 250.312 73.2642C250.71 73.2642 251.103 73.3305 251.491 73.4631C251.879 73.5956 252.232 73.8111 252.55 74.1094C252.868 74.4044 253.121 74.7955 253.31 75.2827C253.499 75.7699 253.594 76.3698 253.594 77.0824V77.5795H247.707V76.5653H252.401C252.401 76.1345 252.314 75.75 252.142 75.4119C251.973 75.0739 251.731 74.8071 251.416 74.6115C251.105 74.416 250.737 74.3182 250.312 74.3182C249.845 74.3182 249.441 74.4342 249.099 74.6662C248.761 74.8949 248.501 75.1932 248.319 75.5611C248.137 75.929 248.045 76.3234 248.045 76.7443V77.4205C248.045 77.9972 248.145 78.486 248.344 78.8871C248.546 79.2848 248.826 79.5881 249.184 79.7969C249.542 80.0024 249.958 80.1051 250.432 80.1051C250.74 80.1051 251.018 80.062 251.267 79.9759C251.519 79.8864 251.736 79.7538 251.918 79.5781C252.101 79.3991 252.241 79.1771 252.341 78.9119L253.474 79.2301C253.355 79.6146 253.155 79.9527 252.873 80.2443C252.591 80.5327 252.243 80.758 251.829 80.9205C251.415 81.0795 250.949 81.1591 250.432 81.1591ZM255.379 81V73.3636H256.512V74.517H256.592C256.731 74.1392 256.983 73.8326 257.347 73.5973C257.712 73.362 258.123 73.2443 258.58 73.2443C258.666 73.2443 258.774 73.246 258.903 73.2493C259.033 73.2526 259.13 73.2576 259.197 73.2642V74.4574C259.157 74.4474 259.066 74.4325 258.923 74.4126C258.784 74.3894 258.637 74.3778 258.481 74.3778C258.11 74.3778 257.778 74.4557 257.487 74.6115C257.198 74.764 256.969 74.9761 256.8 75.2479C256.635 75.5163 256.552 75.8229 256.552 76.1676V81H255.379ZM263.557 81.1591C262.821 81.1591 262.186 80.9967 261.653 80.6719C261.122 80.3438 260.713 79.8864 260.425 79.2997C260.14 78.7098 259.997 78.0237 259.997 77.2415C259.997 76.4593 260.14 75.7699 260.425 75.1733C260.713 74.5734 261.114 74.1061 261.628 73.7713C262.145 73.4332 262.748 73.2642 263.438 73.2642C263.835 73.2642 264.228 73.3305 264.616 73.4631C265.004 73.5956 265.357 73.8111 265.675 74.1094C265.993 74.4044 266.246 74.7955 266.435 75.2827C266.624 75.7699 266.719 76.3698 266.719 77.0824V77.5795H260.832V76.5653H265.526C265.526 76.1345 265.439 75.75 265.267 75.4119C265.098 75.0739 264.856 74.8071 264.541 74.6115C264.23 74.416 263.862 74.3182 263.438 74.3182C262.97 74.3182 262.566 74.4342 262.224 74.6662C261.886 74.8949 261.626 75.1932 261.444 75.5611C261.262 75.929 261.17 76.3234 261.17 76.7443V77.4205C261.17 77.9972 261.27 78.486 261.469 78.8871C261.671 79.2848 261.951 79.5881 262.309 79.7969C262.667 80.0024 263.083 80.1051 263.557 80.1051C263.865 80.1051 264.143 80.062 264.392 79.9759C264.644 79.8864 264.861 79.7538 265.043 79.5781C265.226 79.3991 265.366 79.1771 265.466 78.9119L266.599 79.2301C266.48 79.6146 266.28 79.9527 265.998 80.2443C265.716 80.5327 265.368 80.758 264.954 80.9205C264.54 81.0795 264.074 81.1591 263.557 81.1591ZM273.316 77.8778V73.3636H274.489V81H273.316V79.7074H273.237C273.058 80.0952 272.779 80.425 272.401 80.6967C272.023 80.9652 271.546 81.0994 270.969 81.0994C270.492 81.0994 270.068 80.995 269.697 80.7862C269.326 80.5741 269.034 80.2559 268.822 79.8317C268.61 79.4041 268.504 78.8655 268.504 78.2159V73.3636H269.677V78.1364C269.677 78.6932 269.833 79.1373 270.144 79.4688C270.459 79.8002 270.86 79.9659 271.347 79.9659C271.639 79.9659 271.936 79.8913 272.237 79.7422C272.542 79.593 272.797 79.3643 273.003 79.0561C273.212 78.7479 273.316 78.3551 273.316 77.8778ZM276.638 81V73.3636H277.772V74.5568H277.871C278.03 74.1491 278.287 73.8326 278.642 73.6072C278.997 73.3786 279.422 73.2642 279.92 73.2642C280.423 73.2642 280.843 73.3786 281.177 73.6072C281.515 73.8326 281.779 74.1491 281.968 74.5568H282.047C282.243 74.1624 282.536 73.8492 282.927 73.6172C283.318 73.3819 283.787 73.2642 284.334 73.2642C285.017 73.2642 285.576 73.478 286.01 73.9055C286.444 74.3298 286.661 74.991 286.661 75.8892V81H285.488V75.8892C285.488 75.3258 285.334 74.9231 285.025 74.6811C284.717 74.4392 284.354 74.3182 283.937 74.3182C283.4 74.3182 282.984 74.4806 282.689 74.8054C282.394 75.1269 282.246 75.5346 282.246 76.0284V81H281.053V75.7699C281.053 75.3357 280.912 74.986 280.631 74.7209C280.349 74.4524 279.986 74.3182 279.542 74.3182C279.237 74.3182 278.952 74.3994 278.687 74.5618C278.425 74.7242 278.213 74.9496 278.05 75.2379C277.891 75.523 277.812 75.8527 277.812 76.2273V81H276.638Z" fill="#77767A"/>
</g>
<path d="M217.305 194.159C216.449 194.159 215.719 193.926 215.117 193.46C214.515 192.991 214.055 192.311 213.737 191.42C213.418 190.527 213.259 189.447 213.259 188.182C213.259 186.924 213.418 185.85 213.737 184.96C214.058 184.066 214.521 183.384 215.123 182.915C215.729 182.441 216.456 182.205 217.305 182.205C218.153 182.205 218.879 182.441 219.481 182.915C220.087 183.384 220.549 184.066 220.867 184.96C221.189 185.85 221.35 186.924 221.35 188.182C221.35 189.447 221.191 190.527 220.873 191.42C220.555 192.311 220.094 192.991 219.492 193.46C218.89 193.926 218.161 194.159 217.305 194.159ZM217.305 192.909C218.153 192.909 218.812 192.5 219.282 191.682C219.752 190.864 219.987 189.697 219.987 188.182C219.987 187.174 219.879 186.316 219.663 185.608C219.451 184.9 219.144 184.36 218.742 183.989C218.344 183.617 217.865 183.432 217.305 183.432C216.464 183.432 215.807 183.847 215.333 184.676C214.86 185.502 214.623 186.67 214.623 188.182C214.623 189.189 214.729 190.045 214.941 190.75C215.153 191.455 215.458 191.991 215.856 192.358C216.257 192.725 216.74 192.909 217.305 192.909ZM224.532 185.273L226.623 188.841L228.714 185.273H230.259L227.441 189.636L230.259 194H228.714L226.623 190.614L224.532 194H222.987L225.759 189.636L222.987 185.273H224.532ZM235.854 182.205C236.332 182.208 236.809 182.299 237.286 182.477C237.763 182.655 238.199 182.951 238.593 183.364C238.987 183.773 239.303 184.331 239.542 185.04C239.781 185.748 239.9 186.636 239.9 187.705C239.9 188.739 239.801 189.657 239.604 190.46C239.411 191.259 239.131 191.934 238.763 192.483C238.4 193.032 237.957 193.449 237.434 193.733C236.915 194.017 236.328 194.159 235.673 194.159C235.021 194.159 234.44 194.03 233.928 193.773C233.421 193.511 233.004 193.15 232.678 192.688C232.356 192.222 232.15 191.682 232.059 191.068H233.445C233.57 191.602 233.818 192.044 234.19 192.392C234.565 192.737 235.059 192.909 235.673 192.909C236.57 192.909 237.279 192.517 237.798 191.733C238.32 190.949 238.582 189.841 238.582 188.409H238.491C238.279 188.727 238.027 189.002 237.735 189.233C237.443 189.464 237.12 189.642 236.763 189.767C236.407 189.892 236.029 189.955 235.627 189.955C234.96 189.955 234.349 189.79 233.792 189.46C233.239 189.127 232.796 188.67 232.462 188.091C232.133 187.508 231.968 186.841 231.968 186.091C231.968 185.379 232.127 184.727 232.445 184.136C232.767 183.542 233.218 183.068 233.798 182.716C234.381 182.364 235.067 182.193 235.854 182.205ZM235.854 183.455C235.377 183.455 234.947 183.574 234.565 183.812C234.186 184.047 233.885 184.366 233.661 184.767C233.442 185.165 233.332 185.606 233.332 186.091C233.332 186.576 233.438 187.017 233.65 187.415C233.866 187.809 234.159 188.123 234.531 188.358C234.906 188.589 235.332 188.705 235.809 188.705C236.169 188.705 236.504 188.634 236.815 188.494C237.125 188.35 237.396 188.155 237.627 187.909C237.862 187.659 238.046 187.377 238.178 187.062C238.311 186.744 238.377 186.413 238.377 186.068C238.377 185.614 238.267 185.187 238.048 184.79C237.832 184.392 237.532 184.07 237.15 183.824C236.771 183.578 236.339 183.455 235.854 183.455ZM242.339 194V182.364H243.68V186.659H243.793C243.892 186.508 244.028 186.314 244.202 186.08C244.38 185.841 244.634 185.629 244.964 185.443C245.297 185.254 245.748 185.159 246.316 185.159C247.051 185.159 247.699 185.343 248.259 185.71C248.82 186.078 249.257 186.598 249.572 187.273C249.886 187.947 250.043 188.742 250.043 189.659C250.043 190.583 249.886 191.384 249.572 192.062C249.257 192.737 248.822 193.259 248.265 193.631C247.708 193.998 247.066 194.182 246.339 194.182C245.778 194.182 245.329 194.089 244.992 193.903C244.655 193.714 244.396 193.5 244.214 193.261C244.032 193.019 243.892 192.818 243.793 192.659H243.634V194H242.339ZM243.657 189.636C243.657 190.295 243.754 190.877 243.947 191.381C244.14 191.881 244.422 192.273 244.793 192.557C245.165 192.837 245.619 192.977 246.157 192.977C246.718 192.977 247.185 192.83 247.56 192.534C247.939 192.235 248.223 191.833 248.413 191.33C248.606 190.822 248.702 190.258 248.702 189.636C248.702 189.023 248.608 188.47 248.418 187.977C248.233 187.481 247.951 187.089 247.572 186.801C247.197 186.509 246.725 186.364 246.157 186.364C245.612 186.364 245.153 186.502 244.782 186.778C244.411 187.051 244.13 187.434 243.941 187.926C243.752 188.415 243.657 188.985 243.657 189.636ZM253.072 194.091C252.791 194.091 252.551 193.991 252.35 193.79C252.149 193.589 252.049 193.348 252.049 193.068C252.049 192.788 252.149 192.547 252.35 192.347C252.551 192.146 252.791 192.045 253.072 192.045C253.352 192.045 253.593 192.146 253.793 192.347C253.994 192.547 254.094 192.788 254.094 193.068C254.094 193.254 254.047 193.424 253.952 193.58C253.862 193.735 253.738 193.86 253.583 193.955C253.432 194.045 253.261 194.091 253.072 194.091ZM257.478 194.091C257.198 194.091 256.957 193.991 256.756 193.79C256.556 193.589 256.455 193.348 256.455 193.068C256.455 192.788 256.556 192.547 256.756 192.347C256.957 192.146 257.198 192.045 257.478 192.045C257.758 192.045 257.999 192.146 258.2 192.347C258.4 192.547 258.501 192.788 258.501 193.068C258.501 193.254 258.453 193.424 258.359 193.58C258.268 193.735 258.145 193.86 257.989 193.955C257.838 194.045 257.667 194.091 257.478 194.091ZM261.884 194.091C261.604 194.091 261.363 193.991 261.163 193.79C260.962 193.589 260.862 193.348 260.862 193.068C260.862 192.788 260.962 192.547 261.163 192.347C261.363 192.146 261.604 192.045 261.884 192.045C262.165 192.045 262.405 192.146 262.606 192.347C262.807 192.547 262.907 192.788 262.907 193.068C262.907 193.254 262.86 193.424 262.765 193.58C262.674 193.735 262.551 193.86 262.396 193.955C262.244 194.045 262.074 194.091 261.884 194.091ZM268.785 194.159C268.035 194.159 267.366 194.03 266.779 193.773C266.196 193.515 265.732 193.157 265.387 192.699C265.046 192.237 264.861 191.701 264.83 191.091H266.262C266.292 191.466 266.421 191.79 266.648 192.062C266.876 192.331 267.173 192.54 267.54 192.688C267.908 192.835 268.315 192.909 268.762 192.909C269.262 192.909 269.705 192.822 270.092 192.648C270.478 192.473 270.781 192.231 271.001 191.92C271.22 191.61 271.33 191.25 271.33 190.841C271.33 190.413 271.224 190.036 271.012 189.71C270.8 189.381 270.489 189.123 270.08 188.938C269.671 188.752 269.171 188.659 268.58 188.659H267.648V187.409H268.58C269.042 187.409 269.448 187.326 269.796 187.159C270.148 186.992 270.423 186.758 270.62 186.455C270.821 186.152 270.921 185.795 270.921 185.386C270.921 184.992 270.834 184.65 270.66 184.358C270.486 184.066 270.239 183.839 269.921 183.676C269.607 183.513 269.236 183.432 268.808 183.432C268.406 183.432 268.027 183.506 267.671 183.653C267.319 183.797 267.031 184.008 266.808 184.284C266.584 184.557 266.463 184.886 266.444 185.273H265.08C265.103 184.663 265.287 184.129 265.631 183.67C265.976 183.208 266.427 182.848 266.984 182.591C267.544 182.333 268.16 182.205 268.83 182.205C269.55 182.205 270.167 182.35 270.683 182.642C271.198 182.93 271.594 183.311 271.87 183.784C272.147 184.258 272.285 184.769 272.285 185.318C272.285 185.973 272.112 186.532 271.768 186.994C271.427 187.456 270.963 187.777 270.376 187.955V188.045C271.111 188.167 271.684 188.479 272.097 188.983C272.51 189.483 272.717 190.102 272.717 190.841C272.717 191.473 272.544 192.042 272.2 192.545C271.859 193.045 271.393 193.439 270.802 193.727C270.211 194.015 269.539 194.159 268.785 194.159ZM279.131 182.364V194H277.722V183.841H277.654L274.813 185.727V184.295L277.722 182.364H279.131ZM286.569 182.364V194H285.16V183.841H285.092L282.251 185.727V184.295L285.16 182.364H286.569ZM293.62 182.205C294.097 182.208 294.575 182.299 295.052 182.477C295.529 182.655 295.965 182.951 296.359 183.364C296.753 183.773 297.069 184.331 297.308 185.04C297.546 185.748 297.665 186.636 297.665 187.705C297.665 188.739 297.567 189.657 297.37 190.46C297.177 191.259 296.897 191.934 296.529 192.483C296.165 193.032 295.722 193.449 295.2 193.733C294.681 194.017 294.094 194.159 293.438 194.159C292.787 194.159 292.205 194.03 291.694 193.773C291.186 193.511 290.77 193.15 290.444 192.688C290.122 192.222 289.915 191.682 289.825 191.068H291.211C291.336 191.602 291.584 192.044 291.955 192.392C292.33 192.737 292.825 192.909 293.438 192.909C294.336 192.909 295.044 192.517 295.563 191.733C296.086 190.949 296.347 189.841 296.347 188.409H296.256C296.044 188.727 295.792 189.002 295.501 189.233C295.209 189.464 294.885 189.642 294.529 189.767C294.173 189.892 293.794 189.955 293.393 189.955C292.726 189.955 292.114 189.79 291.558 189.46C291.004 189.127 290.561 188.67 290.228 188.091C289.898 187.508 289.734 186.841 289.734 186.091C289.734 185.379 289.893 184.727 290.211 184.136C290.533 183.542 290.984 183.068 291.563 182.716C292.147 182.364 292.832 182.193 293.62 182.205ZM293.62 183.455C293.143 183.455 292.713 183.574 292.33 183.812C291.951 184.047 291.65 184.366 291.427 184.767C291.207 185.165 291.097 185.606 291.097 186.091C291.097 186.576 291.203 187.017 291.415 187.415C291.631 187.809 291.925 188.123 292.296 188.358C292.671 188.589 293.097 188.705 293.575 188.705C293.934 188.705 294.27 188.634 294.58 188.494C294.891 188.35 295.162 188.155 295.393 187.909C295.628 187.659 295.811 187.377 295.944 187.062C296.076 186.744 296.143 186.413 296.143 186.068C296.143 185.614 296.033 185.187 295.813 184.79C295.597 184.392 295.298 184.07 294.915 183.824C294.537 183.578 294.105 183.455 293.62 183.455Z" fill="#77767A"/>
<path d="M192.105 549.762H193.375C193.337 548.364 192.101 547.35 190.328 547.35C188.577 547.35 187.234 548.351 187.234 549.855C187.234 551.07 188.104 551.781 189.506 552.161L190.537 552.442C191.47 552.689 192.19 552.996 192.19 553.771C192.19 554.624 191.376 555.186 190.256 555.186C189.241 555.186 188.398 554.735 188.321 553.784H187C187.085 555.365 188.308 556.341 190.264 556.341C192.314 556.341 193.494 555.263 193.494 553.784C193.494 552.212 192.092 551.602 190.984 551.33L190.132 551.108C189.45 550.933 188.543 550.614 188.547 549.779C188.547 549.037 189.224 548.487 190.298 548.487C191.3 548.487 192.011 548.956 192.105 549.762Z" fill="#B6B4BA"/>
<path d="M197.787 556.328C199.214 556.328 200.224 555.625 200.514 554.56L199.308 554.343C199.078 554.96 198.524 555.276 197.799 555.276C196.708 555.276 195.975 554.568 195.941 553.307H200.595V552.855C200.595 550.49 199.18 549.566 197.697 549.566C195.873 549.566 194.672 550.955 194.672 552.966C194.672 554.999 195.856 556.328 197.787 556.328ZM195.946 552.352C195.997 551.423 196.67 550.618 197.706 550.618C198.694 550.618 199.342 551.351 199.346 552.352H195.946Z" fill="#B6B4BA"/>
<path d="M204.766 556.328C206.312 556.328 207.314 555.399 207.455 554.125H206.214C206.053 554.833 205.503 555.25 204.774 555.25C203.696 555.25 203.001 554.351 203.001 552.923C203.001 551.521 203.709 550.639 204.774 550.639C205.584 550.639 206.078 551.151 206.214 551.764H207.455C207.318 550.443 206.24 549.566 204.753 549.566C202.908 549.566 201.714 550.955 201.714 552.953C201.714 554.926 202.865 556.328 204.766 556.328Z" fill="#B6B4BA"/>
<path d="M212.963 553.482C212.968 554.594 212.141 555.122 211.425 555.122C210.637 555.122 210.091 554.551 210.091 553.661V549.651H208.817V553.814C208.817 555.438 209.708 556.281 210.965 556.281C211.949 556.281 212.618 555.762 212.921 555.063H212.989V556.196H214.242V549.651H212.963V553.482Z" fill="#B6B4BA"/>
<path d="M215.954 556.196H217.228V552.199C217.228 551.343 217.888 550.725 218.792 550.725C219.056 550.725 219.354 550.771 219.457 550.801V549.583C219.329 549.566 219.077 549.553 218.915 549.553C218.148 549.553 217.492 549.987 217.254 550.691H217.185V549.651H215.954V556.196Z" fill="#B6B4BA"/>
<path d="M223.146 556.328C224.574 556.328 225.583 555.625 225.873 554.56L224.667 554.343C224.437 554.96 223.883 555.276 223.159 555.276C222.068 555.276 221.335 554.568 221.301 553.307H225.954V552.855C225.954 550.49 224.539 549.566 223.056 549.566C221.233 549.566 220.031 550.955 220.031 552.966C220.031 554.999 221.216 556.328 223.146 556.328ZM221.305 552.352C221.356 551.423 222.029 550.618 223.065 550.618C224.054 550.618 224.701 551.351 224.706 552.352H221.305Z" fill="#B6B4BA"/>
<path d="M229.818 556.324C231.011 556.324 231.48 555.595 231.71 555.178H231.817V556.196H233.061V547.469H231.787V550.712H231.71C231.48 550.307 231.045 549.566 229.827 549.566C228.246 549.566 227.082 550.814 227.082 552.936C227.082 555.054 228.229 556.324 229.818 556.324ZM230.099 555.237C228.962 555.237 228.369 554.236 228.369 552.923C228.369 551.624 228.949 550.648 230.099 550.648C231.212 550.648 231.808 551.556 231.808 552.923C231.808 554.3 231.199 555.237 230.099 555.237Z" fill="#B6B4BA"/>
<path d="M238.158 556.196H239.402V555.178H239.509C239.739 555.595 240.207 556.324 241.401 556.324C242.986 556.324 244.136 555.054 244.136 552.936C244.136 550.814 242.969 549.566 241.388 549.566C240.173 549.566 239.734 550.307 239.509 550.712H239.432V547.469H238.158V556.196ZM239.406 552.923C239.406 551.556 240.003 550.648 241.115 550.648C242.27 550.648 242.849 551.624 242.849 552.923C242.849 554.236 242.253 555.237 241.115 555.237C240.02 555.237 239.406 554.3 239.406 552.923Z" fill="#B6B4BA"/>
<path d="M246.138 558.651C247.191 558.651 247.855 558.101 248.235 557.07L250.941 549.664L249.564 549.651L247.907 554.73H247.838L246.181 549.651H244.817L247.212 556.281L247.054 556.716C246.73 557.585 246.275 557.658 245.576 557.466L245.269 558.51C245.422 558.578 245.755 558.651 246.138 558.651Z" fill="#B6B4BA"/>
<path fill-rule="evenodd" clip-rule="evenodd" d="M315.869 548.472C316.574 548.472 317.145 547.901 317.145 547.196C317.145 546.491 316.574 545.92 315.869 545.92C315.164 545.92 314.593 546.491 314.593 547.196C314.593 547.901 315.164 548.472 315.869 548.472ZM285.246 547.036H287.878L290.657 553.672H290.775L293.554 547.036H296.186V556.912H294.116V550.484H294.032L291.421 556.864H290.011L287.4 550.46H287.316V556.912H285.246V547.036ZM300.185 557.052C299.462 557.052 298.862 556.867 298.386 556.498C297.91 556.128 297.672 555.576 297.672 554.844C297.672 554.291 297.805 553.857 298.071 553.542C298.337 553.226 298.685 552.997 299.115 552.852C299.549 552.704 300.016 552.608 300.515 552.563C301.172 552.498 301.642 552.431 301.924 552.36C302.207 552.289 302.348 552.135 302.348 551.897V551.868C302.348 551.563 302.249 551.327 302.052 551.159C301.859 550.992 301.583 550.909 301.224 550.909C300.847 550.909 300.546 550.989 300.323 551.15C300.099 551.31 299.951 551.515 299.879 551.762L297.938 551.608C298.082 550.933 298.44 550.397 299.012 550.002C299.587 549.607 300.328 549.409 301.234 549.409C301.796 549.409 302.322 549.496 302.811 549.669C303.301 549.843 303.695 550.115 303.994 550.484C304.296 550.851 304.447 551.328 304.447 551.916V556.912H302.456V555.885H302.397C302.213 556.229 301.937 556.51 301.569 556.729C301.205 556.944 300.743 557.052 300.185 557.052ZM300.786 555.634C301.246 555.634 301.624 555.504 301.919 555.244C302.215 554.98 302.363 554.654 302.363 554.265V553.479C302.281 553.533 302.153 553.582 301.978 553.624C301.808 553.665 301.624 553.702 301.427 553.734C301.233 553.763 301.059 553.789 300.904 553.812C300.536 553.863 300.239 553.964 300.012 554.115C299.789 554.266 299.677 554.487 299.677 554.776C299.677 555.059 299.781 555.273 299.988 555.417C300.198 555.562 300.464 555.634 300.786 555.634ZM307.086 559.208C307.668 559.6 308.468 559.796 309.486 559.796C310.209 559.796 310.848 559.69 311.403 559.478C311.958 559.265 312.393 558.95 312.709 558.532C313.027 558.115 313.187 557.599 313.187 556.985V549.505H311.102V550.749H311.023C310.931 550.547 310.797 550.343 310.619 550.137C310.442 549.931 310.21 549.759 309.925 549.621C309.639 549.48 309.284 549.409 308.86 549.409C308.308 549.409 307.799 549.55 307.332 549.833C306.869 550.113 306.496 550.532 306.214 551.092C305.935 551.651 305.795 552.352 305.795 553.194C305.795 554.014 305.931 554.691 306.204 555.224C306.48 555.758 306.85 556.155 307.313 556.416C307.779 556.676 308.297 556.806 308.865 556.806C309.47 556.806 309.946 556.682 310.294 556.435C310.642 556.184 310.885 555.906 311.023 555.601H311.112V556.956C311.112 557.441 310.963 557.79 310.664 558.002C310.368 558.214 309.992 558.32 309.535 558.32C309.072 558.32 308.716 558.237 308.466 558.07C308.22 557.906 308.054 557.724 307.968 557.525L306.027 557.78C306.151 558.34 306.505 558.815 307.086 559.208ZM310.703 554.713C310.427 555.08 310.036 555.263 309.53 555.263C309.015 555.263 308.62 555.077 308.348 554.704C308.075 554.331 307.939 553.824 307.939 553.185C307.939 552.555 308.073 552.04 308.343 551.642C308.615 551.243 309.011 551.044 309.53 551.044C310.039 551.044 310.432 551.238 310.708 551.627C310.984 552.016 311.122 552.535 311.122 553.185C311.122 553.837 310.982 554.347 310.703 554.713ZM314.857 556.912V549.505H316.956V556.912H314.857ZM320.057 556.575C320.616 556.896 321.283 557.057 322.058 557.057C322.731 557.057 323.315 556.938 323.807 556.7C324.3 556.459 324.686 556.123 324.965 555.692C325.248 555.261 325.406 554.763 325.438 554.197H323.457C323.395 554.593 323.241 554.898 322.994 555.114C322.748 555.326 322.444 555.432 322.083 555.432C321.593 555.432 321.201 555.239 320.905 554.853C320.612 554.464 320.466 553.916 320.466 553.209C320.466 552.508 320.614 551.966 320.91 551.584C321.205 551.201 321.596 551.01 322.083 551.01C322.467 551.01 322.777 551.124 323.014 551.352C323.254 551.577 323.402 551.875 323.457 552.244H325.438C325.409 551.672 325.25 551.174 324.96 550.749C324.675 550.325 324.282 549.996 323.783 549.761C323.287 549.526 322.708 549.409 322.048 549.409C321.283 549.409 320.622 549.571 320.067 549.896C319.512 550.217 319.083 550.666 318.781 551.241C318.482 551.814 318.333 552.479 318.333 553.238C318.333 553.987 318.48 554.649 318.776 555.224C319.075 555.8 319.502 556.25 320.057 556.575Z" fill="#B6B4BA"/>
<path fill-rule="evenodd" clip-rule="evenodd" d="M268.894 540C269.932 541.272 271.078 542.453 272.317 543.53C271.491 546.207 271.047 549.052 271.047 552C271.047 554.948 271.491 557.793 272.317 560.47C271.078 561.547 269.932 562.728 268.894 564C267.855 562.728 266.71 561.547 265.471 560.47C266.296 557.792 266.741 554.948 266.741 552C266.741 549.052 266.296 546.208 265.471 543.53C266.71 542.453 267.855 541.272 268.894 540ZM263.103 558.619C261.792 557.7 260.4 556.887 258.941 556.195C259.346 554.868 259.563 553.459 259.563 552C259.563 550.541 259.346 549.132 258.941 547.805C260.4 547.113 261.792 546.3 263.103 545.381C263.605 547.506 263.87 549.722 263.87 552C263.87 554.278 263.605 556.494 263.103 558.619ZM273.918 552C273.918 554.278 274.183 556.494 274.684 558.619C275.996 557.7 277.387 556.887 278.847 556.195C278.442 554.868 278.224 553.459 278.224 552C278.224 550.541 278.442 549.132 278.847 547.805C277.387 547.113 275.996 546.3 274.684 545.381C274.183 547.506 273.918 549.722 273.918 552Z" fill="#B6B4BA"/>
<rect x="160" y="224" width="40" height="40" rx="20" fill="#F8F8FA"/>
<path fill-rule="evenodd" clip-rule="evenodd" d="M183.968 236.965C185.602 236.421 186.504 236.711 186.896 237.103C187.289 237.497 187.578 238.403 187.038 240.036L187.038 240.037L184.383 248L184.383 248C183.959 249.275 183.49 250.153 183.045 250.692C182.597 251.235 182.264 251.334 182.085 251.334C181.906 251.334 181.574 251.235 181.125 250.692C180.682 250.155 180.216 249.283 179.793 248.017L179.251 246.164L182.374 243.041C182.765 242.65 182.765 242.017 182.374 241.626C181.984 241.236 181.35 241.236 180.96 241.626L177.836 244.75L175.984 244.209C174.718 243.786 173.845 243.321 173.308 242.878C172.765 242.43 172.667 242.098 172.667 241.921C172.667 241.744 172.765 241.411 173.309 240.962C173.848 240.516 174.727 240.047 176.002 239.62L176.003 239.62L183.968 236.965ZM188.937 240.665C189.579 238.724 189.487 236.868 188.311 235.69C187.134 234.511 185.278 234.421 183.336 235.068L175.369 237.723L175.368 237.723C173.965 238.193 172.834 238.76 172.035 239.42C171.239 240.078 170.667 240.922 170.667 241.921C170.667 242.92 171.239 243.764 172.035 244.421C172.835 245.08 173.966 245.646 175.37 246.113C175.381 246.116 175.393 246.12 175.405 246.124L177.319 246.683L177.879 248.597C177.882 248.608 177.886 248.62 177.89 248.632C178.357 250.035 178.923 251.166 179.583 251.966C180.241 252.762 181.086 253.334 182.085 253.334C183.084 253.334 183.929 252.762 184.587 251.966C185.247 251.166 185.813 250.035 186.28 248.632L186.281 248.632L188.936 240.667L188.937 240.665Z" fill="#4E4D52"/>
<path d="M170.719 277.565C170.673 277.162 170.486 276.849 170.156 276.628C169.827 276.403 169.412 276.291 168.912 276.291C168.554 276.291 168.244 276.348 167.983 276.462C167.722 276.572 167.518 276.726 167.374 276.922C167.232 277.115 167.161 277.335 167.161 277.582C167.161 277.79 167.209 277.969 167.305 278.119C167.405 278.27 167.534 278.396 167.693 278.499C167.855 278.598 168.028 278.682 168.213 278.75C168.398 278.815 168.575 278.869 168.746 278.912L169.598 279.134C169.876 279.202 170.162 279.294 170.455 279.411C170.747 279.527 171.018 279.68 171.268 279.871C171.518 280.061 171.72 280.297 171.874 280.578C172.03 280.859 172.108 281.196 172.108 281.588C172.108 282.082 171.98 282.521 171.724 282.905C171.472 283.288 171.104 283.591 170.621 283.812C170.141 284.034 169.56 284.145 168.878 284.145C168.224 284.145 167.659 284.041 167.182 283.834C166.705 283.626 166.331 283.332 166.061 282.952C165.791 282.568 165.642 282.114 165.614 281.588H166.935C166.96 281.903 167.063 282.166 167.241 282.376C167.423 282.584 167.655 282.739 167.936 282.841C168.22 282.94 168.531 282.99 168.869 282.99C169.241 282.99 169.572 282.932 169.862 282.815C170.155 282.696 170.385 282.531 170.553 282.321C170.72 282.108 170.804 281.859 170.804 281.575C170.804 281.317 170.73 281.105 170.582 280.94C170.438 280.776 170.24 280.639 169.99 280.531C169.743 280.423 169.463 280.328 169.151 280.246L168.119 279.964C167.42 279.774 166.866 279.494 166.457 279.125C166.051 278.756 165.848 278.267 165.848 277.659C165.848 277.156 165.984 276.717 166.257 276.342C166.53 275.967 166.899 275.676 167.365 275.469C167.831 275.259 168.357 275.153 168.942 275.153C169.533 275.153 170.054 275.257 170.506 275.464C170.96 275.672 171.318 275.957 171.58 276.321C171.841 276.682 171.977 277.097 171.989 277.565H170.719ZM176.4 284.132C175.755 284.132 175.2 283.994 174.734 283.719C174.271 283.44 173.913 283.05 173.66 282.547C173.41 282.041 173.285 281.449 173.285 280.77C173.285 280.099 173.41 279.509 173.66 278.997C173.913 278.486 174.265 278.087 174.717 277.8C175.172 277.513 175.703 277.369 176.311 277.369C176.68 277.369 177.038 277.43 177.385 277.553C177.731 277.675 178.042 277.866 178.318 278.128C178.593 278.389 178.811 278.729 178.97 279.146C179.129 279.561 179.208 280.065 179.208 280.659V281.111H174.005V280.156H177.96C177.96 279.821 177.892 279.524 177.755 279.266C177.619 279.004 177.427 278.798 177.18 278.648C176.936 278.497 176.649 278.422 176.319 278.422C175.961 278.422 175.649 278.51 175.382 278.686C175.118 278.859 174.913 279.087 174.768 279.368C174.626 279.646 174.555 279.949 174.555 280.276V281.021C174.555 281.459 174.632 281.831 174.785 282.138C174.941 282.445 175.159 282.679 175.437 282.841C175.716 283 176.041 283.08 176.413 283.08C176.654 283.08 176.875 283.045 177.074 282.977C177.272 282.906 177.444 282.801 177.589 282.662C177.734 282.523 177.845 282.351 177.922 282.146L179.127 282.364C179.031 282.719 178.858 283.03 178.608 283.297C178.36 283.561 178.049 283.767 177.674 283.915C177.302 284.06 176.877 284.132 176.4 284.132ZM181.896 280.114V284H180.622V277.455H181.845V278.52H181.926C182.077 278.173 182.313 277.895 182.634 277.685C182.957 277.474 183.365 277.369 183.857 277.369C184.303 277.369 184.693 277.463 185.028 277.651C185.364 277.835 185.624 278.111 185.808 278.477C185.993 278.844 186.085 279.297 186.085 279.837V284H184.811V279.99C184.811 279.516 184.688 279.145 184.44 278.878C184.193 278.608 183.854 278.473 183.422 278.473C183.126 278.473 182.864 278.537 182.634 278.665C182.406 278.793 182.226 278.98 182.092 279.227C181.962 279.472 181.896 279.767 181.896 280.114ZM190.244 284.128C189.716 284.128 189.244 283.993 188.83 283.723C188.418 283.45 188.094 283.062 187.858 282.56C187.625 282.054 187.509 281.447 187.509 280.74C187.509 280.033 187.626 279.428 187.862 278.925C188.101 278.422 188.428 278.037 188.842 277.77C189.257 277.503 189.727 277.369 190.253 277.369C190.659 277.369 190.986 277.438 191.233 277.574C191.483 277.707 191.676 277.864 191.812 278.043C191.952 278.222 192.06 278.379 192.136 278.516H192.213V275.273H193.487V284H192.243V282.982H192.136C192.06 283.121 191.949 283.28 191.804 283.459C191.662 283.638 191.466 283.794 191.216 283.928C190.966 284.061 190.642 284.128 190.244 284.128ZM190.526 283.041C190.892 283.041 191.202 282.945 191.455 282.751C191.71 282.555 191.903 282.284 192.034 281.938C192.168 281.591 192.234 281.187 192.234 280.727C192.234 280.273 192.169 279.875 192.038 279.534C191.908 279.193 191.716 278.928 191.463 278.737C191.21 278.547 190.898 278.452 190.526 278.452C190.142 278.452 189.822 278.551 189.567 278.75C189.311 278.949 189.118 279.22 188.987 279.564C188.859 279.908 188.795 280.295 188.795 280.727C188.795 281.165 188.861 281.558 188.991 281.908C189.122 282.257 189.315 282.534 189.571 282.739C189.83 282.94 190.148 283.041 190.526 283.041Z" fill="#4E4D52"/>
<rect x="312" y="224" width="40" height="40" rx="20" fill="#F8F8FA"/>
<path d="M328.666 251.5H325.333C325.112 251.5 324.9 251.412 324.744 251.256C324.587 251.099 324.5 250.887 324.5 250.666V247.333C324.5 247.112 324.412 246.9 324.256 246.744C324.099 246.587 323.887 246.5 323.666 246.5C323.445 246.5 323.233 246.587 323.077 246.744C322.921 246.9 322.833 247.112 322.833 247.333V250.666C322.833 251.329 323.096 251.965 323.565 252.434C324.034 252.903 324.67 253.166 325.333 253.166H328.666C328.887 253.166 329.099 253.079 329.256 252.922C329.412 252.766 329.5 252.554 329.5 252.333C329.5 252.112 329.412 251.9 329.256 251.744C329.099 251.587 328.887 251.5 328.666 251.5V251.5ZM340.333 246.5C340.112 246.5 339.9 246.587 339.744 246.744C339.587 246.9 339.5 247.112 339.5 247.333V250.666C339.5 250.887 339.412 251.099 339.256 251.256C339.099 251.412 338.887 251.5 338.666 251.5H335.333C335.112 251.5 334.9 251.587 334.744 251.744C334.587 251.9 334.5 252.112 334.5 252.333C334.5 252.554 334.587 252.766 334.744 252.922C334.9 253.079 335.112 253.166 335.333 253.166H338.666C339.329 253.166 339.965 252.903 340.434 252.434C340.903 251.965 341.166 251.329 341.166 250.666V247.333C341.166 247.112 341.079 246.9 340.922 246.744C340.766 246.587 340.554 246.5 340.333 246.5ZM338.666 234.833H335.333C335.112 234.833 334.9 234.921 334.744 235.077C334.587 235.233 334.5 235.445 334.5 235.666C334.5 235.887 334.587 236.099 334.744 236.256C334.9 236.412 335.112 236.5 335.333 236.5H338.666C338.887 236.5 339.099 236.587 339.256 236.744C339.412 236.9 339.5 237.112 339.5 237.333V240.666C339.5 240.887 339.587 241.099 339.744 241.256C339.9 241.412 340.112 241.5 340.333 241.5C340.554 241.5 340.766 241.412 340.922 241.256C341.079 241.099 341.166 240.887 341.166 240.666V237.333C341.166 236.67 340.903 236.034 340.434 235.565C339.965 235.096 339.329 234.833 338.666 234.833V234.833ZM323.666 241.5C323.887 241.5 324.099 241.412 324.256 241.256C324.412 241.099 324.5 240.887 324.5 240.666V237.333C324.5 237.112 324.587 236.9 324.744 236.744C324.9 236.587 325.112 236.5 325.333 236.5H328.666C328.887 236.5 329.099 236.412 329.256 236.256C329.412 236.099 329.5 235.887 329.5 235.666C329.5 235.445 329.412 235.233 329.256 235.077C329.099 234.921 328.887 234.833 328.666 234.833H325.333C324.67 234.833 324.034 235.096 323.565 235.565C323.096 236.034 322.833 236.67 322.833 237.333V240.666C322.833 240.887 322.921 241.099 323.077 241.256C323.233 241.412 323.445 241.5 323.666 241.5ZM330.333 238.166H327C326.779 238.166 326.567 238.254 326.41 238.41C326.254 238.567 326.166 238.779 326.166 239V242.333C326.166 242.554 326.254 242.766 326.41 242.922C326.567 243.079 326.779 243.166 327 243.166H330.333C330.554 243.166 330.766 243.079 330.922 242.922C331.079 242.766 331.166 242.554 331.166 242.333V239C331.166 238.779 331.079 238.567 330.922 238.41C330.766 238.254 330.554 238.166 330.333 238.166ZM329.5 241.5H327.833V239.833H329.5V241.5ZM333.666 243.166H337C337.221 243.166 337.433 243.079 337.589 242.922C337.745 242.766 337.833 242.554 337.833 242.333V239C337.833 238.779 337.745 238.567 337.589 238.41C337.433 238.254 337.221 238.166 337 238.166H333.666C333.445 238.166 333.233 238.254 333.077 238.41C332.921 238.567 332.833 238.779 332.833 239V242.333C332.833 242.554 332.921 242.766 333.077 242.922C333.233 243.079 333.445 243.166 333.666 243.166ZM334.5 239.833H336.166V241.5H334.5V239.833ZM330.333 244.833H327C326.779 244.833 326.567 244.921 326.41 245.077C326.254 245.233 326.166 245.445 326.166 245.666V249C326.166 249.221 326.254 249.433 326.41 249.589C326.567 249.745 326.779 249.833 327 249.833H330.333C330.554 249.833 330.766 249.745 330.922 249.589C331.079 249.433 331.166 249.221 331.166 249V245.666C331.166 245.445 331.079 245.233 330.922 245.077C330.766 244.921 330.554 244.833 330.333 244.833ZM329.5 248.166H327.833V246.5H329.5V248.166ZM333.666 247.333C333.887 247.333 334.099 247.245 334.256 247.089C334.412 246.933 334.5 246.721 334.5 246.5C334.721 246.5 334.933 246.412 335.089 246.256C335.245 246.099 335.333 245.887 335.333 245.666C335.333 245.445 335.245 245.233 335.089 245.077C334.933 244.921 334.721 244.833 334.5 244.833H333.666C333.445 244.833 333.233 244.921 333.077 245.077C332.921 245.233 332.833 245.445 332.833 245.666V246.5C332.833 246.721 332.921 246.933 333.077 247.089C333.233 247.245 333.445 247.333 333.666 247.333ZM337 244.833C336.779 244.833 336.567 244.921 336.41 245.077C336.254 245.233 336.166 245.445 336.166 245.666V248.166C335.945 248.166 335.733 248.254 335.577 248.41C335.421 248.567 335.333 248.779 335.333 249C335.333 249.221 335.421 249.433 335.577 249.589C335.733 249.745 335.945 249.833 336.166 249.833H337C337.221 249.833 337.433 249.745 337.589 249.589C337.745 249.433 337.833 249.221 337.833 249V245.666C337.833 245.445 337.745 245.233 337.589 245.077C337.433 244.921 337.221 244.833 337 244.833ZM333.666 248.166C333.502 248.166 333.34 248.215 333.203 248.307C333.066 248.398 332.96 248.528 332.896 248.681C332.833 248.833 332.817 249.001 332.849 249.162C332.881 249.324 332.961 249.472 333.077 249.589C333.194 249.705 333.342 249.785 333.504 249.817C333.665 249.849 333.833 249.833 333.985 249.77C334.138 249.706 334.268 249.6 334.359 249.463C334.451 249.326 334.5 249.164 334.5 249C334.5 248.779 334.412 248.567 334.256 248.41C334.099 248.254 333.887 248.166 333.666 248.166Z" fill="#4E4D52"/>
<path d="M309.959 284V275.273H313.07C313.746 275.273 314.307 275.389 314.753 275.622C315.202 275.855 315.537 276.178 315.759 276.589C315.98 276.999 316.091 277.472 316.091 278.009C316.091 278.543 315.979 279.013 315.754 279.419C315.533 279.822 315.197 280.136 314.749 280.361C314.303 280.585 313.741 280.697 313.065 280.697H310.709V279.564H312.946C313.372 279.564 313.719 279.503 313.986 279.381C314.256 279.259 314.453 279.081 314.578 278.848C314.703 278.615 314.766 278.335 314.766 278.009C314.766 277.679 314.702 277.393 314.574 277.152C314.449 276.911 314.251 276.726 313.982 276.598C313.714 276.467 313.364 276.402 312.929 276.402H311.276V284H309.959ZM314.267 280.062L316.423 284H314.923L312.81 280.062H314.267ZM320.33 284.132C319.685 284.132 319.13 283.994 318.664 283.719C318.201 283.44 317.843 283.05 317.59 282.547C317.34 282.041 317.215 281.449 317.215 280.77C317.215 280.099 317.34 279.509 317.59 278.997C317.843 278.486 318.195 278.087 318.647 277.8C319.101 277.513 319.632 277.369 320.24 277.369C320.61 277.369 320.968 277.43 321.314 277.553C321.661 277.675 321.972 277.866 322.248 278.128C322.523 278.389 322.74 278.729 322.9 279.146C323.059 279.561 323.138 280.065 323.138 280.659V281.111H317.935V280.156H321.89C321.89 279.821 321.821 279.524 321.685 279.266C321.549 279.004 321.357 278.798 321.11 278.648C320.865 278.497 320.578 278.422 320.249 278.422C319.891 278.422 319.578 278.51 319.311 278.686C319.047 278.859 318.843 279.087 318.698 279.368C318.556 279.646 318.485 279.949 318.485 280.276V281.021C318.485 281.459 318.561 281.831 318.715 282.138C318.871 282.445 319.088 282.679 319.367 282.841C319.645 283 319.971 283.08 320.343 283.08C320.584 283.08 320.804 283.045 321.003 282.977C321.202 282.906 321.374 282.801 321.519 282.662C321.664 282.523 321.775 282.351 321.851 282.146L323.057 282.364C322.961 282.719 322.787 283.03 322.537 283.297C322.29 283.561 321.979 283.767 321.604 283.915C321.232 284.06 320.807 284.132 320.33 284.132ZM327.309 284.132C326.675 284.132 326.13 283.989 325.673 283.702C325.218 283.412 324.869 283.013 324.624 282.504C324.38 281.996 324.258 281.413 324.258 280.757C324.258 280.092 324.383 279.506 324.633 278.997C324.883 278.486 325.235 278.087 325.69 277.8C326.144 277.513 326.68 277.369 327.296 277.369C327.793 277.369 328.237 277.462 328.626 277.646C329.015 277.828 329.329 278.084 329.567 278.413C329.809 278.743 329.952 279.128 329.998 279.568H328.758C328.69 279.261 328.533 278.997 328.289 278.776C328.048 278.554 327.724 278.443 327.317 278.443C326.962 278.443 326.651 278.537 326.384 278.724C326.12 278.909 325.914 279.173 325.766 279.517C325.619 279.858 325.545 280.261 325.545 280.727C325.545 281.205 325.617 281.616 325.762 281.963C325.907 282.31 326.112 282.578 326.376 282.768C326.643 282.959 326.957 283.054 327.317 283.054C327.559 283.054 327.778 283.01 327.974 282.922C328.173 282.831 328.339 282.702 328.472 282.534C328.609 282.366 328.704 282.165 328.758 281.929H329.998C329.952 282.352 329.815 282.73 329.585 283.062C329.354 283.395 329.046 283.656 328.66 283.847C328.276 284.037 327.826 284.132 327.309 284.132ZM334.181 284.132C333.537 284.132 332.981 283.994 332.515 283.719C332.052 283.44 331.694 283.05 331.441 282.547C331.191 282.041 331.066 281.449 331.066 280.77C331.066 280.099 331.191 279.509 331.441 278.997C331.694 278.486 332.047 278.087 332.498 277.8C332.953 277.513 333.484 277.369 334.092 277.369C334.461 277.369 334.819 277.43 335.166 277.553C335.512 277.675 335.824 277.866 336.099 278.128C336.375 278.389 336.592 278.729 336.751 279.146C336.91 279.561 336.99 280.065 336.99 280.659V281.111H331.787V280.156H335.741C335.741 279.821 335.673 279.524 335.537 279.266C335.4 279.004 335.208 278.798 334.961 278.648C334.717 278.497 334.43 278.422 334.1 278.422C333.743 278.422 333.43 278.51 333.163 278.686C332.899 278.859 332.694 279.087 332.549 279.368C332.407 279.646 332.336 279.949 332.336 280.276V281.021C332.336 281.459 332.413 281.831 332.566 282.138C332.723 282.445 332.94 282.679 333.218 282.841C333.497 283 333.822 283.08 334.194 283.08C334.436 283.08 334.656 283.045 334.855 282.977C335.054 282.906 335.225 282.801 335.37 282.662C335.515 282.523 335.626 282.351 335.703 282.146L336.909 282.364C336.812 282.719 336.639 283.03 336.389 283.297C336.142 283.561 335.831 283.767 335.456 283.915C335.083 284.06 334.659 284.132 334.181 284.132ZM338.403 284V277.455H339.678V284H338.403ZM339.047 276.445C338.825 276.445 338.635 276.371 338.476 276.223C338.32 276.072 338.241 275.893 338.241 275.686C338.241 275.476 338.32 275.297 338.476 275.149C338.635 274.999 338.825 274.923 339.047 274.923C339.268 274.923 339.457 274.999 339.614 275.149C339.773 275.297 339.852 275.476 339.852 275.686C339.852 275.893 339.773 276.072 339.614 276.223C339.457 276.371 339.268 276.445 339.047 276.445ZM346.991 277.455L344.618 284H343.254L340.876 277.455H342.244L343.902 282.491H343.97L345.623 277.455H346.991ZM350.787 284.132C350.142 284.132 349.587 283.994 349.121 283.719C348.658 283.44 348.3 283.05 348.047 282.547C347.797 282.041 347.672 281.449 347.672 280.77C347.672 280.099 347.797 279.509 348.047 278.997C348.3 278.486 348.652 278.087 349.104 277.8C349.558 277.513 350.089 277.369 350.697 277.369C351.067 277.369 351.425 277.43 351.771 277.553C352.118 277.675 352.429 277.866 352.705 278.128C352.98 278.389 353.197 278.729 353.357 279.146C353.516 279.561 353.595 280.065 353.595 280.659V281.111H348.392V280.156H352.347C352.347 279.821 352.278 279.524 352.142 279.266C352.006 279.004 351.814 278.798 351.567 278.648C351.322 278.497 351.036 278.422 350.706 278.422C350.348 278.422 350.036 278.51 349.768 278.686C349.504 278.859 349.3 279.087 349.155 279.368C349.013 279.646 348.942 279.949 348.942 280.276V281.021C348.942 281.459 349.018 281.831 349.172 282.138C349.328 282.445 349.545 282.679 349.824 282.841C350.102 283 350.428 283.08 350.8 283.08C351.041 283.08 351.261 283.045 351.46 282.977C351.659 282.906 351.831 282.801 351.976 282.662C352.121 282.523 352.232 282.351 352.308 282.146L353.514 282.364C353.418 282.719 353.244 283.03 352.994 283.297C352.747 283.561 352.436 283.767 352.061 283.915C351.689 284.06 351.264 284.132 350.787 284.132Z" fill="#4E4D52"/>
</g>
<defs>
<filter id="filter0_d_2432_59286" x="0" y="0" width="512" height="672" filterUnits="userSpaceOnUse" color-interpolation-filters="sRGB">
<feFlood flood-opacity="0" result="BackgroundImageFix"/>
<feColorMatrix in="SourceAlpha" type="matrix" values="0 0 0 0 0 0 0 0 0 0 0 0 0 0 0 0 0 0 127 0" result="hardAlpha"/>
<feOffset dy="12"/>
<feGaussianBlur stdDeviation="28"/>
<feColorMatrix type="matrix" values="0 0 0 0 0.466667 0 0 0 0 0.462745 0 0 0 0 0.478431 0 0 0 0.15 0"/>
<feBlend mode="multiply" in2="BackgroundImageFix" result="effect1_dropShadow_2432_59286"/>
<feBlend mode="normal" in="SourceGraphic" in2="effect1_dropShadow_2432_59286" result="shape"/>
</filter>
<filter id="filter1_b_2432_59286" x="36" y="24" width="440" height="104" filterUnits="userSpaceOnUse" color-interpolation-filters="sRGB">
<feFlood flood-opacity="0" result="BackgroundImageFix"/>
<feGaussianBlur in="BackgroundImageFix" stdDeviation="10"/>
<feComposite in2="SourceAlpha" operator="in" result="effect1_backgroundBlur_2432_59286"/>
<feBlend mode="normal" in="SourceGraphic" in2="effect1_backgroundBlur_2432_59286" result="shape"/>
</filter>
</defs>
</svg>
