<svg width="111" height="40" viewBox="0 0 111 40" fill="none" xmlns="http://www.w3.org/2000/svg">
<path fill-rule="evenodd" clip-rule="evenodd" d="M94.8818 14.1199C96.0562 14.1199 97.0084 13.1678 97.0084 11.9933C97.0084 10.8188 96.0562 9.8667 94.8818 9.8667C93.7073 9.8667 92.7552 10.8188 92.7552 11.9933C92.7552 13.1678 93.7073 14.1199 94.8818 14.1199ZM43.8438 11.7275H48.2295L52.8616 22.7864H53.0587L57.6909 11.7275H62.0766V28.1872H58.6272V17.4739H58.4875L54.1346 28.1068H51.7857L47.4328 17.4338H47.2932V28.1872H43.8438V11.7275ZM68.7415 28.4203C67.5369 28.4203 66.5376 28.1122 65.7437 27.496C64.9498 26.8799 64.5528 25.961 64.5528 24.7394C64.5528 23.8178 64.7746 23.0945 65.2181 22.5694C65.6616 22.0443 66.242 21.6612 66.9592 21.4201C67.682 21.1736 68.4595 21.0129 69.2917 20.9379C70.3868 20.8307 71.1698 20.7182 71.6406 20.6003C72.1115 20.4824 72.347 20.2253 72.347 19.8288V19.7805C72.347 19.2715 72.1827 18.8777 71.8542 18.5991C71.5311 18.3205 71.0712 18.1812 70.4744 18.1812C69.8447 18.1812 69.3438 18.3151 68.9714 18.583C68.5991 18.8509 68.3527 19.1912 68.2323 19.6037L64.9963 19.3465C65.2372 18.2214 65.8341 17.3293 66.7868 16.6702C67.7449 16.0112 68.9796 15.6817 70.4908 15.6817C71.4271 15.6817 72.3032 15.8264 73.119 16.1157C73.9348 16.405 74.5919 16.8578 75.0901 17.4739C75.5938 18.0847 75.8457 18.8804 75.8457 19.8609V28.1872H72.5277V26.4753H72.4291C72.1225 27.0486 71.6626 27.5175 71.0493 27.8818C70.4416 28.2408 69.6723 28.4203 68.7415 28.4203ZM69.7434 26.0574C70.51 26.0574 71.1397 25.8404 71.6324 25.4064C72.1252 24.9671 72.3716 24.4232 72.3716 23.7749V22.4649C72.2347 22.556 72.0212 22.6363 71.731 22.706C71.4463 22.7757 71.1397 22.8373 70.8111 22.8909C70.4881 22.9391 70.1979 22.9819 69.9406 23.0194C69.3273 23.1052 68.8318 23.2739 68.454 23.5258C68.0817 23.7776 67.8955 24.1446 67.8955 24.6268C67.8955 25.0983 68.068 25.4546 68.4129 25.6957C68.7634 25.9369 69.2069 26.0574 69.7434 26.0574ZM80.2438 32.0128C81.2129 32.6665 82.5462 32.9933 84.2435 32.9933C85.4481 32.9933 86.513 32.8165 87.4384 32.4629C88.3637 32.1092 89.0892 31.5842 89.6148 30.8876C90.1459 30.1911 90.4115 29.3311 90.4115 28.3078V15.8424H86.9374V17.916H86.806C86.6526 17.5784 86.4282 17.2382 86.1325 16.8953C85.8368 16.5524 85.4508 16.2657 84.9745 16.0353C84.4981 15.7996 83.9068 15.6817 83.2004 15.6817C82.2806 15.6817 81.4319 15.9174 80.6544 16.3889C79.8824 16.8551 79.2609 17.5543 78.7901 18.4866C78.3247 19.4189 78.092 20.5869 78.092 21.9907C78.092 23.357 78.3192 24.4848 78.7736 25.3743C79.2336 26.2637 79.8495 26.9254 80.6216 27.3594C81.3991 27.7934 82.2614 28.0104 83.2087 28.0104C84.2161 28.0104 85.0101 27.8041 85.5904 27.3916C86.1708 26.9736 86.576 26.5102 86.806 26.0012H86.9538V28.2595C86.9538 29.0686 86.7047 29.6499 86.2064 30.0036C85.7136 30.3572 85.0867 30.534 84.3256 30.534C83.5536 30.534 82.9595 30.3947 82.5434 30.1161C82.1328 29.8428 81.8563 29.5401 81.7139 29.2079L78.478 29.6339C78.686 30.5662 79.2746 31.3591 80.2438 32.0128ZM86.2721 24.5224C85.8122 25.1332 85.1606 25.4386 84.3174 25.4386C83.4578 25.4386 82.8007 25.1278 82.3463 24.5063C81.8918 23.8848 81.6646 23.0409 81.6646 21.9746C81.6646 20.9245 81.8891 20.0672 82.3381 19.4028C82.7925 18.7384 83.4523 18.4062 84.3174 18.4062C85.1661 18.4062 85.8204 18.7304 86.2803 19.3787C86.7403 20.027 86.9702 20.8923 86.9702 21.9746C86.9702 23.0623 86.7375 23.9115 86.2721 24.5224ZM93.1956 28.1872V15.8424H96.6944V28.1872H93.1956ZM101.862 27.6246C102.793 28.1604 103.905 28.4283 105.197 28.4283C106.319 28.4283 107.291 28.2301 108.113 27.8336C108.934 27.4317 109.577 26.8718 110.043 26.1539C110.513 25.4359 110.776 24.6054 110.831 23.6624H107.529C107.425 24.3214 107.168 24.8304 106.757 25.1894C106.347 25.543 105.84 25.7199 105.238 25.7199C104.422 25.7199 103.768 25.3984 103.275 24.7554C102.788 24.1071 102.544 23.1936 102.544 22.0148C102.544 20.8468 102.79 19.944 103.283 19.3064C103.776 18.6688 104.428 18.35 105.238 18.35C105.879 18.35 106.396 18.5402 106.79 18.9206C107.19 19.2956 107.436 19.7913 107.529 20.4074H110.831C110.782 19.4537 110.516 18.6232 110.034 17.916C109.558 17.2087 108.904 16.6595 108.071 16.2684C107.245 15.8773 106.281 15.6817 105.18 15.6817C103.905 15.6817 102.804 15.9523 101.879 16.4934C100.954 17.0292 100.239 17.7767 99.7352 18.7357C99.237 19.6895 98.9879 20.7986 98.9879 22.063C98.9879 23.3115 99.2343 24.4152 99.727 25.3743C100.225 26.3333 100.937 27.0835 101.862 27.6246Z" fill="#18171A"/>
<path fill-rule="evenodd" clip-rule="evenodd" d="M16.5915 -7.25094e-07C18.3225 2.12007 20.2317 4.08893 22.2962 5.88372C20.9205 10.3458 20.1798 15.0864 20.1798 20C20.1798 24.9136 20.9205 29.6542 22.2962 34.1162C20.2317 35.911 18.3225 37.8799 16.5915 40C14.8604 37.8798 12.9511 35.9109 10.8865 34.116C12.2622 29.654 13.0028 24.9135 13.0028 20C13.0028 15.0865 12.2621 10.346 10.8865 5.88398C12.9511 4.08912 14.8604 2.12017 16.5915 -7.25094e-07ZM6.94042 31.0313C4.75494 29.4994 2.4355 28.1457 0.00318635 26.9911C0.677858 24.7797 1.0408 22.4322 1.0408 20.0001C1.0408 17.5678 0.677843 15.2204 0.00314499 13.0089C2.43547 11.8543 4.75492 10.5005 6.94042 8.9687C7.7761 12.5101 8.21828 16.2034 8.21828 20C8.21828 23.7966 7.7761 27.4899 6.94042 31.0313ZM24.9647 20C24.9647 23.7966 25.4069 27.4899 26.2426 31.0312C28.428 29.4995 30.7474 28.1457 33.1796 26.9911C32.505 24.7797 32.142 22.4323 32.142 20.0001C32.142 17.5678 32.505 15.2203 33.1797 13.0088C30.7474 11.8543 28.428 10.5005 26.2426 8.96874C25.4069 12.5101 24.9647 16.2034 24.9647 20Z" fill="#6851FF"/>
</svg>
