<svg width="332" height="42" viewBox="0 0 332 42" fill="none" xmlns="http://www.w3.org/2000/svg">
<g clip-path="url(#clip0)">
<g filter="url(#filter0_ddi)">
<path d="M1 7C1 3.68629 3.68629 1 7 1H325C328.314 1 331 3.68629 331 7V41H1V7Z" fill="url(#paint0_linear)"/>
</g>
<path d="M21.1241 25.654C24.3255 25.654 26.9211 23.06 26.9211 19.8597C26.9211 16.6594 24.3255 14.0654 21.1241 14.0654C17.9228 14.0654 15.3271 16.6594 15.3271 19.8597C15.3271 23.06 17.9228 25.654 21.1241 25.654Z" fill="#FF5F56" stroke="#E14640"/>
<path d="M42.3126 25.654C45.514 25.654 48.1096 23.06 48.1096 19.8597C48.1096 16.6594 45.514 14.0654 42.3126 14.0654C39.1113 14.0654 36.5156 16.6594 36.5156 19.8597C36.5156 23.06 39.1113 25.654 42.3126 25.654Z" fill="#FFBD2E" stroke="#DFA123"/>
<path d="M63.4996 25.654C66.701 25.654 69.2966 23.06 69.2966 19.8597C69.2966 16.6594 66.701 14.0654 63.4996 14.0654C60.2983 14.0654 57.7026 16.6594 57.7026 19.8597C57.7026 23.06 60.2983 25.654 63.4996 25.654Z" fill="#29CC41" stroke="#1DAD2B"/>
<g filter="url(#filter1_di)">
<path d="M260.127 9.23047H102.277C100.068 9.23047 98.2773 11.0213 98.2773 13.2305V28.7563C98.2773 30.9654 100.068 32.7563 102.277 32.7563H260.127C262.336 32.7563 264.127 30.9654 264.127 28.7563V13.2305C264.127 11.0213 262.336 9.23047 260.127 9.23047Z" fill="#FDFDFD"/>
</g>
<path d="M249.923 19.4376L253.855 17.4727L249.923 15.5078V17.1026C247.719 17.3012 245.991 19.1528 245.991 21.4077C245.991 23.7951 247.928 25.7305 250.316 25.7305C252.705 25.7305 254.641 23.7951 254.641 21.4077C254.641 21.2752 254.635 21.144 254.624 21.0145H253.834C253.848 21.1442 253.855 21.276 253.855 21.4096C253.855 23.3629 252.271 24.9464 250.317 24.9464C248.362 24.9464 246.778 23.3629 246.778 21.4096C246.778 19.5894 248.154 18.0903 249.923 17.8944V19.4376Z" fill="#7E7E7E"/>
<path d="M124.934 24.3401C124.201 24.3401 123.594 24.0716 123.111 23.5345C122.628 22.9975 122.387 22.3203 122.387 21.5032C122.387 20.63 122.625 19.9496 123.101 19.462C123.58 18.9743 124.248 18.7305 125.104 18.7305C125.526 18.7305 125.999 18.7882 126.522 18.9035V19.719C125.966 19.5575 125.513 19.4768 125.164 19.4768C124.661 19.4768 124.256 19.6646 123.95 20.0402C123.647 20.4126 123.495 20.9101 123.495 21.5329C123.495 22.1358 123.652 22.6235 123.965 22.9958C124.278 23.3681 124.687 23.5543 125.194 23.5543C125.643 23.5543 126.106 23.4406 126.582 23.2133V24.0535C125.946 24.2446 125.397 24.3401 124.934 24.3401Z" fill="black"/>
<path d="M130.183 24.3401C129.407 24.3401 128.788 24.0864 128.325 23.579C127.862 23.0683 127.631 22.3862 127.631 21.5329C127.631 20.6696 127.862 19.9875 128.325 19.4867C128.791 18.9826 129.422 18.7305 130.218 18.7305C131.014 18.7305 131.643 18.9826 132.106 19.4867C132.572 19.9875 132.805 20.6663 132.805 21.523C132.805 22.3994 132.572 23.0881 132.106 23.5889C131.64 24.0897 130.999 24.3401 130.183 24.3401ZM130.198 23.6087C131.24 23.6087 131.761 22.9134 131.761 21.523C131.761 20.149 131.247 19.462 130.218 19.462C129.192 19.462 128.68 20.1523 128.68 21.5329C128.68 22.9167 129.186 23.6087 130.198 23.6087Z" fill="black"/>
<path d="M134.343 24.2166V18.8491H135.327V19.8574C135.846 19.1061 136.482 18.7305 137.235 18.7305C137.704 18.7305 138.079 18.8788 138.359 19.1753C138.638 19.4686 138.778 19.864 138.778 20.3615V24.2166H137.794V20.6778C137.794 20.2791 137.734 19.9958 137.614 19.8277C137.498 19.6564 137.303 19.5707 137.03 19.5707C136.427 19.5707 135.86 19.9612 135.327 20.7421V24.2166H134.343Z" fill="black"/>
<path d="M140.881 24.2167V19.5807H140.112V18.8492H140.881V18.2067C140.881 16.9283 141.47 16.2891 142.649 16.2891C142.978 16.2891 143.353 16.3434 143.772 16.4522V17.2232C143.33 17.0881 142.975 17.0205 142.709 17.0205C142.386 17.0205 142.164 17.098 142.044 17.2528C141.928 17.4044 141.87 17.6878 141.87 18.1029V18.8492H145.316V24.2167H144.332V19.5807H141.87V24.2167H140.881ZM144.332 17.8756V16.9019H145.316V17.8756H144.332Z" fill="black"/>
<path d="M147.288 24.2166V18.8491H148.272V19.8574C148.662 19.1061 149.228 18.7305 149.97 18.7305C150.07 18.7305 150.175 18.7387 150.285 18.7552V19.6646C150.115 19.6086 149.965 19.5806 149.836 19.5806C149.213 19.5806 148.692 19.9463 148.272 20.6778V24.2166H147.288Z" fill="black"/>
<path d="M151.474 24.2166V18.8491H152.458V19.8574C152.937 19.1061 153.553 18.7305 154.305 18.7305C155.031 18.7305 155.526 19.1061 155.789 19.8574C156.255 19.1028 156.861 18.7256 157.607 18.7256C158.086 18.7256 158.457 18.8656 158.72 19.1457C158.984 19.4224 159.115 19.8112 159.115 20.3121V24.2166H158.126V20.4653C158.126 19.8524 157.881 19.546 157.392 19.546C156.883 19.546 156.348 19.9035 155.789 20.6185V24.2166H154.8V20.4653C154.8 19.8491 154.55 19.5411 154.051 19.5411C153.555 19.5411 153.024 19.9002 152.458 20.6185V24.2166H151.474Z" fill="black"/>
<path d="M164.998 24.0436C164.339 24.2413 163.775 24.3401 163.305 24.3401C162.506 24.3401 161.854 24.0782 161.347 23.5543C160.845 23.0271 160.593 22.3451 160.593 21.5081C160.593 20.6943 160.815 20.0271 161.258 19.5065C161.704 18.9859 162.273 18.7256 162.966 18.7256C163.622 18.7256 164.128 18.9562 164.484 19.4175C164.844 19.8788 165.023 20.5345 165.023 21.3846L165.018 21.6861H161.597C161.74 22.9612 162.371 23.5988 163.49 23.5988C163.9 23.5988 164.402 23.49 164.998 23.2726V24.0436ZM161.642 20.9546H164.034C164.034 19.9562 163.658 19.457 162.906 19.457C162.15 19.457 161.729 19.9562 161.642 20.9546Z" fill="black"/>
<path d="M170.207 24.2167V23.2084C169.808 23.963 169.205 24.3402 168.399 24.3402C167.747 24.3402 167.232 24.1046 166.856 23.6335C166.483 23.1623 166.297 22.5181 166.297 21.701C166.297 20.8081 166.508 20.0898 166.931 19.5461C167.357 19.0024 167.917 18.7306 168.609 18.7306C169.252 18.7306 169.785 18.9744 170.207 19.4621V16.4126H171.196V24.2167H170.207ZM170.207 20.1293C169.698 19.6845 169.215 19.4621 168.759 19.4621C167.817 19.4621 167.346 20.1754 167.346 21.6021C167.346 22.8575 167.765 23.4852 168.604 23.4852C169.15 23.4852 169.685 23.1903 170.207 22.6005V20.1293Z" fill="black"/>
<path d="M173.184 24.2169V22.9961H174.418V24.2169H173.184Z" fill="black"/>
<path d="M176.405 24.2166V18.8491H177.389V19.8574C177.869 19.1061 178.485 18.7305 179.237 18.7305C179.963 18.7305 180.457 19.1061 180.72 19.8574C181.187 19.1028 181.793 18.7256 182.538 18.7256C183.018 18.7256 183.389 18.8656 183.652 19.1457C183.915 19.4224 184.047 19.8112 184.047 20.3121V24.2166H183.058V20.4653C183.058 19.8524 182.813 19.546 182.324 19.546C181.814 19.546 181.28 19.9035 180.72 20.6185V24.2166H179.732V20.4653C179.732 19.8491 179.482 19.5411 178.982 19.5411C178.486 19.5411 177.955 19.9002 177.389 20.6185V24.2166H176.405Z" fill="black"/>
<path d="M188.751 23.5345C188.162 24.0716 187.594 24.3401 187.048 24.3401C186.599 24.3401 186.226 24.2017 185.93 23.925C185.633 23.6449 185.485 23.2923 185.485 22.8673C185.485 22.2808 185.733 21.831 186.229 21.518C186.729 21.2017 187.443 21.0436 188.372 21.0436H188.607V20.3961C188.607 19.7734 188.284 19.462 187.638 19.462C187.118 19.462 186.557 19.6201 185.955 19.9365V19.1308C186.617 18.864 187.238 18.7305 187.817 18.7305C188.423 18.7305 188.87 18.8656 189.156 19.1358C189.446 19.406 189.59 19.8261 189.59 20.3961V22.8278C189.59 23.3846 189.764 23.663 190.11 23.663C190.153 23.663 190.216 23.6564 190.3 23.6433L190.37 24.182C190.146 24.2874 189.9 24.3401 189.63 24.3401C189.171 24.3401 188.878 24.0716 188.751 23.5345ZM188.607 23.0057V21.6169L188.277 21.607C187.738 21.607 187.301 21.7091 186.968 21.9134C186.635 22.1144 186.469 22.3797 186.469 22.7091C186.469 22.9431 186.552 23.1408 186.719 23.3022C186.885 23.4637 187.088 23.5444 187.328 23.5444C187.738 23.5444 188.164 23.3648 188.607 23.0057Z" fill="black"/>
<path d="M191.628 26.0008L191.743 25.1556C192.312 25.4225 192.873 25.556 193.426 25.556C194.535 25.556 195.089 24.9744 195.089 23.8113V22.9661C194.726 23.7174 194.13 24.093 193.301 24.093C192.652 24.093 192.136 23.8591 191.753 23.3912C191.37 22.9233 191.179 22.2923 191.179 21.4983C191.179 20.6811 191.397 20.0155 191.833 19.5015C192.269 18.9875 192.833 18.7305 193.526 18.7305C194.132 18.7305 194.653 18.9743 195.089 19.462V18.8491H196.078V22.7536C196.078 23.5938 196.033 24.2149 195.943 24.6169C195.857 25.0222 195.692 25.3533 195.449 25.6103C195.019 26.0617 194.352 26.2874 193.446 26.2874C192.813 26.2874 192.207 26.1919 191.628 26.0008ZM195.089 22.3582V20.1292C194.656 19.6844 194.185 19.462 193.676 19.462C193.223 19.462 192.868 19.6416 192.612 20.0007C192.356 20.3599 192.227 20.8524 192.227 21.4785C192.227 22.6548 192.645 23.2429 193.481 23.2429C194.05 23.2429 194.586 22.948 195.089 22.3582Z" fill="black"/>
<path d="M197.991 24.2167V18.8492H198.975V24.2167H197.991ZM197.991 17.8756V16.9019H198.975V17.8756H197.991Z" fill="black"/>
<path d="M203.065 24.3401C202.333 24.3401 201.725 24.0716 201.242 23.5345C200.759 22.9975 200.518 22.3203 200.518 21.5032C200.518 20.63 200.756 19.9496 201.232 19.462C201.712 18.9743 202.379 18.7305 203.235 18.7305C203.658 18.7305 204.131 18.7882 204.653 18.9035V19.719C204.097 19.5575 203.644 19.4768 203.295 19.4768C202.792 19.4768 202.388 19.6646 202.081 20.0402C201.778 20.4126 201.627 20.9101 201.627 21.5329C201.627 22.1358 201.783 22.6235 202.096 22.9958C202.409 23.3681 202.819 23.5543 203.325 23.5543C203.774 23.5543 204.237 23.4406 204.713 23.2133V24.0535C204.077 24.2446 203.528 24.3401 203.065 24.3401Z" fill="black"/>
<path d="M206.207 24.2169V22.9961H207.44V24.2169H206.207Z" fill="black"/>
<path d="M209.428 24.2167V16.4126H210.412V24.2167H209.428Z" fill="black"/>
<path d="M212.385 24.2167V18.8492H213.368V24.2167H212.385ZM212.385 17.8756V16.9019H213.368V17.8756H212.385Z" fill="black"/>
<path d="M215.341 24.2166V18.8491H216.325V19.8574C216.844 19.1061 217.48 18.7305 218.233 18.7305C218.702 18.7305 219.077 18.8788 219.357 19.1753C219.636 19.4686 219.776 19.864 219.776 20.3615V24.2166H218.792V20.6778C218.792 20.2791 218.732 19.9958 218.612 19.8277C218.496 19.6564 218.301 19.5707 218.028 19.5707C217.425 19.5707 216.858 19.9612 216.325 20.7421V24.2166H215.341Z" fill="black"/>
<path d="M221.694 24.2167V16.4126H222.678V21.4539L224.975 18.8492H226.034L223.842 21.355L226.489 24.2167H225.23L222.678 21.4638V24.2167H221.694Z" fill="black"/>
</g>
<defs>
<filter id="filter0_ddi" x="-3" y="-2" width="338" height="48" filterUnits="userSpaceOnUse" color-interpolation-filters="sRGB">
<feFlood flood-opacity="0" result="BackgroundImageFix"/>
<feColorMatrix in="SourceAlpha" type="matrix" values="0 0 0 0 0 0 0 0 0 0 0 0 0 0 0 0 0 0 127 0"/>
<feOffset/>
<feGaussianBlur stdDeviation="0.5"/>
<feColorMatrix type="matrix" values="0 0 0 0 0 0 0 0 0 0 0 0 0 0 0 0 0 0 0.14606 0"/>
<feBlend mode="normal" in2="BackgroundImageFix" result="effect1_dropShadow"/>
<feColorMatrix in="SourceAlpha" type="matrix" values="0 0 0 0 0 0 0 0 0 0 0 0 0 0 0 0 0 0 127 0"/>
<feOffset dy="1"/>
<feGaussianBlur stdDeviation="2"/>
<feColorMatrix type="matrix" values="0 0 0 0 0.717647 0 0 0 0 0.709804 0 0 0 0 0.717647 0 0 0 1 0"/>
<feBlend mode="normal" in2="effect1_dropShadow" result="effect2_dropShadow"/>
<feBlend mode="normal" in="SourceGraphic" in2="effect2_dropShadow" result="shape"/>
<feColorMatrix in="SourceAlpha" type="matrix" values="0 0 0 0 0 0 0 0 0 0 0 0 0 0 0 0 0 0 127 0" result="hardAlpha"/>
<feOffset dy="1"/>
<feGaussianBlur stdDeviation="2"/>
<feComposite in2="hardAlpha" operator="arithmetic" k2="-1" k3="1"/>
<feColorMatrix type="matrix" values="0 0 0 0 1 0 0 0 0 0.99996 0 0 0 0 1 0 0 0 0.5 0"/>
<feBlend mode="normal" in2="shape" result="effect3_innerShadow"/>
</filter>
<filter id="filter1_di" x="94.2773" y="6.23047" width="173.85" height="31.5258" filterUnits="userSpaceOnUse" color-interpolation-filters="sRGB">
<feFlood flood-opacity="0" result="BackgroundImageFix"/>
<feColorMatrix in="SourceAlpha" type="matrix" values="0 0 0 0 0 0 0 0 0 0 0 0 0 0 0 0 0 0 127 0"/>
<feOffset dy="1"/>
<feGaussianBlur stdDeviation="2"/>
<feColorMatrix type="matrix" values="0 0 0 0 0.792157 0 0 0 0 0.788235 0 0 0 0 0.792157 0 0 0 1 0"/>
<feBlend mode="normal" in2="BackgroundImageFix" result="effect1_dropShadow"/>
<feBlend mode="normal" in="SourceGraphic" in2="effect1_dropShadow" result="shape"/>
<feColorMatrix in="SourceAlpha" type="matrix" values="0 0 0 0 0 0 0 0 0 0 0 0 0 0 0 0 0 0 127 0" result="hardAlpha"/>
<feOffset dy="1"/>
<feGaussianBlur stdDeviation="2"/>
<feComposite in2="hardAlpha" operator="arithmetic" k2="-1" k3="1"/>
<feColorMatrix type="matrix" values="0 0 0 0 1 0 0 0 0 1 0 0 0 0 1 0 0 0 1 0"/>
<feBlend mode="normal" in2="shape" result="effect2_innerShadow"/>
</filter>
<linearGradient id="paint0_linear" x1="1" y1="1" x2="1" y2="41" gradientUnits="userSpaceOnUse">
<stop stop-color="#EDEAED"/>
<stop offset="1" stop-color="#DFDBDF"/>
</linearGradient>
<clipPath id="clip0">
<rect width="332" height="42" fill="white"/>
</clipPath>
</defs>
</svg>
