<svg width="352" height="42" viewBox="0 0 352 42" fill="none" xmlns="http://www.w3.org/2000/svg">
<g clip-path="url(#clip0)">
<g filter="url(#filter0_ddi)">
<path d="M1 7C1 3.68629 3.68629 1 7 1H345C348.314 1 351 3.68629 351 7V41H1V7Z" fill="url(#paint0_linear)"/>
</g>
<path d="M21.1241 25.654C24.3255 25.654 26.9211 23.06 26.9211 19.8597C26.9211 16.6594 24.3255 14.0654 21.1241 14.0654C17.9228 14.0654 15.3271 16.6594 15.3271 19.8597C15.3271 23.06 17.9228 25.654 21.1241 25.654Z" fill="#FF5F56" stroke="#E14640"/>
<path d="M42.3124 25.654C45.5137 25.654 48.1093 23.06 48.1093 19.8597C48.1093 16.6594 45.5137 14.0654 42.3124 14.0654C39.111 14.0654 36.5154 16.6594 36.5154 19.8597C36.5154 23.06 39.111 25.654 42.3124 25.654Z" fill="#FFBD2E" stroke="#DFA123"/>
<path d="M63.4999 25.654C66.7012 25.654 69.2969 23.06 69.2969 19.8597C69.2969 16.6594 66.7012 14.0654 63.4999 14.0654C60.2985 14.0654 57.7029 16.6594 57.7029 19.8597C57.7029 23.06 60.2985 25.654 63.4999 25.654Z" fill="#29CC41" stroke="#1DAD2B"/>
<g filter="url(#filter1_di)">
<path d="M280.127 9.23047H102.277C100.068 9.23047 98.2773 11.0213 98.2773 13.2305V28.7563C98.2773 30.9654 100.068 32.7563 102.277 32.7563H280.127C282.336 32.7563 284.127 30.9654 284.127 28.7563V13.2305C284.127 11.0213 282.336 9.23047 280.127 9.23047Z" fill="#FDFDFD"/>
</g>
<path d="M141.495 24V20.9824L139.083 16.7734H140.255L142.13 20.0352L144.151 16.7734H145.104L142.521 20.9629V24H141.495ZM148.268 24.1221C147.509 24.1221 146.904 23.8714 146.451 23.3701C145.999 22.8656 145.772 22.1917 145.772 21.3486C145.772 20.4958 145.999 19.8219 146.451 19.3271C146.907 18.8291 147.524 18.5801 148.302 18.5801C149.08 18.5801 149.695 18.8291 150.147 19.3271C150.603 19.8219 150.831 20.4925 150.831 21.3389C150.831 22.2048 150.603 22.8851 150.147 23.3799C149.692 23.8747 149.065 24.1221 148.268 24.1221ZM148.282 23.3994C149.301 23.3994 149.811 22.7126 149.811 21.3389C149.811 19.9814 149.308 19.3027 148.302 19.3027C147.299 19.3027 146.798 19.9847 146.798 21.3486C146.798 22.7158 147.293 23.3994 148.282 23.3994ZM155.65 24V23.0039C155.139 23.7493 154.519 24.1221 153.79 24.1221C153.328 24.1221 152.96 23.9772 152.687 23.6875C152.413 23.3945 152.276 23.0007 152.276 22.5059V18.6973H153.238V22.1934C153.238 22.5905 153.295 22.8737 153.409 23.043C153.526 23.209 153.72 23.292 153.99 23.292C154.576 23.292 155.13 22.9062 155.65 22.1348V18.6973H156.612V24H155.65ZM158.546 24V18.6973H159.508V19.6934C159.889 18.9512 160.442 18.5801 161.168 18.5801C161.266 18.5801 161.368 18.5882 161.476 18.6045V19.5029C161.31 19.4476 161.163 19.4199 161.036 19.4199C160.427 19.4199 159.918 19.7812 159.508 20.5039V24H158.546ZM169.435 21.2363L168.204 18.1211L166.969 21.2363H169.435ZM170.519 24L169.732 21.998H166.671L165.875 24H164.923L167.789 16.7734H168.805L171.627 24H170.519ZM172.706 25.9287V18.6973H173.668V19.6934C174.062 18.9512 174.653 18.5801 175.44 18.5801C176.078 18.5801 176.58 18.8128 176.944 19.2783C177.312 19.7438 177.496 20.3802 177.496 21.1875C177.496 22.0664 177.288 22.776 176.871 23.3164C176.458 23.8535 175.912 24.1221 175.235 24.1221C174.607 24.1221 174.085 23.8812 173.668 23.3994V25.9287H172.706ZM173.668 22.7354C174.163 23.1781 174.635 23.3994 175.084 23.3994C176.008 23.3994 176.471 22.6947 176.471 21.2852C176.471 20.0417 176.061 19.4199 175.24 19.4199C174.703 19.4199 174.179 19.7113 173.668 20.2939V22.7354ZM179.005 25.9287V18.6973H179.967V19.6934C180.361 18.9512 180.951 18.5801 181.739 18.5801C182.377 18.5801 182.879 18.8128 183.243 19.2783C183.611 19.7438 183.795 20.3802 183.795 21.1875C183.795 22.0664 183.587 22.776 183.17 23.3164C182.757 23.8535 182.211 24.1221 181.534 24.1221C180.906 24.1221 180.383 23.8812 179.967 23.3994V25.9287H179.005ZM179.967 22.7354C180.462 23.1781 180.934 23.3994 181.383 23.3994C182.307 23.3994 182.77 22.6947 182.77 21.2852C182.77 20.0417 182.359 19.4199 181.539 19.4199C181.002 19.4199 180.478 19.7113 179.967 20.2939V22.7354ZM185.318 19.0586V18.6973C185.475 18.6549 185.592 18.5426 185.67 18.3604C185.748 18.1748 185.787 17.9193 185.787 17.5938V17.4961H185.318V16.29H186.524V17.335C186.524 17.8721 186.424 18.2839 186.222 18.5703C186.02 18.8568 185.719 19.0195 185.318 19.0586ZM189.874 24.1221C189.435 24.1221 188.901 24.0195 188.272 23.8145V22.9307C188.901 23.2432 189.448 23.3994 189.913 23.3994C190.19 23.3994 190.419 23.3245 190.602 23.1748C190.784 23.0251 190.875 22.8379 190.875 22.6133C190.875 22.2845 190.619 22.0127 190.108 21.7979L189.547 21.5586C188.717 21.2135 188.302 20.7171 188.302 20.0693C188.302 19.6071 188.465 19.2441 188.79 18.9805C189.119 18.7135 189.568 18.5801 190.138 18.5801C190.434 18.5801 190.8 18.6208 191.236 18.7021L191.437 18.7412V19.542C190.899 19.3825 190.473 19.3027 190.157 19.3027C189.539 19.3027 189.229 19.5273 189.229 19.9766C189.229 20.2663 189.464 20.5104 189.933 20.709L190.396 20.9043C190.921 21.1257 191.292 21.36 191.51 21.6074C191.728 21.8516 191.837 22.1576 191.837 22.5254C191.837 22.9909 191.653 23.3734 191.285 23.6729C190.917 23.9723 190.447 24.1221 189.874 24.1221ZM196.642 16.7734H197.667V21.334C197.667 22.0599 197.8 22.5889 198.067 22.9209C198.338 23.2497 198.766 23.4141 199.352 23.4141C199.924 23.4141 200.33 23.2594 200.567 22.9502C200.808 22.6377 200.929 22.1104 200.929 21.3682V16.7734H201.827V21.3535C201.827 22.3398 201.624 23.0576 201.217 23.5068C200.813 23.9561 200.169 24.1807 199.283 24.1807C198.382 24.1807 197.716 23.9479 197.286 23.4824C196.856 23.0169 196.642 22.2975 196.642 21.3242V16.7734ZM203.634 24V16.7734H205.821C206.515 16.7734 207.045 16.9264 207.413 17.2324C207.784 17.5384 207.97 17.9827 207.97 18.5654C207.97 19.529 207.483 20.2126 206.51 20.6162L208.922 24H207.662L205.606 20.9434H204.649V24H203.634ZM204.649 20.1768H204.981C206.271 20.1768 206.915 19.6706 206.915 18.6582C206.915 17.9128 206.375 17.54 205.294 17.54H204.649V20.1768ZM209.962 24V16.7734H210.987V23.2334H214.239V24H209.962Z" fill="black"/>
<path d="M269.923 19.4376L273.855 17.4727L269.923 15.5078V17.1026C267.719 17.3012 265.991 19.1528 265.991 21.4077C265.991 23.7951 267.928 25.7305 270.316 25.7305C272.705 25.7305 274.641 23.7951 274.641 21.4077C274.641 21.2752 274.635 21.144 274.624 21.0145H273.834C273.848 21.1442 273.855 21.276 273.855 21.4096C273.855 23.3629 272.271 24.9464 270.317 24.9464C268.362 24.9464 266.778 23.3629 266.778 21.4096C266.778 19.5894 268.154 18.0903 269.923 17.8944V19.4376Z" fill="#7E7E7E"/>
</g>
<defs>
<filter id="filter0_ddi" x="-3" y="-2" width="358" height="48" filterUnits="userSpaceOnUse" color-interpolation-filters="sRGB">
<feFlood flood-opacity="0" result="BackgroundImageFix"/>
<feColorMatrix in="SourceAlpha" type="matrix" values="0 0 0 0 0 0 0 0 0 0 0 0 0 0 0 0 0 0 127 0"/>
<feOffset/>
<feGaussianBlur stdDeviation="0.5"/>
<feColorMatrix type="matrix" values="0 0 0 0 0 0 0 0 0 0 0 0 0 0 0 0 0 0 0.14606 0"/>
<feBlend mode="normal" in2="BackgroundImageFix" result="effect1_dropShadow"/>
<feColorMatrix in="SourceAlpha" type="matrix" values="0 0 0 0 0 0 0 0 0 0 0 0 0 0 0 0 0 0 127 0"/>
<feOffset dy="1"/>
<feGaussianBlur stdDeviation="2"/>
<feColorMatrix type="matrix" values="0 0 0 0 0.717647 0 0 0 0 0.709804 0 0 0 0 0.717647 0 0 0 1 0"/>
<feBlend mode="normal" in2="effect1_dropShadow" result="effect2_dropShadow"/>
<feBlend mode="normal" in="SourceGraphic" in2="effect2_dropShadow" result="shape"/>
<feColorMatrix in="SourceAlpha" type="matrix" values="0 0 0 0 0 0 0 0 0 0 0 0 0 0 0 0 0 0 127 0" result="hardAlpha"/>
<feOffset dy="1"/>
<feGaussianBlur stdDeviation="2"/>
<feComposite in2="hardAlpha" operator="arithmetic" k2="-1" k3="1"/>
<feColorMatrix type="matrix" values="0 0 0 0 1 0 0 0 0 0.99996 0 0 0 0 1 0 0 0 0.5 0"/>
<feBlend mode="normal" in2="shape" result="effect3_innerShadow"/>
</filter>
<filter id="filter1_di" x="94.2773" y="6.23047" width="193.85" height="31.5258" filterUnits="userSpaceOnUse" color-interpolation-filters="sRGB">
<feFlood flood-opacity="0" result="BackgroundImageFix"/>
<feColorMatrix in="SourceAlpha" type="matrix" values="0 0 0 0 0 0 0 0 0 0 0 0 0 0 0 0 0 0 127 0"/>
<feOffset dy="1"/>
<feGaussianBlur stdDeviation="2"/>
<feColorMatrix type="matrix" values="0 0 0 0 0.792157 0 0 0 0 0.788235 0 0 0 0 0.792157 0 0 0 1 0"/>
<feBlend mode="normal" in2="BackgroundImageFix" result="effect1_dropShadow"/>
<feBlend mode="normal" in="SourceGraphic" in2="effect1_dropShadow" result="shape"/>
<feColorMatrix in="SourceAlpha" type="matrix" values="0 0 0 0 0 0 0 0 0 0 0 0 0 0 0 0 0 0 127 0" result="hardAlpha"/>
<feOffset dy="1"/>
<feGaussianBlur stdDeviation="2"/>
<feComposite in2="hardAlpha" operator="arithmetic" k2="-1" k3="1"/>
<feColorMatrix type="matrix" values="0 0 0 0 1 0 0 0 0 1 0 0 0 0 1 0 0 0 1 0"/>
<feBlend mode="normal" in2="shape" result="effect2_innerShadow"/>
</filter>
<linearGradient id="paint0_linear" x1="1" y1="1" x2="1" y2="41" gradientUnits="userSpaceOnUse">
<stop stop-color="#EDEAED"/>
<stop offset="1" stop-color="#DFDBDF"/>
</linearGradient>
<clipPath id="clip0">
<rect width="352" height="42" fill="white"/>
</clipPath>
</defs>
</svg>
