<svg width="512" height="732" viewBox="0 0 512 732" fill="none" xmlns="http://www.w3.org/2000/svg">
<g filter="url(#filter0_d_2432_59659)">
<rect x="56" y="44" width="400" height="620" rx="28" fill="white"/>
<path d="M184.649 257.547H181.538C181.481 257.144 181.365 256.787 181.19 256.474C181.015 256.157 180.79 255.887 180.515 255.665C180.241 255.442 179.923 255.272 179.564 255.153C179.208 255.035 178.823 254.976 178.406 254.976C177.653 254.976 176.997 255.163 176.439 255.537C175.88 255.906 175.447 256.446 175.139 257.156C174.831 257.862 174.677 258.719 174.677 259.727C174.677 260.764 174.831 261.635 175.139 262.341C175.451 263.046 175.887 263.579 176.446 263.939C177.004 264.299 177.651 264.479 178.385 264.479C178.797 264.479 179.178 264.424 179.528 264.315C179.883 264.206 180.198 264.048 180.473 263.839C180.747 263.626 180.975 263.368 181.154 263.065C181.339 262.762 181.467 262.417 181.538 262.028L184.649 262.043C184.568 262.71 184.367 263.354 184.045 263.974C183.728 264.59 183.299 265.142 182.76 265.629C182.225 266.112 181.585 266.496 180.842 266.78C180.103 267.059 179.268 267.199 178.335 267.199C177.038 267.199 175.877 266.905 174.855 266.318C173.837 265.731 173.032 264.881 172.44 263.768C171.853 262.656 171.559 261.309 171.559 259.727C171.559 258.141 171.858 256.792 172.454 255.679C173.051 254.566 173.86 253.719 174.883 253.136C175.906 252.549 177.056 252.256 178.335 252.256C179.178 252.256 179.959 252.374 180.679 252.611C181.403 252.848 182.045 253.193 182.603 253.648C183.162 254.098 183.617 254.649 183.967 255.303C184.322 255.956 184.549 256.704 184.649 257.547ZM191.726 267.213C190.623 267.213 189.669 266.979 188.864 266.51C188.064 266.036 187.446 265.378 187.01 264.536C186.575 263.688 186.357 262.705 186.357 261.588C186.357 260.461 186.575 259.476 187.01 258.634C187.446 257.786 188.064 257.128 188.864 256.659C189.669 256.186 190.623 255.949 191.726 255.949C192.829 255.949 193.781 256.186 194.581 256.659C195.386 257.128 196.007 257.786 196.442 258.634C196.878 259.476 197.096 260.461 197.096 261.588C197.096 262.705 196.878 263.688 196.442 264.536C196.007 265.378 195.386 266.036 194.581 266.51C193.781 266.979 192.829 267.213 191.726 267.213ZM191.74 264.869C192.242 264.869 192.661 264.727 192.998 264.443C193.334 264.154 193.587 263.761 193.757 263.264C193.933 262.767 194.02 262.201 194.02 261.567C194.02 260.932 193.933 260.366 193.757 259.869C193.587 259.372 193.334 258.979 192.998 258.69C192.661 258.402 192.242 258.257 191.74 258.257C191.234 258.257 190.808 258.402 190.462 258.69C190.121 258.979 189.863 259.372 189.688 259.869C189.517 260.366 189.432 260.932 189.432 261.567C189.432 262.201 189.517 262.767 189.688 263.264C189.863 263.761 190.121 264.154 190.462 264.443C190.808 264.727 191.234 264.869 191.74 264.869ZM202.088 260.693V267H199.063V256.091H201.946V258.016H202.074C202.316 257.381 202.721 256.879 203.289 256.51C203.857 256.136 204.546 255.949 205.355 255.949C206.113 255.949 206.774 256.115 207.337 256.446C207.9 256.777 208.338 257.251 208.651 257.866C208.963 258.477 209.12 259.206 209.12 260.054V267H206.094V260.594C206.099 259.926 205.928 259.405 205.583 259.031C205.237 258.652 204.761 258.463 204.155 258.463C203.748 258.463 203.388 258.551 203.076 258.726C202.768 258.901 202.526 259.157 202.351 259.493C202.181 259.824 202.093 260.224 202.088 260.693ZM217.371 256.091V258.364H210.638V256.091H217.371ZM212.179 267V255.303C212.179 254.512 212.333 253.856 212.641 253.335C212.953 252.814 213.379 252.424 213.919 252.163C214.459 251.903 215.072 251.773 215.759 251.773C216.223 251.773 216.646 251.808 217.03 251.879C217.418 251.95 217.707 252.014 217.896 252.071L217.357 254.344C217.238 254.306 217.091 254.27 216.916 254.237C216.746 254.204 216.571 254.188 216.391 254.188C215.946 254.188 215.635 254.292 215.46 254.5C215.285 254.704 215.197 254.99 215.197 255.359V267H212.179ZM219.219 267V256.091H222.245V267H219.219ZM220.739 254.685C220.289 254.685 219.903 254.536 219.581 254.237C219.264 253.934 219.105 253.572 219.105 253.151C219.105 252.734 219.264 252.376 219.581 252.078C219.903 251.775 220.289 251.624 220.739 251.624C221.189 251.624 221.572 251.775 221.89 252.078C222.212 252.376 222.373 252.734 222.373 253.151C222.373 253.572 222.212 253.934 221.89 254.237C221.572 254.536 221.189 254.685 220.739 254.685ZM224.668 267V256.091H227.602V257.994H227.715C227.914 257.317 228.248 256.806 228.717 256.46C229.185 256.11 229.725 255.935 230.336 255.935C230.487 255.935 230.651 255.944 230.826 255.963C231.001 255.982 231.155 256.008 231.288 256.041V258.726C231.146 258.683 230.949 258.645 230.698 258.612C230.447 258.579 230.218 258.562 230.009 258.562C229.564 258.562 229.166 258.66 228.816 258.854C228.47 259.043 228.196 259.308 227.992 259.649C227.793 259.99 227.694 260.383 227.694 260.828V267H224.668ZM232.852 267V256.091H235.735V258.016H235.863C236.091 257.376 236.469 256.872 237 256.503C237.53 256.134 238.164 255.949 238.903 255.949C239.651 255.949 240.288 256.136 240.814 256.51C241.339 256.879 241.69 257.381 241.865 258.016H241.978C242.201 257.391 242.603 256.891 243.186 256.517C243.773 256.138 244.467 255.949 245.267 255.949C246.285 255.949 247.111 256.273 247.745 256.922C248.385 257.566 248.704 258.48 248.704 259.663V267H245.686V260.26C245.686 259.654 245.525 259.199 245.203 258.896C244.881 258.593 244.478 258.442 243.995 258.442C243.446 258.442 243.018 258.617 242.71 258.967C242.402 259.313 242.248 259.77 242.248 260.338V267H239.315V260.196C239.315 259.661 239.161 259.235 238.853 258.918C238.55 258.6 238.15 258.442 237.653 258.442C237.317 258.442 237.014 258.527 236.744 258.697C236.479 258.863 236.268 259.098 236.112 259.401C235.956 259.699 235.877 260.049 235.877 260.452V267H232.852ZM255.723 267V256.091H258.656V257.994H258.77C258.969 257.317 259.303 256.806 259.771 256.46C260.24 256.11 260.78 255.935 261.391 255.935C261.542 255.935 261.705 255.944 261.881 255.963C262.056 255.982 262.21 256.008 262.342 256.041V258.726C262.2 258.683 262.004 258.645 261.753 258.612C261.502 258.579 261.272 258.562 261.064 258.562C260.619 258.562 260.221 258.66 259.871 258.854C259.525 259.043 259.25 259.308 259.047 259.649C258.848 259.99 258.749 260.383 258.749 260.828V267H255.723ZM268.37 267.213C267.248 267.213 266.282 266.986 265.473 266.531C264.668 266.072 264.047 265.423 263.612 264.585C263.176 263.742 262.958 262.746 262.958 261.595C262.958 260.473 263.176 259.488 263.612 258.641C264.047 257.793 264.661 257.133 265.451 256.659C266.247 256.186 267.18 255.949 268.25 255.949C268.969 255.949 269.639 256.065 270.26 256.297C270.885 256.524 271.429 256.867 271.893 257.327C272.362 257.786 272.726 258.364 272.987 259.06C273.247 259.751 273.377 260.561 273.377 261.489V262.32H264.166V260.445H270.529C270.529 260.009 270.435 259.623 270.245 259.287C270.056 258.951 269.793 258.688 269.457 258.499C269.126 258.304 268.74 258.207 268.299 258.207C267.84 258.207 267.433 258.314 267.078 258.527C266.727 258.735 266.453 259.017 266.254 259.372C266.055 259.723 265.953 260.113 265.949 260.544V262.327C265.949 262.866 266.048 263.333 266.247 263.726C266.45 264.119 266.737 264.422 267.106 264.635C267.475 264.848 267.913 264.955 268.42 264.955C268.756 264.955 269.064 264.907 269.343 264.812C269.623 264.718 269.862 264.576 270.061 264.386C270.26 264.197 270.411 263.965 270.515 263.69L273.314 263.875C273.172 264.547 272.88 265.134 272.44 265.636C272.004 266.134 271.441 266.522 270.75 266.801C270.063 267.076 269.27 267.213 268.37 267.213ZM282.561 271.091V265.253H282.468C282.326 265.556 282.125 265.857 281.865 266.155C281.609 266.448 281.275 266.692 280.863 266.886C280.456 267.08 279.959 267.178 279.372 267.178C278.543 267.178 277.793 266.964 277.12 266.538C276.453 266.107 275.922 265.475 275.529 264.642C275.141 263.804 274.947 262.777 274.947 261.56C274.947 260.31 275.148 259.27 275.551 258.442C275.953 257.608 276.488 256.986 277.156 256.574C277.828 256.157 278.565 255.949 279.365 255.949C279.975 255.949 280.484 256.053 280.892 256.261C281.304 256.465 281.635 256.721 281.886 257.028C282.142 257.331 282.336 257.63 282.468 257.923H282.596V256.091H285.579V271.091H282.561ZM280.331 264.77C280.818 264.77 281.23 264.637 281.566 264.372C281.907 264.102 282.168 263.726 282.348 263.243C282.532 262.76 282.625 262.194 282.625 261.545C282.625 260.897 282.535 260.333 282.355 259.855C282.175 259.377 281.914 259.008 281.574 258.747C281.233 258.487 280.818 258.357 280.331 258.357C279.833 258.357 279.414 258.491 279.074 258.761C278.733 259.031 278.475 259.405 278.299 259.884C278.124 260.362 278.037 260.916 278.037 261.545C278.037 262.18 278.124 262.741 278.299 263.229C278.479 263.712 278.737 264.09 279.074 264.365C279.414 264.635 279.833 264.77 280.331 264.77ZM295.004 262.355V256.091H298.029V267H295.125V265.018H295.011C294.765 265.658 294.355 266.171 293.782 266.56C293.214 266.948 292.52 267.142 291.701 267.142C290.972 267.142 290.331 266.976 289.777 266.645C289.223 266.313 288.789 265.842 288.477 265.232C288.169 264.621 288.013 263.889 288.008 263.037V256.091H291.034V262.497C291.038 263.141 291.211 263.65 291.552 264.024C291.893 264.398 292.35 264.585 292.923 264.585C293.288 264.585 293.628 264.502 293.946 264.337C294.263 264.166 294.519 263.915 294.713 263.584C294.912 263.252 295.009 262.843 295.004 262.355ZM305.421 267.213C304.299 267.213 303.333 266.986 302.523 266.531C301.719 266.072 301.098 265.423 300.663 264.585C300.227 263.742 300.009 262.746 300.009 261.595C300.009 260.473 300.227 259.488 300.663 258.641C301.098 257.793 301.711 257.133 302.502 256.659C303.298 256.186 304.23 255.949 305.3 255.949C306.02 255.949 306.69 256.065 307.31 256.297C307.935 256.524 308.48 256.867 308.944 257.327C309.413 257.786 309.777 258.364 310.038 259.06C310.298 259.751 310.428 260.561 310.428 261.489V262.32H301.217V260.445H307.58C307.58 260.009 307.486 259.623 307.296 259.287C307.107 258.951 306.844 258.688 306.508 258.499C306.176 258.304 305.79 258.207 305.35 258.207C304.891 258.207 304.484 258.314 304.129 258.527C303.778 258.735 303.504 259.017 303.305 259.372C303.106 259.723 303.004 260.113 302.999 260.544V262.327C302.999 262.866 303.099 263.333 303.298 263.726C303.501 264.119 303.788 264.422 304.157 264.635C304.526 264.848 304.964 264.955 305.471 264.955C305.807 264.955 306.115 264.907 306.394 264.812C306.674 264.718 306.913 264.576 307.112 264.386C307.31 264.197 307.462 263.965 307.566 263.69L310.364 263.875C310.222 264.547 309.931 265.134 309.491 265.636C309.055 266.134 308.492 266.522 307.8 266.801C307.114 267.076 306.321 267.213 305.421 267.213ZM321.479 259.202L318.71 259.372C318.662 259.135 318.56 258.922 318.404 258.733C318.248 258.539 318.042 258.385 317.786 258.271C317.535 258.153 317.235 258.094 316.884 258.094C316.415 258.094 316.02 258.193 315.698 258.392C315.376 258.586 315.215 258.847 315.215 259.173C315.215 259.434 315.319 259.654 315.528 259.834C315.736 260.014 316.094 260.158 316.6 260.267L318.575 260.665C319.635 260.883 320.426 261.233 320.947 261.716C321.468 262.199 321.728 262.833 321.728 263.619C321.728 264.334 321.517 264.962 321.096 265.501C320.679 266.041 320.106 266.463 319.377 266.766C318.653 267.064 317.817 267.213 316.87 267.213C315.426 267.213 314.275 266.912 313.418 266.311C312.566 265.705 312.067 264.881 311.92 263.839L314.896 263.683C314.986 264.124 315.203 264.46 315.549 264.692C315.895 264.919 316.337 265.033 316.877 265.033C317.407 265.033 317.834 264.931 318.156 264.727C318.482 264.519 318.648 264.251 318.653 263.925C318.648 263.65 318.532 263.425 318.305 263.25C318.077 263.07 317.727 262.933 317.254 262.838L315.364 262.462C314.299 262.249 313.506 261.879 312.985 261.354C312.469 260.828 312.211 260.158 312.211 259.344C312.211 258.643 312.4 258.039 312.779 257.533C313.163 257.026 313.7 256.635 314.391 256.361C315.087 256.086 315.902 255.949 316.835 255.949C318.212 255.949 319.297 256.24 320.087 256.822C320.883 257.405 321.347 258.198 321.479 259.202ZM329.436 256.091V258.364H322.866V256.091H329.436ZM324.358 253.477H327.383V263.648C327.383 263.927 327.426 264.145 327.511 264.301C327.596 264.453 327.715 264.559 327.866 264.621C328.022 264.682 328.202 264.713 328.406 264.713C328.548 264.713 328.69 264.701 328.832 264.678C328.974 264.649 329.083 264.628 329.159 264.614L329.635 266.865C329.483 266.912 329.27 266.967 328.995 267.028C328.721 267.095 328.387 267.135 327.994 267.149C327.265 267.178 326.626 267.08 326.076 266.858C325.532 266.635 325.108 266.29 324.805 265.821C324.502 265.352 324.353 264.76 324.358 264.045V253.477ZM334.006 262.639V262.398C334.011 261.569 334.084 260.909 334.226 260.416C334.373 259.924 334.586 259.526 334.865 259.223C335.145 258.92 335.481 258.645 335.874 258.399C336.167 258.21 336.43 258.013 336.662 257.81C336.894 257.606 337.079 257.381 337.216 257.135C337.354 256.884 337.422 256.605 337.422 256.297C337.422 255.97 337.344 255.684 337.188 255.438C337.032 255.191 336.821 255.002 336.556 254.869C336.295 254.737 336.007 254.67 335.689 254.67C335.382 254.67 335.09 254.739 334.816 254.876C334.541 255.009 334.316 255.208 334.141 255.473C333.966 255.733 333.871 256.058 333.857 256.446H330.959C330.983 255.499 331.21 254.718 331.641 254.102C332.072 253.482 332.642 253.02 333.353 252.717C334.063 252.41 334.846 252.256 335.703 252.256C336.646 252.256 337.479 252.412 338.203 252.724C338.928 253.032 339.496 253.48 339.908 254.067C340.32 254.654 340.526 255.362 340.526 256.19C340.526 256.744 340.434 257.237 340.249 257.668C340.069 258.094 339.816 258.473 339.489 258.804C339.162 259.131 338.776 259.427 338.331 259.692C337.957 259.914 337.65 260.146 337.408 260.388C337.171 260.629 336.994 260.909 336.875 261.226C336.762 261.543 336.703 261.934 336.698 262.398V262.639H334.006ZM335.412 267.185C334.939 267.185 334.534 267.019 334.198 266.688C333.866 266.351 333.703 265.949 333.708 265.48C333.703 265.016 333.866 264.618 334.198 264.287C334.534 263.955 334.939 263.79 335.412 263.79C335.862 263.79 336.257 263.955 336.598 264.287C336.939 264.618 337.112 265.016 337.117 265.48C337.112 265.793 337.029 266.079 336.868 266.339C336.712 266.595 336.506 266.801 336.25 266.957C335.995 267.109 335.715 267.185 335.412 267.185Z" fill="#18171A"/>
<path d="M122.917 333H119.308V322.818H122.947C123.971 322.818 124.853 323.022 125.592 323.43C126.331 323.834 126.899 324.416 127.297 325.175C127.698 325.934 127.899 326.842 127.899 327.899C127.899 328.96 127.698 329.871 127.297 330.634C126.899 331.396 126.328 331.981 125.582 332.388C124.84 332.796 123.951 333 122.917 333ZM121.46 331.156H122.828C123.464 331.156 123.999 331.043 124.434 330.817C124.871 330.589 125.199 330.236 125.418 329.759C125.64 329.278 125.751 328.658 125.751 327.899C125.751 327.147 125.64 326.532 125.418 326.055C125.199 325.577 124.873 325.226 124.438 325.001C124.004 324.775 123.469 324.663 122.833 324.663H121.46V331.156ZM129.454 333V325.364H131.571V333H129.454ZM130.517 324.379C130.203 324.379 129.932 324.275 129.707 324.066C129.485 323.854 129.374 323.6 129.374 323.305C129.374 323.014 129.485 322.763 129.707 322.555C129.932 322.343 130.203 322.237 130.517 322.237C130.832 322.237 131.101 322.343 131.323 322.555C131.548 322.763 131.661 323.014 131.661 323.305C131.661 323.6 131.548 323.854 131.323 324.066C131.101 324.275 130.832 324.379 130.517 324.379ZM139.622 327.541L137.683 327.661C137.65 327.495 137.578 327.346 137.469 327.213C137.36 327.077 137.215 326.969 137.036 326.89C136.861 326.807 136.65 326.766 136.405 326.766C136.077 326.766 135.8 326.835 135.575 326.974C135.349 327.11 135.237 327.293 135.237 327.521C135.237 327.704 135.31 327.858 135.456 327.984C135.601 328.11 135.852 328.211 136.206 328.287L137.588 328.565C138.331 328.718 138.884 328.963 139.249 329.301C139.613 329.639 139.796 330.083 139.796 330.634C139.796 331.134 139.648 331.573 139.353 331.951C139.062 332.329 138.661 332.624 138.15 332.836C137.643 333.045 137.058 333.149 136.395 333.149C135.384 333.149 134.579 332.939 133.979 332.518C133.382 332.094 133.033 331.517 132.93 330.788L135.013 330.678C135.076 330.987 135.228 331.222 135.47 331.384C135.712 331.543 136.022 331.623 136.4 331.623C136.771 331.623 137.07 331.552 137.295 331.409C137.524 331.263 137.64 331.076 137.643 330.847C137.64 330.655 137.559 330.498 137.399 330.375C137.24 330.249 136.995 330.153 136.664 330.087L135.341 329.823C134.595 329.674 134.04 329.415 133.676 329.048C133.314 328.68 133.134 328.211 133.134 327.641C133.134 327.15 133.266 326.728 133.532 326.373C133.8 326.018 134.176 325.745 134.66 325.553C135.147 325.36 135.717 325.264 136.37 325.264C137.335 325.264 138.094 325.468 138.647 325.876C139.204 326.283 139.529 326.839 139.622 327.541ZM141.129 335.864V325.364H143.217V326.646H143.312C143.405 326.441 143.539 326.232 143.715 326.02C143.894 325.804 144.126 325.625 144.411 325.483C144.699 325.337 145.057 325.264 145.484 325.264C146.041 325.264 146.555 325.41 147.026 325.702C147.496 325.99 147.872 326.426 148.154 327.009C148.436 327.589 148.577 328.317 148.577 329.192C148.577 330.044 148.439 330.763 148.164 331.349C147.892 331.933 147.521 332.375 147.051 332.677C146.583 332.975 146.06 333.124 145.479 333.124C145.069 333.124 144.719 333.056 144.43 332.92C144.145 332.785 143.912 332.614 143.729 332.408C143.547 332.2 143.408 331.989 143.312 331.777H143.247V335.864H141.129ZM143.203 329.182C143.203 329.636 143.265 330.032 143.391 330.37C143.517 330.708 143.7 330.972 143.938 331.161C144.177 331.346 144.467 331.439 144.808 331.439C145.153 331.439 145.445 331.344 145.683 331.156C145.922 330.963 146.103 330.698 146.225 330.36C146.351 330.019 146.414 329.626 146.414 329.182C146.414 328.741 146.353 328.353 146.23 328.018C146.108 327.684 145.927 327.422 145.688 327.233C145.45 327.044 145.156 326.95 144.808 326.95C144.464 326.95 144.172 327.041 143.933 327.223C143.698 327.405 143.517 327.664 143.391 327.999C143.265 328.333 143.203 328.728 143.203 329.182ZM152.166 333.144C151.679 333.144 151.245 333.06 150.864 332.891C150.483 332.718 150.181 332.465 149.959 332.13C149.74 331.792 149.631 331.371 149.631 330.867C149.631 330.443 149.709 330.087 149.864 329.798C150.02 329.51 150.232 329.278 150.501 329.102C150.769 328.927 151.074 328.794 151.416 328.705C151.76 328.615 152.122 328.552 152.499 328.516C152.944 328.469 153.301 328.426 153.573 328.386C153.845 328.343 154.042 328.28 154.165 328.197C154.287 328.115 154.349 327.992 154.349 327.83V327.8C154.349 327.485 154.249 327.241 154.051 327.069C153.855 326.897 153.577 326.81 153.215 326.81C152.834 326.81 152.531 326.895 152.305 327.064C152.08 327.23 151.931 327.438 151.858 327.69L149.899 327.531C149.999 327.067 150.194 326.666 150.486 326.328C150.778 325.987 151.154 325.725 151.614 325.543C152.078 325.357 152.615 325.264 153.225 325.264C153.649 325.264 154.055 325.314 154.443 325.413C154.834 325.513 155.181 325.667 155.482 325.876C155.787 326.085 156.028 326.353 156.203 326.681C156.379 327.006 156.467 327.395 156.467 327.849V333H154.458V331.941H154.399C154.276 332.18 154.112 332.39 153.906 332.572C153.701 332.751 153.454 332.892 153.166 332.995C152.877 333.094 152.544 333.144 152.166 333.144ZM152.773 331.683C153.084 331.683 153.359 331.621 153.598 331.499C153.837 331.373 154.024 331.204 154.16 330.991C154.296 330.779 154.364 330.539 154.364 330.271V329.46C154.297 329.503 154.206 329.543 154.09 329.58C153.978 329.613 153.85 329.644 153.707 329.674C153.565 329.701 153.422 329.725 153.28 329.749C153.137 329.768 153.008 329.787 152.892 329.803C152.644 329.84 152.426 329.898 152.241 329.977C152.055 330.057 151.911 330.165 151.808 330.3C151.706 330.433 151.654 330.599 151.654 330.798C151.654 331.086 151.759 331.306 151.967 331.459C152.18 331.608 152.448 331.683 152.773 331.683ZM162.172 325.364V326.955H157.573V325.364H162.172ZM158.617 323.534H160.735V330.653C160.735 330.849 160.765 331.001 160.824 331.111C160.884 331.217 160.967 331.291 161.073 331.335C161.182 331.378 161.308 331.399 161.451 331.399C161.55 331.399 161.65 331.391 161.749 331.374C161.848 331.354 161.925 331.339 161.978 331.33L162.311 332.906C162.205 332.939 162.056 332.977 161.863 333.02C161.671 333.066 161.437 333.094 161.162 333.104C160.652 333.124 160.205 333.056 159.82 332.901C159.439 332.745 159.142 332.503 158.93 332.175C158.718 331.847 158.614 331.432 158.617 330.932V323.534ZM166.919 333.149C166.137 333.149 165.464 332.983 164.901 332.652C164.341 332.317 163.91 331.853 163.608 331.26C163.31 330.667 163.161 329.984 163.161 329.212C163.161 328.429 163.312 327.743 163.613 327.153C163.918 326.56 164.351 326.098 164.911 325.766C165.471 325.432 166.137 325.264 166.91 325.264C167.576 325.264 168.159 325.385 168.66 325.627C169.16 325.869 169.556 326.209 169.848 326.646C170.139 327.084 170.3 327.598 170.33 328.188H168.331C168.275 327.806 168.126 327.5 167.884 327.268C167.645 327.032 167.332 326.915 166.944 326.915C166.616 326.915 166.33 327.004 166.084 327.183C165.842 327.359 165.653 327.616 165.517 327.954C165.382 328.292 165.314 328.701 165.314 329.182C165.314 329.669 165.38 330.083 165.513 330.425C165.648 330.766 165.839 331.026 166.084 331.205C166.33 331.384 166.616 331.474 166.944 331.474C167.186 331.474 167.403 331.424 167.596 331.325C167.791 331.225 167.952 331.081 168.078 330.892C168.207 330.7 168.292 330.469 168.331 330.201H170.33C170.297 330.784 170.138 331.298 169.853 331.742C169.571 332.183 169.182 332.528 168.684 332.776C168.187 333.025 167.599 333.149 166.919 333.149ZM173.804 328.585V333H171.686V322.818H173.744V326.711H173.834C174.006 326.26 174.284 325.907 174.669 325.652C175.053 325.393 175.536 325.264 176.116 325.264C176.646 325.264 177.108 325.38 177.503 325.612C177.9 325.841 178.209 326.171 178.427 326.602C178.65 327.029 178.759 327.541 178.756 328.138V333H176.638V328.516C176.641 328.045 176.522 327.679 176.28 327.417C176.041 327.155 175.706 327.024 175.275 327.024C174.987 327.024 174.732 327.085 174.51 327.208C174.291 327.331 174.119 327.51 173.993 327.745C173.87 327.977 173.807 328.257 173.804 328.585Z" fill="#18171A"/>
<path d="M122.142 357.159C121.506 357.159 120.944 356.998 120.457 356.677C119.969 356.352 119.588 355.895 119.313 355.305C119.038 354.711 118.9 354.01 118.9 353.202C118.9 352.4 119.038 351.704 119.313 351.114C119.588 350.524 119.971 350.068 120.462 349.746C120.952 349.425 121.519 349.264 122.162 349.264C122.659 349.264 123.052 349.347 123.34 349.513C123.632 349.675 123.854 349.861 124.006 350.07C124.162 350.275 124.283 350.444 124.369 350.577H124.469V346.818H125.642V357H124.508V355.827H124.369C124.283 355.966 124.16 356.142 124.001 356.354C123.842 356.562 123.615 356.75 123.32 356.915C123.025 357.078 122.632 357.159 122.142 357.159ZM122.301 356.105C122.772 356.105 123.169 355.982 123.494 355.737C123.819 355.489 124.066 355.146 124.235 354.708C124.404 354.267 124.489 353.759 124.489 353.182C124.489 352.612 124.406 352.113 124.24 351.685C124.074 351.254 123.829 350.92 123.504 350.681C123.179 350.439 122.778 350.318 122.301 350.318C121.804 350.318 121.39 350.446 121.058 350.701C120.73 350.953 120.483 351.296 120.317 351.73C120.155 352.161 120.074 352.645 120.074 353.182C120.074 353.725 120.157 354.219 120.322 354.663C120.491 355.104 120.74 355.455 121.068 355.717C121.4 355.976 121.811 356.105 122.301 356.105ZM127.954 357V349.364H129.127V357H127.954ZM128.55 348.091C128.322 348.091 128.124 348.013 127.959 347.857C127.796 347.701 127.715 347.514 127.715 347.295C127.715 347.077 127.796 346.889 127.959 346.734C128.124 346.578 128.322 346.5 128.55 346.5C128.779 346.5 128.975 346.578 129.137 346.734C129.303 346.889 129.386 347.077 129.386 347.295C129.386 347.514 129.303 347.701 129.137 347.857C128.975 348.013 128.779 348.091 128.55 348.091ZM136.685 351.074L135.631 351.372C135.565 351.196 135.467 351.026 135.338 350.86C135.212 350.691 135.04 350.552 134.821 350.442C134.602 350.333 134.322 350.278 133.981 350.278C133.513 350.278 133.124 350.386 132.812 350.602C132.504 350.814 132.35 351.084 132.35 351.412C132.35 351.704 132.456 351.934 132.668 352.103C132.88 352.272 133.212 352.413 133.662 352.526L134.796 352.804C135.479 352.97 135.987 353.223 136.322 353.565C136.657 353.903 136.824 354.339 136.824 354.872C136.824 355.31 136.698 355.701 136.446 356.045C136.198 356.39 135.85 356.662 135.402 356.861C134.955 357.06 134.435 357.159 133.841 357.159C133.062 357.159 132.418 356.99 131.907 356.652C131.397 356.314 131.074 355.82 130.938 355.17L132.052 354.892C132.158 355.303 132.358 355.611 132.653 355.817C132.951 356.022 133.341 356.125 133.821 356.125C134.368 356.125 134.803 356.009 135.124 355.777C135.449 355.542 135.611 355.26 135.611 354.932C135.611 354.667 135.518 354.445 135.333 354.266C135.147 354.083 134.862 353.947 134.478 353.858L133.205 353.56C132.506 353.394 131.992 353.137 131.664 352.789C131.339 352.438 131.177 351.999 131.177 351.472C131.177 351.041 131.298 350.66 131.54 350.328C131.785 349.997 132.118 349.737 132.539 349.548C132.963 349.359 133.444 349.264 133.981 349.264C134.736 349.264 135.33 349.43 135.76 349.761C136.195 350.093 136.503 350.53 136.685 351.074ZM138.59 359.864V349.364H139.724V350.577H139.863C139.949 350.444 140.069 350.275 140.221 350.07C140.377 349.861 140.599 349.675 140.887 349.513C141.179 349.347 141.573 349.264 142.071 349.264C142.714 349.264 143.28 349.425 143.771 349.746C144.261 350.068 144.644 350.524 144.919 351.114C145.194 351.704 145.332 352.4 145.332 353.202C145.332 354.01 145.194 354.711 144.919 355.305C144.644 355.895 144.263 356.352 143.776 356.677C143.289 356.998 142.727 357.159 142.09 357.159C141.6 357.159 141.207 357.078 140.912 356.915C140.617 356.75 140.39 356.562 140.231 356.354C140.072 356.142 139.949 355.966 139.863 355.827H139.764V359.864H138.59ZM139.744 353.182C139.744 353.759 139.828 354.267 139.997 354.708C140.166 355.146 140.413 355.489 140.738 355.737C141.063 355.982 141.461 356.105 141.931 356.105C142.422 356.105 142.831 355.976 143.159 355.717C143.491 355.455 143.739 355.104 143.905 354.663C144.074 354.219 144.159 353.725 144.159 353.182C144.159 352.645 144.076 352.161 143.91 351.73C143.748 351.296 143.501 350.953 143.169 350.701C142.841 350.446 142.429 350.318 141.931 350.318C141.454 350.318 141.053 350.439 140.728 350.681C140.403 350.92 140.158 351.254 139.992 351.685C139.827 352.113 139.744 352.612 139.744 353.182ZM149.369 357.179C148.885 357.179 148.446 357.088 148.051 356.906C147.657 356.72 147.344 356.453 147.112 356.105C146.88 355.754 146.764 355.33 146.764 354.832C146.764 354.395 146.85 354.04 147.022 353.768C147.195 353.493 147.425 353.278 147.713 353.122C148.002 352.966 148.32 352.85 148.668 352.774C149.019 352.695 149.372 352.632 149.727 352.585C150.191 352.526 150.567 352.481 150.855 352.451C151.147 352.418 151.359 352.363 151.492 352.287C151.628 352.211 151.696 352.078 151.696 351.889V351.849C151.696 351.359 151.561 350.978 151.293 350.706C151.028 350.434 150.625 350.298 150.085 350.298C149.525 350.298 149.085 350.421 148.767 350.666C148.449 350.911 148.225 351.173 148.096 351.452L146.983 351.054C147.181 350.59 147.447 350.229 147.778 349.97C148.113 349.708 148.477 349.526 148.872 349.423C149.269 349.317 149.661 349.264 150.045 349.264C150.29 349.264 150.572 349.294 150.89 349.354C151.212 349.41 151.522 349.528 151.82 349.707C152.121 349.886 152.372 350.156 152.571 350.517C152.769 350.878 152.869 351.362 152.869 351.969V357H151.696V355.966H151.636C151.556 356.132 151.424 356.309 151.238 356.498C151.053 356.687 150.806 356.848 150.497 356.98C150.189 357.113 149.813 357.179 149.369 357.179ZM149.548 356.125C150.012 356.125 150.403 356.034 150.721 355.852C151.043 355.669 151.285 355.434 151.447 355.146C151.613 354.857 151.696 354.554 151.696 354.236V353.162C151.646 353.222 151.536 353.276 151.367 353.326C151.202 353.372 151.009 353.414 150.791 353.45C150.575 353.483 150.365 353.513 150.159 353.54C149.957 353.563 149.793 353.583 149.667 353.599C149.362 353.639 149.077 353.704 148.812 353.793C148.55 353.879 148.338 354.01 148.176 354.186C148.017 354.358 147.937 354.594 147.937 354.892C147.937 355.3 148.088 355.608 148.389 355.817C148.694 356.022 149.081 356.125 149.548 356.125ZM158.331 349.364V350.358H154.374V349.364H158.331ZM155.527 347.534H156.701V354.812C156.701 355.144 156.749 355.393 156.845 355.558C156.944 355.721 157.07 355.83 157.223 355.886C157.379 355.939 157.543 355.966 157.715 355.966C157.844 355.966 157.95 355.959 158.033 355.946C158.116 355.929 158.182 355.916 158.232 355.906L158.471 356.96C158.391 356.99 158.28 357.02 158.138 357.05C157.995 357.083 157.814 357.099 157.596 357.099C157.264 357.099 156.939 357.028 156.621 356.886C156.306 356.743 156.044 356.526 155.836 356.234C155.63 355.943 155.527 355.575 155.527 355.131V347.534ZM163.117 357.159C162.401 357.159 161.784 356.99 161.267 356.652C160.75 356.314 160.352 355.848 160.074 355.255C159.796 354.662 159.656 353.984 159.656 353.222C159.656 352.446 159.799 351.762 160.084 351.168C160.372 350.572 160.773 350.106 161.287 349.771C161.804 349.433 162.407 349.264 163.097 349.264C163.634 349.264 164.118 349.364 164.548 349.562C164.979 349.761 165.332 350.04 165.607 350.398C165.882 350.756 166.053 351.173 166.119 351.651H164.946C164.857 351.303 164.658 350.994 164.35 350.726C164.045 350.454 163.634 350.318 163.117 350.318C162.659 350.318 162.258 350.437 161.913 350.676C161.572 350.911 161.305 351.245 161.113 351.675C160.924 352.103 160.83 352.605 160.83 353.182C160.83 353.772 160.922 354.286 161.108 354.723C161.297 355.161 161.562 355.5 161.903 355.742C162.248 355.984 162.653 356.105 163.117 356.105C163.421 356.105 163.698 356.052 163.947 355.946C164.195 355.84 164.406 355.688 164.578 355.489C164.751 355.29 164.873 355.051 164.946 354.773H166.119C166.053 355.223 165.889 355.629 165.627 355.991C165.369 356.349 165.026 356.634 164.598 356.846C164.174 357.055 163.68 357.159 163.117 357.159ZM169.008 352.406V357H167.835V346.818H169.008V350.557H169.107C169.286 350.162 169.555 349.849 169.913 349.617C170.274 349.382 170.755 349.264 171.354 349.264C171.875 349.264 172.331 349.369 172.722 349.577C173.113 349.783 173.416 350.099 173.631 350.527C173.85 350.951 173.96 351.491 173.96 352.148V357H172.786V352.227C172.786 351.621 172.629 351.152 172.314 350.82C172.002 350.486 171.57 350.318 171.016 350.318C170.632 350.318 170.287 350.399 169.982 350.562C169.681 350.724 169.442 350.961 169.266 351.273C169.094 351.584 169.008 351.962 169.008 352.406ZM176.961 357.08C176.716 357.08 176.505 356.992 176.33 356.816C176.154 356.64 176.066 356.43 176.066 356.185C176.066 355.939 176.154 355.729 176.33 355.553C176.505 355.378 176.716 355.29 176.961 355.29C177.206 355.29 177.417 355.378 177.593 355.553C177.768 355.729 177.856 355.939 177.856 356.185C177.856 356.347 177.815 356.496 177.732 356.632C177.652 356.768 177.545 356.877 177.409 356.96C177.276 357.04 177.127 357.08 176.961 357.08ZM180.837 349.364L182.666 352.486L184.496 349.364H185.848L183.382 353.182L185.848 357H184.496L182.666 354.037L180.837 357H179.484L181.91 353.182L179.484 349.364H180.837ZM188.278 359.864C188.079 359.864 187.902 359.847 187.746 359.814C187.59 359.784 187.482 359.754 187.423 359.724L187.721 358.69C188.006 358.763 188.258 358.79 188.477 358.77C188.695 358.75 188.889 358.652 189.058 358.477C189.231 358.304 189.388 358.024 189.531 357.636L189.749 357.04L186.926 349.364H188.198L190.306 355.449H190.386L192.494 349.364H193.766L190.525 358.114C190.379 358.508 190.198 358.835 189.983 359.093C189.768 359.355 189.517 359.549 189.232 359.675C188.951 359.801 188.632 359.864 188.278 359.864ZM195.096 357V356.105L199.432 350.537V350.457H195.236V349.364H200.943V350.298L196.727 355.827V355.906H201.082V357H195.096Z" fill="#77767A"/>
<line x1="118.5" y1="379.5" x2="389.5" y2="379.5" stroke="#EDEDF3"/>
<path d="M128.773 406H127.364C127.28 405.595 127.134 405.239 126.926 404.932C126.722 404.625 126.472 404.367 126.176 404.159C125.884 403.947 125.561 403.788 125.205 403.682C124.848 403.576 124.477 403.523 124.091 403.523C123.386 403.523 122.748 403.701 122.176 404.057C121.608 404.413 121.155 404.938 120.818 405.631C120.485 406.324 120.318 407.174 120.318 408.182C120.318 409.189 120.485 410.04 120.818 410.733C121.155 411.426 121.608 411.951 122.176 412.307C122.748 412.663 123.386 412.841 124.091 412.841C124.477 412.841 124.848 412.788 125.205 412.682C125.561 412.576 125.884 412.419 126.176 412.21C126.472 411.998 126.722 411.739 126.926 411.432C127.134 411.121 127.28 410.765 127.364 410.364H128.773C128.667 410.958 128.473 411.491 128.193 411.96C127.913 412.43 127.564 412.83 127.148 413.159C126.731 413.485 126.263 413.733 125.744 413.903C125.229 414.074 124.678 414.159 124.091 414.159C123.098 414.159 122.216 413.917 121.443 413.432C120.67 412.947 120.063 412.258 119.619 411.364C119.176 410.47 118.955 409.409 118.955 408.182C118.955 406.955 119.176 405.894 119.619 405C120.063 404.106 120.67 403.417 121.443 402.932C122.216 402.447 123.098 402.205 124.091 402.205C124.678 402.205 125.229 402.29 125.744 402.46C126.263 402.631 126.731 402.881 127.148 403.21C127.564 403.536 127.913 403.934 128.193 404.403C128.473 404.869 128.667 405.402 128.773 406ZM132.209 402.364V414H130.868V402.364H132.209ZM137.233 414.205C136.68 414.205 136.178 414.1 135.727 413.892C135.277 413.68 134.919 413.375 134.653 412.977C134.388 412.576 134.256 412.091 134.256 411.523C134.256 411.023 134.354 410.617 134.551 410.307C134.748 409.992 135.011 409.746 135.341 409.568C135.67 409.39 136.034 409.258 136.432 409.17C136.833 409.08 137.237 409.008 137.642 408.955C138.172 408.886 138.602 408.835 138.932 408.801C139.265 408.763 139.508 408.701 139.659 408.614C139.814 408.527 139.892 408.375 139.892 408.159V408.114C139.892 407.553 139.739 407.117 139.432 406.807C139.129 406.496 138.669 406.341 138.051 406.341C137.411 406.341 136.909 406.481 136.545 406.761C136.182 407.042 135.926 407.341 135.778 407.659L134.506 407.205C134.733 406.674 135.036 406.261 135.415 405.966C135.797 405.667 136.214 405.458 136.665 405.341C137.119 405.22 137.566 405.159 138.006 405.159C138.286 405.159 138.608 405.193 138.972 405.261C139.339 405.326 139.693 405.46 140.034 405.665C140.379 405.869 140.665 406.178 140.892 406.591C141.119 407.004 141.233 407.557 141.233 408.25V414H139.892V412.818H139.824C139.733 413.008 139.581 413.21 139.369 413.426C139.157 413.642 138.875 413.826 138.523 413.977C138.17 414.129 137.741 414.205 137.233 414.205ZM137.438 413C137.968 413 138.415 412.896 138.778 412.688C139.146 412.479 139.422 412.21 139.608 411.881C139.797 411.551 139.892 411.205 139.892 410.841V409.614C139.835 409.682 139.71 409.744 139.517 409.801C139.328 409.854 139.108 409.902 138.858 409.943C138.612 409.981 138.371 410.015 138.136 410.045C137.905 410.072 137.718 410.095 137.574 410.114C137.225 410.159 136.9 410.233 136.597 410.335C136.297 410.434 136.055 410.583 135.869 410.784C135.688 410.981 135.597 411.25 135.597 411.591C135.597 412.057 135.769 412.409 136.114 412.648C136.462 412.883 136.903 413 137.438 413ZM143.68 414V405.273H145.021V414H143.68ZM144.362 403.818C144.101 403.818 143.875 403.729 143.686 403.551C143.5 403.373 143.408 403.159 143.408 402.909C143.408 402.659 143.5 402.445 143.686 402.267C143.875 402.089 144.101 402 144.362 402C144.624 402 144.847 402.089 145.033 402.267C145.222 402.445 145.317 402.659 145.317 402.909C145.317 403.159 145.222 403.373 145.033 403.551C144.847 403.729 144.624 403.818 144.362 403.818ZM147.477 414V405.273H148.773V406.636H148.886C149.068 406.17 149.362 405.809 149.767 405.551C150.172 405.29 150.659 405.159 151.227 405.159C151.803 405.159 152.282 405.29 152.665 405.551C153.051 405.809 153.352 406.17 153.568 406.636H153.659C153.883 406.186 154.218 405.828 154.665 405.562C155.112 405.294 155.648 405.159 156.273 405.159C157.053 405.159 157.691 405.403 158.188 405.892C158.684 406.377 158.932 407.133 158.932 408.159V414H157.591V408.159C157.591 407.515 157.415 407.055 157.062 406.778C156.71 406.502 156.295 406.364 155.818 406.364C155.205 406.364 154.729 406.549 154.392 406.92C154.055 407.288 153.886 407.754 153.886 408.318V414H152.523V408.023C152.523 407.527 152.362 407.127 152.04 406.824C151.718 406.517 151.303 406.364 150.795 406.364C150.447 406.364 150.121 406.456 149.818 406.642C149.519 406.828 149.277 407.085 149.091 407.415C148.909 407.741 148.818 408.117 148.818 408.545V414H147.477ZM166.747 417.273C166.52 417.273 166.317 417.254 166.139 417.216C165.961 417.182 165.838 417.148 165.77 417.114L166.111 415.932C166.437 416.015 166.724 416.045 166.974 416.023C167.224 416 167.446 415.888 167.639 415.688C167.836 415.491 168.016 415.17 168.179 414.727L168.429 414.045L165.202 405.273H166.656L169.065 412.227H169.156L171.565 405.273H173.02L169.315 415.273C169.149 415.723 168.942 416.097 168.696 416.392C168.45 416.691 168.164 416.913 167.838 417.057C167.516 417.201 167.152 417.273 166.747 417.273ZM178.023 414.182C177.235 414.182 176.544 413.994 175.949 413.619C175.358 413.244 174.896 412.72 174.562 412.045C174.233 411.371 174.068 410.583 174.068 409.682C174.068 408.773 174.233 407.979 174.562 407.301C174.896 406.623 175.358 406.097 175.949 405.722C176.544 405.347 177.235 405.159 178.023 405.159C178.811 405.159 179.5 405.347 180.091 405.722C180.686 406.097 181.148 406.623 181.477 407.301C181.811 407.979 181.977 408.773 181.977 409.682C181.977 410.583 181.811 411.371 181.477 412.045C181.148 412.72 180.686 413.244 180.091 413.619C179.5 413.994 178.811 414.182 178.023 414.182ZM178.023 412.977C178.621 412.977 179.114 412.824 179.5 412.517C179.886 412.21 180.172 411.807 180.358 411.307C180.544 410.807 180.636 410.265 180.636 409.682C180.636 409.098 180.544 408.555 180.358 408.051C180.172 407.547 179.886 407.14 179.5 406.83C179.114 406.519 178.621 406.364 178.023 406.364C177.424 406.364 176.932 406.519 176.545 406.83C176.159 407.14 175.873 407.547 175.688 408.051C175.502 408.555 175.409 409.098 175.409 409.682C175.409 410.265 175.502 410.807 175.688 411.307C175.873 411.807 176.159 412.21 176.545 412.517C176.932 412.824 177.424 412.977 178.023 412.977ZM189.524 410.432V405.273H190.865V414H189.524V412.523H189.433C189.229 412.966 188.911 413.343 188.479 413.653C188.047 413.96 187.501 414.114 186.842 414.114C186.297 414.114 185.812 413.994 185.388 413.756C184.964 413.513 184.63 413.15 184.388 412.665C184.145 412.176 184.024 411.561 184.024 410.818V405.273H185.365V410.727C185.365 411.364 185.543 411.871 185.899 412.25C186.259 412.629 186.717 412.818 187.274 412.818C187.607 412.818 187.946 412.733 188.291 412.562C188.64 412.392 188.931 412.131 189.166 411.778C189.405 411.426 189.524 410.977 189.524 410.432ZM193.321 414V405.273H194.616V406.591H194.707C194.866 406.159 195.154 405.809 195.571 405.54C195.988 405.271 196.457 405.136 196.98 405.136C197.079 405.136 197.202 405.138 197.349 405.142C197.497 405.146 197.609 405.152 197.685 405.159V406.523C197.639 406.511 197.535 406.494 197.372 406.472C197.213 406.445 197.045 406.432 196.866 406.432C196.442 406.432 196.063 406.521 195.73 406.699C195.401 406.873 195.139 407.116 194.946 407.426C194.757 407.733 194.662 408.083 194.662 408.477V414H193.321ZM207.661 405.273V406.409H202.956V405.273H207.661ZM204.365 414V404.068C204.365 403.568 204.482 403.152 204.717 402.818C204.952 402.485 205.257 402.235 205.632 402.068C206.007 401.902 206.403 401.818 206.82 401.818C207.149 401.818 207.418 401.845 207.626 401.898C207.835 401.951 207.99 402 208.092 402.045L207.706 403.205C207.638 403.182 207.543 403.153 207.422 403.119C207.304 403.085 207.149 403.068 206.956 403.068C206.513 403.068 206.193 403.18 205.996 403.403C205.803 403.627 205.706 403.955 205.706 404.386V414H204.365ZM209.54 414V405.273H210.835V406.591H210.926C211.085 406.159 211.373 405.809 211.79 405.54C212.206 405.271 212.676 405.136 213.199 405.136C213.297 405.136 213.42 405.138 213.568 405.142C213.716 405.146 213.828 405.152 213.903 405.159V406.523C213.858 406.511 213.754 406.494 213.591 406.472C213.432 406.445 213.263 406.432 213.085 406.432C212.661 406.432 212.282 406.521 211.949 406.699C211.619 406.873 211.358 407.116 211.165 407.426C210.975 407.733 210.881 408.083 210.881 408.477V414H209.54ZM218.886 414.182C218.045 414.182 217.32 413.996 216.71 413.625C216.104 413.25 215.636 412.727 215.307 412.057C214.981 411.383 214.818 410.598 214.818 409.705C214.818 408.811 214.981 408.023 215.307 407.341C215.636 406.655 216.095 406.121 216.682 405.739C217.273 405.352 217.962 405.159 218.75 405.159C219.205 405.159 219.653 405.235 220.097 405.386C220.54 405.538 220.943 405.784 221.307 406.125C221.67 406.462 221.96 406.909 222.176 407.466C222.392 408.023 222.5 408.708 222.5 409.523V410.091H215.773V408.932H221.136C221.136 408.439 221.038 408 220.841 407.614C220.648 407.227 220.371 406.922 220.011 406.699C219.655 406.475 219.235 406.364 218.75 406.364C218.216 406.364 217.754 406.496 217.364 406.761C216.977 407.023 216.68 407.364 216.472 407.784C216.263 408.205 216.159 408.655 216.159 409.136V409.909C216.159 410.568 216.273 411.127 216.5 411.585C216.731 412.04 217.051 412.386 217.46 412.625C217.869 412.86 218.345 412.977 218.886 412.977C219.239 412.977 219.557 412.928 219.841 412.83C220.129 412.727 220.377 412.576 220.585 412.375C220.794 412.17 220.955 411.917 221.068 411.614L222.364 411.977C222.227 412.417 221.998 412.803 221.676 413.136C221.354 413.466 220.956 413.723 220.483 413.909C220.009 414.091 219.477 414.182 218.886 414.182ZM228.199 414.182C227.358 414.182 226.633 413.996 226.023 413.625C225.417 413.25 224.949 412.727 224.619 412.057C224.294 411.383 224.131 410.598 224.131 409.705C224.131 408.811 224.294 408.023 224.619 407.341C224.949 406.655 225.407 406.121 225.994 405.739C226.585 405.352 227.275 405.159 228.062 405.159C228.517 405.159 228.966 405.235 229.409 405.386C229.852 405.538 230.256 405.784 230.619 406.125C230.983 406.462 231.273 406.909 231.489 407.466C231.705 408.023 231.812 408.708 231.812 409.523V410.091H225.085V408.932H230.449C230.449 408.439 230.35 408 230.153 407.614C229.96 407.227 229.684 406.922 229.324 406.699C228.968 406.475 228.547 406.364 228.062 406.364C227.528 406.364 227.066 406.496 226.676 406.761C226.29 407.023 225.992 407.364 225.784 407.784C225.576 408.205 225.472 408.655 225.472 409.136V409.909C225.472 410.568 225.585 411.127 225.812 411.585C226.044 412.04 226.364 412.386 226.773 412.625C227.182 412.86 227.657 412.977 228.199 412.977C228.551 412.977 228.869 412.928 229.153 412.83C229.441 412.727 229.689 412.576 229.898 412.375C230.106 412.17 230.267 411.917 230.381 411.614L231.676 411.977C231.54 412.417 231.311 412.803 230.989 413.136C230.667 413.466 230.269 413.723 229.795 413.909C229.322 414.091 228.79 414.182 228.199 414.182ZM241.898 414.182C241.08 414.182 240.375 413.989 239.784 413.602C239.193 413.216 238.739 412.684 238.42 412.006C238.102 411.328 237.943 410.553 237.943 409.682C237.943 408.795 238.106 408.013 238.432 407.335C238.761 406.653 239.22 406.121 239.807 405.739C240.398 405.352 241.087 405.159 241.875 405.159C242.489 405.159 243.042 405.273 243.534 405.5C244.027 405.727 244.43 406.045 244.744 406.455C245.059 406.864 245.254 407.341 245.33 407.886H243.989C243.886 407.489 243.659 407.136 243.307 406.83C242.958 406.519 242.489 406.364 241.898 406.364C241.375 406.364 240.917 406.5 240.523 406.773C240.133 407.042 239.828 407.422 239.608 407.915C239.392 408.403 239.284 408.977 239.284 409.636C239.284 410.311 239.39 410.898 239.602 411.398C239.818 411.898 240.121 412.286 240.511 412.562C240.905 412.839 241.367 412.977 241.898 412.977C242.246 412.977 242.562 412.917 242.847 412.795C243.131 412.674 243.371 412.5 243.568 412.273C243.765 412.045 243.905 411.773 243.989 411.455H245.33C245.254 411.97 245.066 412.434 244.767 412.847C244.472 413.256 244.08 413.581 243.591 413.824C243.106 414.062 242.542 414.182 241.898 414.182ZM250.835 414.182C250.047 414.182 249.356 413.994 248.761 413.619C248.17 413.244 247.708 412.72 247.375 412.045C247.045 411.371 246.881 410.583 246.881 409.682C246.881 408.773 247.045 407.979 247.375 407.301C247.708 406.623 248.17 406.097 248.761 405.722C249.356 405.347 250.047 405.159 250.835 405.159C251.623 405.159 252.313 405.347 252.903 405.722C253.498 406.097 253.96 406.623 254.29 407.301C254.623 407.979 254.79 408.773 254.79 409.682C254.79 410.583 254.623 411.371 254.29 412.045C253.96 412.72 253.498 413.244 252.903 413.619C252.313 413.994 251.623 414.182 250.835 414.182ZM250.835 412.977C251.434 412.977 251.926 412.824 252.312 412.517C252.699 412.21 252.985 411.807 253.17 411.307C253.356 410.807 253.449 410.265 253.449 409.682C253.449 409.098 253.356 408.555 253.17 408.051C252.985 407.547 252.699 407.14 252.312 406.83C251.926 406.519 251.434 406.364 250.835 406.364C250.237 406.364 249.744 406.519 249.358 406.83C248.972 407.14 248.686 407.547 248.5 408.051C248.314 408.555 248.222 409.098 248.222 409.682C248.222 410.265 248.314 410.807 248.5 411.307C248.686 411.807 248.972 412.21 249.358 412.517C249.744 412.824 250.237 412.977 250.835 412.977ZM258.178 402.364V414H256.837V402.364H258.178ZM261.974 402.364V414H260.634V402.364H261.974ZM268.089 414.182C267.249 414.182 266.523 413.996 265.913 413.625C265.307 413.25 264.839 412.727 264.51 412.057C264.184 411.383 264.021 410.598 264.021 409.705C264.021 408.811 264.184 408.023 264.51 407.341C264.839 406.655 265.298 406.121 265.885 405.739C266.476 405.352 267.165 405.159 267.953 405.159C268.408 405.159 268.857 405.235 269.3 405.386C269.743 405.538 270.146 405.784 270.51 406.125C270.874 406.462 271.163 406.909 271.379 407.466C271.595 408.023 271.703 408.708 271.703 409.523V410.091H264.976V408.932H270.339C270.339 408.439 270.241 408 270.044 407.614C269.851 407.227 269.574 406.922 269.214 406.699C268.858 406.475 268.438 406.364 267.953 406.364C267.419 406.364 266.957 406.496 266.567 406.761C266.18 407.023 265.883 407.364 265.675 407.784C265.466 408.205 265.362 408.655 265.362 409.136V409.909C265.362 410.568 265.476 411.127 265.703 411.585C265.934 412.04 266.254 412.386 266.663 412.625C267.072 412.86 267.548 412.977 268.089 412.977C268.442 412.977 268.76 412.928 269.044 412.83C269.332 412.727 269.58 412.576 269.788 412.375C269.997 412.17 270.158 411.917 270.271 411.614L271.567 411.977C271.43 412.417 271.201 412.803 270.879 413.136C270.557 413.466 270.16 413.723 269.686 413.909C269.213 414.091 268.68 414.182 268.089 414.182ZM277.288 414.182C276.47 414.182 275.766 413.989 275.175 413.602C274.584 413.216 274.129 412.684 273.811 412.006C273.493 411.328 273.334 410.553 273.334 409.682C273.334 408.795 273.497 408.013 273.822 407.335C274.152 406.653 274.61 406.121 275.197 405.739C275.788 405.352 276.478 405.159 277.266 405.159C277.879 405.159 278.432 405.273 278.925 405.5C279.417 405.727 279.821 406.045 280.135 406.455C280.449 406.864 280.644 407.341 280.72 407.886H279.379C279.277 407.489 279.05 407.136 278.697 406.83C278.349 406.519 277.879 406.364 277.288 406.364C276.766 406.364 276.307 406.5 275.913 406.773C275.523 407.042 275.218 407.422 274.999 407.915C274.783 408.403 274.675 408.977 274.675 409.636C274.675 410.311 274.781 410.898 274.993 411.398C275.209 411.898 275.512 412.286 275.902 412.562C276.296 412.839 276.758 412.977 277.288 412.977C277.637 412.977 277.953 412.917 278.237 412.795C278.521 412.674 278.762 412.5 278.959 412.273C279.156 412.045 279.296 411.773 279.379 411.455H280.72C280.644 411.97 280.457 412.434 280.158 412.847C279.862 413.256 279.47 413.581 278.982 413.824C278.497 414.062 277.932 414.182 277.288 414.182ZM286.476 405.273V406.409H281.953V405.273H286.476ZM283.271 403.182H284.612V411.5C284.612 411.879 284.667 412.163 284.777 412.352C284.891 412.538 285.035 412.663 285.209 412.727C285.387 412.788 285.574 412.818 285.771 412.818C285.919 412.818 286.04 412.811 286.135 412.795C286.23 412.777 286.305 412.761 286.362 412.75L286.635 413.955C286.544 413.989 286.417 414.023 286.254 414.057C286.091 414.095 285.885 414.114 285.635 414.114C285.256 414.114 284.885 414.032 284.521 413.869C284.161 413.706 283.862 413.458 283.624 413.125C283.389 412.792 283.271 412.371 283.271 411.864V403.182ZM288.493 414V405.273H289.834V414H288.493ZM289.175 403.818C288.913 403.818 288.688 403.729 288.499 403.551C288.313 403.373 288.22 403.159 288.22 402.909C288.22 402.659 288.313 402.445 288.499 402.267C288.688 402.089 288.913 402 289.175 402C289.436 402 289.66 402.089 289.845 402.267C290.035 402.445 290.129 402.659 290.129 402.909C290.129 403.159 290.035 403.373 289.845 403.551C289.66 403.729 289.436 403.818 289.175 403.818ZM292.472 414V402.364H293.812V406.659H293.926C294.025 406.508 294.161 406.314 294.335 406.08C294.513 405.841 294.767 405.629 295.097 405.443C295.43 405.254 295.881 405.159 296.449 405.159C297.184 405.159 297.831 405.343 298.392 405.71C298.953 406.078 299.39 406.598 299.705 407.273C300.019 407.947 300.176 408.742 300.176 409.659C300.176 410.583 300.019 411.384 299.705 412.062C299.39 412.737 298.955 413.259 298.398 413.631C297.841 413.998 297.199 414.182 296.472 414.182C295.911 414.182 295.462 414.089 295.125 413.903C294.788 413.714 294.528 413.5 294.347 413.261C294.165 413.019 294.025 412.818 293.926 412.659H293.767V414H292.472ZM293.79 409.636C293.79 410.295 293.886 410.877 294.08 411.381C294.273 411.881 294.555 412.273 294.926 412.557C295.297 412.837 295.752 412.977 296.29 412.977C296.85 412.977 297.318 412.83 297.693 412.534C298.072 412.235 298.356 411.833 298.545 411.33C298.739 410.822 298.835 410.258 298.835 409.636C298.835 409.023 298.741 408.47 298.551 407.977C298.366 407.481 298.083 407.089 297.705 406.801C297.33 406.509 296.858 406.364 296.29 406.364C295.744 406.364 295.286 406.502 294.915 406.778C294.544 407.051 294.263 407.434 294.074 407.926C293.884 408.415 293.79 408.985 293.79 409.636ZM303.568 402.364V414H302.227V402.364H303.568ZM309.683 414.182C308.842 414.182 308.117 413.996 307.507 413.625C306.901 413.25 306.433 412.727 306.104 412.057C305.778 411.383 305.615 410.598 305.615 409.705C305.615 408.811 305.778 408.023 306.104 407.341C306.433 406.655 306.892 406.121 307.479 405.739C308.07 405.352 308.759 405.159 309.547 405.159C310.001 405.159 310.45 405.235 310.893 405.386C311.337 405.538 311.74 405.784 312.104 406.125C312.467 406.462 312.757 406.909 312.973 407.466C313.189 408.023 313.297 408.708 313.297 409.523V410.091H306.57V408.932H311.933C311.933 408.439 311.835 408 311.638 407.614C311.445 407.227 311.168 406.922 310.808 406.699C310.452 406.475 310.032 406.364 309.547 406.364C309.013 406.364 308.551 406.496 308.161 406.761C307.774 407.023 307.477 407.364 307.268 407.784C307.06 408.205 306.956 408.655 306.956 409.136V409.909C306.956 410.568 307.07 411.127 307.297 411.585C307.528 412.04 307.848 412.386 308.257 412.625C308.666 412.86 309.142 412.977 309.683 412.977C310.036 412.977 310.354 412.928 310.638 412.83C310.926 412.727 311.174 412.576 311.382 412.375C311.59 412.17 311.751 411.917 311.865 411.614L313.161 411.977C313.024 412.417 312.795 412.803 312.473 413.136C312.151 413.466 311.753 413.723 311.28 413.909C310.806 414.091 310.274 414.182 309.683 414.182ZM317.109 402.364L316.996 410.727H315.678L315.564 402.364H317.109ZM316.337 414.091C316.056 414.091 315.816 413.991 315.615 413.79C315.414 413.589 315.314 413.348 315.314 413.068C315.314 412.788 315.414 412.547 315.615 412.347C315.816 412.146 316.056 412.045 316.337 412.045C316.617 412.045 316.857 412.146 317.058 412.347C317.259 412.547 317.359 412.788 317.359 413.068C317.359 413.254 317.312 413.424 317.217 413.58C317.126 413.735 317.003 413.86 316.848 413.955C316.696 414.045 316.526 414.091 316.337 414.091Z" fill="#18171A"/>
<rect x="102.5" y="300.5" width="303" height="135" rx="15.5" stroke="#EDEDF3"/>
<path d="M192.105 609.762H193.375C193.337 608.364 192.101 607.35 190.328 607.35C188.577 607.35 187.234 608.351 187.234 609.855C187.234 611.07 188.104 611.781 189.506 612.161L190.537 612.442C191.47 612.689 192.19 612.996 192.19 613.771C192.19 614.624 191.376 615.186 190.256 615.186C189.241 615.186 188.398 614.735 188.321 613.784H187C187.085 615.365 188.308 616.341 190.264 616.341C192.314 616.341 193.494 615.263 193.494 613.784C193.494 612.212 192.092 611.602 190.984 611.33L190.132 611.108C189.45 610.933 188.543 610.614 188.547 609.779C188.547 609.037 189.224 608.487 190.298 608.487C191.3 608.487 192.011 608.956 192.105 609.762Z" fill="#B6B4BA"/>
<path d="M197.787 616.328C199.214 616.328 200.224 615.625 200.514 614.56L199.308 614.343C199.078 614.96 198.524 615.276 197.799 615.276C196.708 615.276 195.975 614.568 195.941 613.307H200.595V612.855C200.595 610.49 199.18 609.566 197.697 609.566C195.873 609.566 194.672 610.955 194.672 612.966C194.672 614.999 195.856 616.328 197.787 616.328ZM195.946 612.352C195.997 611.423 196.67 610.618 197.706 610.618C198.694 610.618 199.342 611.351 199.346 612.352H195.946Z" fill="#B6B4BA"/>
<path d="M204.766 616.328C206.312 616.328 207.314 615.399 207.455 614.125H206.214C206.053 614.833 205.503 615.25 204.774 615.25C203.696 615.25 203.001 614.351 203.001 612.923C203.001 611.521 203.709 610.639 204.774 610.639C205.584 610.639 206.078 611.151 206.214 611.764H207.455C207.318 610.443 206.24 609.566 204.753 609.566C202.908 609.566 201.714 610.955 201.714 612.953C201.714 614.926 202.865 616.328 204.766 616.328Z" fill="#B6B4BA"/>
<path d="M212.963 613.482C212.968 614.594 212.141 615.122 211.425 615.122C210.637 615.122 210.091 614.551 210.091 613.661V609.651H208.817V613.814C208.817 615.438 209.708 616.281 210.965 616.281C211.949 616.281 212.618 615.762 212.921 615.063H212.989V616.196H214.242V609.651H212.963V613.482Z" fill="#B6B4BA"/>
<path d="M215.954 616.196H217.228V612.199C217.228 611.343 217.888 610.725 218.792 610.725C219.056 610.725 219.354 610.771 219.457 610.801V609.583C219.329 609.566 219.077 609.553 218.915 609.553C218.148 609.553 217.492 609.987 217.254 610.691H217.185V609.651H215.954V616.196Z" fill="#B6B4BA"/>
<path d="M223.146 616.328C224.574 616.328 225.583 615.625 225.873 614.56L224.667 614.343C224.437 614.96 223.883 615.276 223.159 615.276C222.068 615.276 221.335 614.568 221.301 613.307H225.954V612.855C225.954 610.49 224.539 609.566 223.056 609.566C221.233 609.566 220.031 610.955 220.031 612.966C220.031 614.999 221.216 616.328 223.146 616.328ZM221.305 612.352C221.356 611.423 222.029 610.618 223.065 610.618C224.054 610.618 224.701 611.351 224.706 612.352H221.305Z" fill="#B6B4BA"/>
<path d="M229.818 616.324C231.011 616.324 231.48 615.595 231.71 615.178H231.817V616.196H233.061V607.469H231.787V610.712H231.71C231.48 610.307 231.045 609.566 229.827 609.566C228.246 609.566 227.082 610.814 227.082 612.936C227.082 615.054 228.229 616.324 229.818 616.324ZM230.099 615.237C228.962 615.237 228.369 614.236 228.369 612.923C228.369 611.624 228.949 610.648 230.099 610.648C231.212 610.648 231.808 611.556 231.808 612.923C231.808 614.3 231.199 615.237 230.099 615.237Z" fill="#B6B4BA"/>
<path d="M238.158 616.196H239.402V615.178H239.509C239.739 615.595 240.207 616.324 241.401 616.324C242.986 616.324 244.136 615.054 244.136 612.936C244.136 610.814 242.969 609.566 241.388 609.566C240.173 609.566 239.734 610.307 239.509 610.712H239.432V607.469H238.158V616.196ZM239.406 612.923C239.406 611.556 240.003 610.648 241.115 610.648C242.27 610.648 242.849 611.624 242.849 612.923C242.849 614.236 242.253 615.237 241.115 615.237C240.02 615.237 239.406 614.3 239.406 612.923Z" fill="#B6B4BA"/>
<path d="M246.138 618.651C247.191 618.651 247.855 618.101 248.235 617.07L250.941 609.664L249.564 609.651L247.907 614.73H247.838L246.181 609.651H244.817L247.212 616.281L247.054 616.716C246.73 617.585 246.275 617.658 245.576 617.466L245.269 618.51C245.422 618.578 245.755 618.651 246.138 618.651Z" fill="#B6B4BA"/>
<path fill-rule="evenodd" clip-rule="evenodd" d="M315.869 608.472C316.574 608.472 317.145 607.901 317.145 607.196C317.145 606.491 316.574 605.92 315.869 605.92C315.164 605.92 314.593 606.491 314.593 607.196C314.593 607.901 315.164 608.472 315.869 608.472ZM285.246 607.036H287.878L290.657 613.672H290.775L293.554 607.036H296.186V616.912H294.116V610.484H294.032L291.421 616.864H290.011L287.4 610.46H287.316V616.912H285.246V607.036ZM300.185 617.052C299.462 617.052 298.862 616.867 298.386 616.498C297.91 616.128 297.672 615.576 297.672 614.844C297.672 614.291 297.805 613.857 298.071 613.542C298.337 613.226 298.685 612.997 299.115 612.852C299.549 612.704 300.016 612.608 300.515 612.563C301.172 612.498 301.642 612.431 301.924 612.36C302.207 612.289 302.348 612.135 302.348 611.897V611.868C302.348 611.563 302.249 611.327 302.052 611.159C301.859 610.992 301.583 610.909 301.224 610.909C300.847 610.909 300.546 610.989 300.323 611.15C300.099 611.31 299.951 611.515 299.879 611.762L297.938 611.608C298.082 610.933 298.44 610.397 299.012 610.002C299.587 609.607 300.328 609.409 301.234 609.409C301.796 609.409 302.322 609.496 302.811 609.669C303.301 609.843 303.695 610.115 303.994 610.484C304.296 610.851 304.447 611.328 304.447 611.916V616.912H302.456V615.885H302.397C302.213 616.229 301.937 616.51 301.569 616.729C301.205 616.944 300.743 617.052 300.185 617.052ZM300.786 615.634C301.246 615.634 301.624 615.504 301.919 615.244C302.215 614.98 302.363 614.654 302.363 614.265V613.479C302.281 613.533 302.153 613.582 301.978 613.624C301.808 613.665 301.624 613.702 301.427 613.734C301.233 613.763 301.059 613.789 300.904 613.812C300.536 613.863 300.239 613.964 300.012 614.115C299.789 614.266 299.677 614.487 299.677 614.776C299.677 615.059 299.781 615.273 299.988 615.417C300.198 615.562 300.464 615.634 300.786 615.634ZM307.086 619.208C307.668 619.6 308.468 619.796 309.486 619.796C310.209 619.796 310.848 619.69 311.403 619.478C311.958 619.265 312.393 618.95 312.709 618.532C313.027 618.115 313.187 617.599 313.187 616.985V609.505H311.102V610.749H311.023C310.931 610.547 310.797 610.343 310.619 610.137C310.442 609.931 310.21 609.759 309.925 609.621C309.639 609.48 309.284 609.409 308.86 609.409C308.308 609.409 307.799 609.55 307.332 609.833C306.869 610.113 306.496 610.532 306.214 611.092C305.935 611.651 305.795 612.352 305.795 613.194C305.795 614.014 305.931 614.691 306.204 615.224C306.48 615.758 306.85 616.155 307.313 616.416C307.779 616.676 308.297 616.806 308.865 616.806C309.47 616.806 309.946 616.682 310.294 616.435C310.642 616.184 310.885 615.906 311.023 615.601H311.112V616.956C311.112 617.441 310.963 617.79 310.664 618.002C310.368 618.214 309.992 618.32 309.535 618.32C309.072 618.32 308.716 618.237 308.466 618.07C308.22 617.906 308.054 617.724 307.968 617.525L306.027 617.78C306.151 618.34 306.505 618.815 307.086 619.208ZM310.703 614.713C310.427 615.08 310.036 615.263 309.53 615.263C309.015 615.263 308.62 615.077 308.348 614.704C308.075 614.331 307.939 613.824 307.939 613.185C307.939 612.555 308.073 612.04 308.343 611.642C308.615 611.243 309.011 611.044 309.53 611.044C310.039 611.044 310.432 611.238 310.708 611.627C310.984 612.016 311.122 612.535 311.122 613.185C311.122 613.837 310.982 614.347 310.703 614.713ZM314.857 616.912V609.505H316.956V616.912H314.857ZM320.057 616.575C320.616 616.896 321.283 617.057 322.058 617.057C322.731 617.057 323.315 616.938 323.807 616.7C324.3 616.459 324.686 616.123 324.965 615.692C325.248 615.261 325.406 614.763 325.438 614.197H323.457C323.395 614.593 323.241 614.898 322.994 615.114C322.748 615.326 322.444 615.432 322.083 615.432C321.593 615.432 321.201 615.239 320.905 614.853C320.612 614.464 320.466 613.916 320.466 613.209C320.466 612.508 320.614 611.966 320.91 611.584C321.205 611.201 321.596 611.01 322.083 611.01C322.467 611.01 322.777 611.124 323.014 611.352C323.254 611.577 323.402 611.875 323.457 612.244H325.438C325.409 611.672 325.25 611.174 324.96 610.749C324.675 610.325 324.282 609.996 323.783 609.761C323.287 609.526 322.708 609.409 322.048 609.409C321.283 609.409 320.622 609.571 320.067 609.896C319.512 610.217 319.083 610.666 318.781 611.241C318.482 611.814 318.333 612.479 318.333 613.238C318.333 613.987 318.48 614.649 318.776 615.224C319.075 615.8 319.502 616.25 320.057 616.575Z" fill="#B6B4BA"/>
<path fill-rule="evenodd" clip-rule="evenodd" d="M268.894 600C269.932 601.272 271.078 602.453 272.317 603.53C271.491 606.207 271.047 609.052 271.047 612C271.047 614.948 271.491 617.793 272.317 620.47C271.078 621.547 269.932 622.728 268.894 624C267.855 622.728 266.71 621.547 265.471 620.47C266.296 617.792 266.741 614.948 266.741 612C266.741 609.052 266.296 606.208 265.471 603.53C266.71 602.453 267.855 601.272 268.894 600ZM263.103 618.619C261.792 617.7 260.4 616.887 258.941 616.195C259.346 614.868 259.563 613.459 259.563 612C259.563 610.541 259.346 609.132 258.941 607.805C260.4 607.113 261.792 606.3 263.103 605.381C263.605 607.506 263.87 609.722 263.87 612C263.87 614.278 263.605 616.494 263.103 618.619ZM273.918 612C273.918 614.278 274.183 616.494 274.684 618.619C275.996 617.7 277.387 616.887 278.847 616.195C278.442 614.868 278.224 613.459 278.224 612C278.224 610.541 278.442 609.132 278.847 607.805C277.387 607.113 275.996 606.3 274.684 605.381C274.183 607.506 273.918 609.722 273.918 612Z" fill="#B6B4BA"/>
<rect x="102" y="460" width="144" height="48" rx="24" fill="#F8F8FA"/>
<path d="M158.249 482.29H156.124C156.063 481.941 155.951 481.633 155.788 481.364C155.625 481.091 155.423 480.86 155.18 480.67C154.938 480.481 154.661 480.339 154.351 480.244C154.044 480.146 153.713 480.097 153.357 480.097C152.724 480.097 152.163 480.256 151.675 480.574C151.186 480.888 150.804 481.35 150.527 481.96C150.25 482.566 150.112 483.307 150.112 484.182C150.112 485.072 150.25 485.822 150.527 486.432C150.807 487.038 151.19 487.496 151.675 487.807C152.163 488.114 152.722 488.267 153.351 488.267C153.699 488.267 154.025 488.222 154.328 488.131C154.635 488.036 154.91 487.898 155.152 487.716C155.398 487.534 155.605 487.311 155.771 487.045C155.942 486.78 156.059 486.477 156.124 486.136L158.249 486.148C158.169 486.701 157.997 487.22 157.732 487.705C157.47 488.189 157.127 488.617 156.703 488.989C156.279 489.356 155.783 489.644 155.214 489.852C154.646 490.057 154.016 490.159 153.322 490.159C152.3 490.159 151.387 489.922 150.584 489.449C149.781 488.975 149.148 488.292 148.686 487.398C148.224 486.504 147.993 485.432 147.993 484.182C147.993 482.928 148.226 481.856 148.692 480.966C149.158 480.072 149.792 479.388 150.595 478.915C151.398 478.441 152.307 478.205 153.322 478.205C153.97 478.205 154.572 478.295 155.129 478.477C155.686 478.659 156.182 478.926 156.618 479.278C157.054 479.627 157.411 480.055 157.692 480.562C157.976 481.066 158.161 481.642 158.249 482.29ZM162.599 490.176C162.046 490.176 161.548 490.078 161.105 489.881C160.666 489.68 160.317 489.384 160.06 488.994C159.806 488.604 159.679 488.123 159.679 487.551C159.679 487.059 159.77 486.652 159.952 486.33C160.134 486.008 160.382 485.75 160.696 485.557C161.01 485.364 161.365 485.218 161.759 485.119C162.156 485.017 162.567 484.943 162.991 484.898C163.503 484.845 163.918 484.797 164.236 484.756C164.554 484.71 164.785 484.642 164.929 484.551C165.077 484.456 165.151 484.311 165.151 484.114V484.08C165.151 483.652 165.024 483.32 164.77 483.085C164.516 482.85 164.151 482.733 163.673 482.733C163.17 482.733 162.77 482.843 162.474 483.062C162.183 483.282 161.986 483.542 161.884 483.841L159.963 483.568C160.115 483.038 160.365 482.595 160.713 482.239C161.062 481.879 161.488 481.61 161.991 481.432C162.495 481.25 163.052 481.159 163.662 481.159C164.082 481.159 164.501 481.208 164.918 481.307C165.334 481.405 165.715 481.568 166.06 481.795C166.404 482.019 166.681 482.324 166.889 482.71C167.101 483.097 167.207 483.58 167.207 484.159V490H165.23V488.801H165.162C165.037 489.044 164.861 489.271 164.634 489.483C164.41 489.691 164.128 489.86 163.787 489.989C163.45 490.114 163.054 490.176 162.599 490.176ZM163.134 488.665C163.546 488.665 163.904 488.583 164.207 488.42C164.51 488.254 164.743 488.034 164.906 487.761C165.073 487.489 165.156 487.191 165.156 486.869V485.841C165.092 485.894 164.982 485.943 164.827 485.989C164.675 486.034 164.505 486.074 164.315 486.108C164.126 486.142 163.938 486.172 163.753 486.199C163.567 486.225 163.406 486.248 163.27 486.267C162.963 486.309 162.688 486.377 162.446 486.472C162.204 486.566 162.012 486.699 161.872 486.869C161.732 487.036 161.662 487.252 161.662 487.517C161.662 487.896 161.8 488.182 162.077 488.375C162.353 488.568 162.705 488.665 163.134 488.665ZM171.332 484.886V490H169.276V481.273H171.241V482.756H171.344C171.545 482.267 171.865 481.879 172.304 481.591C172.747 481.303 173.295 481.159 173.946 481.159C174.548 481.159 175.073 481.288 175.52 481.545C175.971 481.803 176.319 482.176 176.565 482.665C176.815 483.153 176.938 483.746 176.935 484.443V490H174.878V484.761C174.878 484.178 174.726 483.722 174.423 483.392C174.124 483.062 173.709 482.898 173.179 482.898C172.819 482.898 172.499 482.977 172.219 483.136C171.942 483.292 171.724 483.517 171.565 483.812C171.41 484.108 171.332 484.466 171.332 484.886ZM182.832 490.17C181.961 490.17 181.213 489.979 180.588 489.597C179.967 489.214 179.488 488.686 179.151 488.011C178.817 487.333 178.651 486.553 178.651 485.67C178.651 484.784 178.821 484.002 179.162 483.324C179.503 482.642 179.984 482.112 180.605 481.733C181.23 481.35 181.969 481.159 182.821 481.159C183.529 481.159 184.156 481.29 184.702 481.551C185.251 481.809 185.688 482.174 186.014 482.648C186.34 483.117 186.526 483.667 186.571 484.295H184.605C184.526 483.875 184.336 483.525 184.037 483.244C183.741 482.96 183.346 482.818 182.849 482.818C182.429 482.818 182.06 482.932 181.741 483.159C181.423 483.383 181.175 483.705 180.997 484.125C180.823 484.545 180.736 485.049 180.736 485.636C180.736 486.231 180.823 486.742 180.997 487.17C181.171 487.595 181.416 487.922 181.73 488.153C182.048 488.381 182.421 488.494 182.849 488.494C183.152 488.494 183.423 488.437 183.662 488.324C183.904 488.206 184.107 488.038 184.27 487.818C184.433 487.598 184.545 487.331 184.605 487.017H186.571C186.522 487.634 186.34 488.182 186.026 488.659C185.711 489.133 185.283 489.504 184.741 489.773C184.2 490.038 183.563 490.17 182.832 490.17ZM192.124 490.17C191.249 490.17 190.493 489.989 189.857 489.625C189.224 489.258 188.737 488.739 188.396 488.068C188.055 487.394 187.885 486.6 187.885 485.688C187.885 484.79 188.055 484.002 188.396 483.324C188.741 482.642 189.222 482.112 189.839 481.733C190.457 481.35 191.182 481.159 192.016 481.159C192.554 481.159 193.061 481.246 193.538 481.42C194.019 481.591 194.444 481.856 194.811 482.216C195.182 482.576 195.474 483.034 195.686 483.591C195.898 484.144 196.004 484.803 196.004 485.568V486.199H188.851V484.812H194.033C194.029 484.419 193.944 484.068 193.777 483.761C193.61 483.451 193.377 483.206 193.078 483.028C192.783 482.85 192.438 482.761 192.044 482.761C191.624 482.761 191.254 482.864 190.936 483.068C190.618 483.269 190.37 483.534 190.192 483.864C190.018 484.189 189.929 484.547 189.925 484.938V486.148C189.925 486.655 190.018 487.091 190.203 487.455C190.389 487.814 190.648 488.091 190.982 488.284C191.315 488.473 191.705 488.568 192.152 488.568C192.451 488.568 192.722 488.527 192.964 488.443C193.207 488.356 193.417 488.229 193.595 488.062C193.773 487.896 193.908 487.689 193.999 487.443L195.919 487.659C195.798 488.167 195.567 488.61 195.226 488.989C194.889 489.364 194.457 489.655 193.93 489.864C193.404 490.068 192.802 490.17 192.124 490.17ZM199.801 478.364V490H197.744V478.364H199.801Z" fill="#4E4D52"/>
<rect x="262" y="460" width="144" height="48" rx="24" fill="#6851FF"/>
<path d="M313.967 482.29H311.842C311.782 481.941 311.67 481.633 311.507 481.364C311.344 481.091 311.142 480.86 310.899 480.67C310.657 480.481 310.38 480.339 310.07 480.244C309.763 480.146 309.431 480.097 309.075 480.097C308.443 480.097 307.882 480.256 307.393 480.574C306.905 480.888 306.522 481.35 306.246 481.96C305.969 482.566 305.831 483.307 305.831 484.182C305.831 485.072 305.969 485.822 306.246 486.432C306.526 487.038 306.909 487.496 307.393 487.807C307.882 488.114 308.441 488.267 309.07 488.267C309.418 488.267 309.744 488.222 310.047 488.131C310.354 488.036 310.628 487.898 310.871 487.716C311.117 487.534 311.323 487.311 311.49 487.045C311.661 486.78 311.778 486.477 311.842 486.136L313.967 486.148C313.888 486.701 313.715 487.22 313.45 487.705C313.189 488.189 312.846 488.617 312.422 488.989C311.998 489.356 311.501 489.644 310.933 489.852C310.365 490.057 309.734 490.159 309.041 490.159C308.018 490.159 307.106 489.922 306.303 489.449C305.5 488.975 304.867 488.292 304.405 487.398C303.943 486.504 303.712 485.432 303.712 484.182C303.712 482.928 303.945 481.856 304.411 480.966C304.876 480.072 305.511 479.388 306.314 478.915C307.117 478.441 308.026 478.205 309.041 478.205C309.689 478.205 310.291 478.295 310.848 478.477C311.405 478.659 311.901 478.926 312.337 479.278C312.772 479.627 313.13 480.055 313.411 480.562C313.695 481.066 313.88 481.642 313.967 482.29ZM319.614 490.17C318.761 490.17 318.023 489.983 317.398 489.608C316.773 489.233 316.288 488.708 315.943 488.034C315.602 487.36 315.432 486.572 315.432 485.67C315.432 484.769 315.602 483.979 315.943 483.301C316.288 482.623 316.773 482.097 317.398 481.722C318.023 481.347 318.761 481.159 319.614 481.159C320.466 481.159 321.205 481.347 321.83 481.722C322.455 482.097 322.938 482.623 323.278 483.301C323.623 483.979 323.795 484.769 323.795 485.67C323.795 486.572 323.623 487.36 323.278 488.034C322.938 488.708 322.455 489.233 321.83 489.608C321.205 489.983 320.466 490.17 319.614 490.17ZM319.625 488.523C320.087 488.523 320.473 488.396 320.784 488.142C321.095 487.884 321.326 487.54 321.477 487.108C321.633 486.676 321.71 486.195 321.71 485.665C321.71 485.131 321.633 484.648 321.477 484.216C321.326 483.78 321.095 483.434 320.784 483.176C320.473 482.919 320.087 482.79 319.625 482.79C319.152 482.79 318.758 482.919 318.443 483.176C318.133 483.434 317.9 483.78 317.744 484.216C317.593 484.648 317.517 485.131 317.517 485.665C317.517 486.195 317.593 486.676 317.744 487.108C317.9 487.54 318.133 487.884 318.443 488.142C318.758 488.396 319.152 488.523 319.625 488.523ZM327.598 484.886V490H325.541V481.273H327.507V482.756H327.609C327.81 482.267 328.13 481.879 328.57 481.591C329.013 481.303 329.56 481.159 330.212 481.159C330.814 481.159 331.339 481.288 331.786 481.545C332.236 481.803 332.585 482.176 332.831 482.665C333.081 483.153 333.204 483.746 333.2 484.443V490H331.143V484.761C331.143 484.178 330.992 483.722 330.689 483.392C330.39 483.062 329.975 482.898 329.445 482.898C329.085 482.898 328.765 482.977 328.484 483.136C328.208 483.292 327.99 483.517 327.831 483.812C327.676 484.108 327.598 484.466 327.598 484.886ZM339.712 481.273V482.864H334.553V481.273H339.712ZM335.842 490V480.449C335.842 479.862 335.964 479.373 336.206 478.983C336.452 478.593 336.782 478.301 337.195 478.108C337.607 477.915 338.066 477.818 338.57 477.818C338.926 477.818 339.242 477.847 339.518 477.903C339.795 477.96 340 478.011 340.132 478.057L339.723 479.648C339.636 479.621 339.526 479.595 339.393 479.568C339.261 479.538 339.113 479.523 338.95 479.523C338.568 479.523 338.297 479.616 338.138 479.801C337.982 479.983 337.905 480.244 337.905 480.585V490H335.842ZM341.322 490V481.273H343.379V490H341.322ZM342.357 480.034C342.031 480.034 341.75 479.926 341.516 479.71C341.281 479.491 341.163 479.227 341.163 478.92C341.163 478.61 341.281 478.347 341.516 478.131C341.75 477.911 342.031 477.801 342.357 477.801C342.686 477.801 342.966 477.911 343.197 478.131C343.432 478.347 343.55 478.61 343.55 478.92C343.55 479.227 343.432 479.491 343.197 479.71C342.966 479.926 342.686 480.034 342.357 480.034ZM345.494 490V481.273H347.489V482.727H347.58C347.739 482.223 348.011 481.835 348.398 481.562C348.788 481.286 349.233 481.148 349.733 481.148C349.847 481.148 349.973 481.153 350.114 481.165C350.258 481.172 350.377 481.186 350.472 481.205V483.097C350.384 483.066 350.246 483.04 350.057 483.017C349.871 482.991 349.691 482.977 349.517 482.977C349.142 482.977 348.805 483.059 348.506 483.222C348.21 483.381 347.977 483.602 347.807 483.886C347.636 484.17 347.551 484.498 347.551 484.869V490H345.494ZM351.838 490V481.273H353.804V482.756H353.906C354.088 482.256 354.389 481.866 354.81 481.585C355.23 481.301 355.732 481.159 356.315 481.159C356.906 481.159 357.404 481.303 357.81 481.591C358.219 481.875 358.507 482.263 358.673 482.756H358.764C358.957 482.271 359.283 481.884 359.741 481.597C360.204 481.305 360.751 481.159 361.384 481.159C362.187 481.159 362.842 481.413 363.349 481.92C363.857 482.428 364.111 483.169 364.111 484.142V490H362.048V484.46C362.048 483.919 361.904 483.523 361.616 483.273C361.329 483.019 360.976 482.892 360.56 482.892C360.063 482.892 359.675 483.047 359.395 483.358C359.118 483.665 358.98 484.064 358.98 484.557V490H356.963V484.375C356.963 483.924 356.827 483.564 356.554 483.295C356.285 483.027 355.933 482.892 355.497 482.892C355.202 482.892 354.933 482.968 354.69 483.119C354.448 483.267 354.255 483.477 354.111 483.75C353.967 484.019 353.895 484.333 353.895 484.693V490H351.838Z" fill="white"/>
<path d="M56 72C56 56.536 68.536 44 84 44H428C443.464 44 456 56.536 456 72V108H56V72Z" fill="white"/>
<g style="mix-blend-mode:multiply">
<rect x="114" y="60" width="284" height="32" fill="white"/>
</g>
<rect x="408" y="60" width="32" height="32" rx="16" fill="#F5F5F7"/>
<path d="M424 75.0419L427.987 71.0234C428.182 70.8268 428.5 70.8261 428.696 71.022L428.979 71.3051C429.175 71.5009 429.174 71.8185 428.977 72.0136L424.959 76.0004L428.963 80.0045C429.158 80.1998 429.158 80.5163 428.963 80.7116L428.696 80.9788C428.5 81.1746 428.182 81.174 427.987 80.9774L424 76.9589L419.996 80.963C419.801 81.1583 419.484 81.1583 419.289 80.963L419.038 80.7115C418.842 80.5163 418.842 80.1997 419.038 80.0044L423.042 76.0004L419.023 72.0136C418.827 71.8186 418.826 71.5009 419.022 71.3051L419.289 71.0379C419.485 70.8427 419.801 70.8427 419.996 71.0379L424 75.0419Z" fill="#4E4D52"/>
<rect x="212" y="60" width="88" height="32" rx="16" fill="white"/>
<path d="M225.233 81V70.8182H231.378V71.9119H226.466V75.3523H231.06V76.446H226.466V79.9062H231.457V81H225.233ZM236.762 73.3636V74.358H232.805V73.3636H236.762ZM233.958 71.5341H235.131V78.8125C235.131 79.1439 235.179 79.3925 235.276 79.5582C235.375 79.7206 235.501 79.83 235.653 79.8864C235.809 79.9394 235.973 79.9659 236.146 79.9659C236.275 79.9659 236.381 79.9593 236.464 79.946C236.547 79.9295 236.613 79.9162 236.663 79.9062L236.901 80.9602C236.822 80.9901 236.711 81.0199 236.568 81.0497C236.426 81.0829 236.245 81.0994 236.026 81.0994C235.695 81.0994 235.37 81.0282 235.052 80.8857C234.737 80.7431 234.475 80.526 234.266 80.2344C234.061 79.9427 233.958 79.5748 233.958 79.1307V71.5341ZM239.864 76.4062V81H238.691V70.8182H239.864V74.5568H239.964C240.143 74.1624 240.411 73.8492 240.769 73.6172C241.13 73.3819 241.611 73.2642 242.211 73.2642C242.731 73.2642 243.187 73.3686 243.578 73.5774C243.969 73.7829 244.272 74.0994 244.488 74.527C244.707 74.9512 244.816 75.4915 244.816 76.1477V81H243.643V76.2273C243.643 75.6207 243.485 75.1518 243.17 74.8203C242.859 74.4856 242.426 74.3182 241.873 74.3182C241.488 74.3182 241.144 74.3994 240.839 74.5618C240.537 74.7242 240.299 74.9612 240.123 75.2727C239.951 75.5843 239.864 75.9621 239.864 76.4062ZM250.164 81.1591C249.428 81.1591 248.794 80.9967 248.26 80.6719C247.73 80.3438 247.32 79.8864 247.032 79.2997C246.747 78.7098 246.605 78.0237 246.605 77.2415C246.605 76.4593 246.747 75.7699 247.032 75.1733C247.32 74.5734 247.722 74.1061 248.235 73.7713C248.752 73.4332 249.356 73.2642 250.045 73.2642C250.443 73.2642 250.835 73.3305 251.223 73.4631C251.611 73.5956 251.964 73.8111 252.282 74.1094C252.6 74.4044 252.854 74.7955 253.043 75.2827C253.232 75.7699 253.326 76.3698 253.326 77.0824V77.5795H247.44V76.5653H252.133C252.133 76.1345 252.047 75.75 251.874 75.4119C251.705 75.0739 251.463 74.8071 251.149 74.6115C250.837 74.416 250.469 74.3182 250.045 74.3182C249.578 74.3182 249.173 74.4342 248.832 74.6662C248.494 74.8949 248.234 75.1932 248.051 75.5611C247.869 75.929 247.778 76.3234 247.778 76.7443V77.4205C247.778 77.9972 247.877 78.486 248.076 78.8871C248.278 79.2848 248.558 79.5881 248.916 79.7969C249.274 80.0024 249.69 80.1051 250.164 80.1051C250.472 80.1051 250.751 80.062 250.999 79.9759C251.251 79.8864 251.468 79.7538 251.651 79.5781C251.833 79.3991 251.974 79.1771 252.073 78.9119L253.207 79.2301C253.088 79.6146 252.887 79.9527 252.605 80.2443C252.324 80.5327 251.976 80.758 251.561 80.9205C251.147 81.0795 250.681 81.1591 250.164 81.1591ZM255.111 81V73.3636H256.244V74.517H256.324C256.463 74.1392 256.715 73.8326 257.08 73.5973C257.444 73.362 257.855 73.2443 258.313 73.2443C258.399 73.2443 258.507 73.246 258.636 73.2493C258.765 73.2526 258.863 73.2576 258.929 73.2642V74.4574C258.889 74.4474 258.798 74.4325 258.656 74.4126C258.517 74.3894 258.369 74.3778 258.213 74.3778C257.842 74.3778 257.511 74.4557 257.219 74.6115C256.931 74.764 256.702 74.9761 256.533 75.2479C256.367 75.5163 256.284 75.8229 256.284 76.1676V81H255.111ZM263.289 81.1591C262.553 81.1591 261.919 80.9967 261.385 80.6719C260.855 80.3438 260.445 79.8864 260.157 79.2997C259.872 78.7098 259.73 78.0237 259.73 77.2415C259.73 76.4593 259.872 75.7699 260.157 75.1733C260.445 74.5734 260.847 74.1061 261.36 73.7713C261.877 73.4332 262.481 73.2642 263.17 73.2642C263.568 73.2642 263.96 73.3305 264.348 73.4631C264.736 73.5956 265.089 73.8111 265.407 74.1094C265.725 74.4044 265.979 74.7955 266.168 75.2827C266.357 75.7699 266.451 76.3698 266.451 77.0824V77.5795H260.565V76.5653H265.258C265.258 76.1345 265.172 75.75 264.999 75.4119C264.83 75.0739 264.588 74.8071 264.274 74.6115C263.962 74.416 263.594 74.3182 263.17 74.3182C262.703 74.3182 262.298 74.4342 261.957 74.6662C261.619 74.8949 261.359 75.1932 261.176 75.5611C260.994 75.929 260.903 76.3234 260.903 76.7443V77.4205C260.903 77.9972 261.002 78.486 261.201 78.8871C261.403 79.2848 261.683 79.5881 262.041 79.7969C262.399 80.0024 262.815 80.1051 263.289 80.1051C263.597 80.1051 263.876 80.062 264.124 79.9759C264.376 79.8864 264.593 79.7538 264.776 79.5781C264.958 79.3991 265.099 79.1771 265.198 78.9119L266.332 79.2301C266.213 79.6146 266.012 79.9527 265.73 80.2443C265.449 80.5327 265.101 80.758 264.686 80.9205C264.272 81.0795 263.806 81.1591 263.289 81.1591ZM273.048 77.8778V73.3636H274.222V81H273.048V79.7074H272.969C272.79 80.0952 272.512 80.425 272.134 80.6967C271.756 80.9652 271.279 81.0994 270.702 81.0994C270.225 81.0994 269.8 80.995 269.429 80.7862C269.058 80.5741 268.766 80.2559 268.554 79.8317C268.342 79.4041 268.236 78.8655 268.236 78.2159V73.3636H269.409V78.1364C269.409 78.6932 269.565 79.1373 269.877 79.4688C270.191 79.8002 270.593 79.9659 271.08 79.9659C271.371 79.9659 271.668 79.8913 271.97 79.7422C272.275 79.593 272.53 79.3643 272.735 79.0561C272.944 78.7479 273.048 78.3551 273.048 77.8778ZM276.371 81V73.3636H277.504V74.5568H277.604C277.763 74.1491 278.02 73.8326 278.374 73.6072C278.729 73.3786 279.155 73.2642 279.652 73.2642C280.156 73.2642 280.575 73.3786 280.91 73.6072C281.248 73.8326 281.511 74.1491 281.7 74.5568H281.78C281.975 74.1624 282.269 73.8492 282.66 73.6172C283.051 73.3819 283.52 73.2642 284.067 73.2642C284.75 73.2642 285.308 73.478 285.742 73.9055C286.176 74.3298 286.393 74.991 286.393 75.8892V81H285.22V75.8892C285.22 75.3258 285.066 74.9231 284.758 74.6811C284.45 74.4392 284.087 74.3182 283.669 74.3182C283.132 74.3182 282.716 74.4806 282.421 74.8054C282.126 75.1269 281.979 75.5346 281.979 76.0284V81H280.786V75.7699C280.786 75.3357 280.645 74.986 280.363 74.7209C280.081 74.4524 279.718 74.3182 279.274 74.3182C278.969 74.3182 278.684 74.3994 278.419 74.5618C278.157 74.7242 277.945 74.9496 277.783 75.2379C277.624 75.523 277.544 75.8527 277.544 76.2273V81H276.371Z" fill="#77767A"/>
<mask id="path-23-inside-1_2432_59659" fill="white">
<path d="M56 108H456V156H56V108Z"/>
</mask>
<path d="M56 108H456V156H56V108Z" fill="white"/>
<path fill-rule="evenodd" clip-rule="evenodd" d="M75.397 125.793L75.3591 125.799H75.3473C75.2597 125.816 75.1733 125.837 75.0886 125.863C73.6704 126.264 73.252 127.575 73.252 128.375V132.262L75.3418 131.344L78.252 128.043C78.252 128.043 78.9746 127.125 78.252 127.125C77.5895 127.125 77.5179 126.321 78.0823 126.187H88.2302C88.3762 126.187 88.522 126.196 88.6669 126.215C88.6178 125.87 88.4994 125.539 88.3189 125.241C88.1384 124.944 87.8994 124.686 87.6165 124.483C87.3336 124.28 87.0125 124.137 86.6727 124.061C86.3329 123.986 85.9813 123.98 85.6391 124.044L75.6938 125.742C75.5954 125.758 75.4962 125.775 75.397 125.793Z" fill="url(#paint0_linear_2432_59659)"/>
<path d="M88.2295 127.125H75.7295C75.0667 127.126 74.4312 127.389 73.9625 127.858C73.4938 128.327 73.2302 128.962 73.2295 129.625V137.125C73.2302 137.788 73.4938 138.423 73.9625 138.892C74.4312 139.361 75.0667 139.624 75.7295 139.625H88.2295C88.8923 139.624 89.5278 139.361 89.9965 138.892C90.4651 138.423 90.7288 137.788 90.7295 137.125V129.625C90.7288 128.962 90.4651 128.327 89.9965 127.858C89.5278 127.389 88.8923 127.126 88.2295 127.125Z" fill="url(#paint1_linear_2432_59659)"/>
<path d="M85.6825 134.414C85.8881 134.552 86.1297 134.625 86.377 134.625C86.7085 134.625 87.0264 134.493 87.2608 134.259C87.4953 134.024 87.627 133.707 87.627 133.375C87.627 133.128 87.5536 132.886 87.4163 132.681C87.2789 132.475 87.0837 132.315 86.8553 132.22C86.6269 132.126 86.3756 132.101 86.1331 132.149C85.8906 132.197 85.6679 132.316 85.4931 132.491C85.3183 132.666 85.1992 132.889 85.151 133.131C85.1027 133.374 85.1275 133.625 85.2221 133.853C85.3167 134.082 85.4769 134.277 85.6825 134.414Z" fill="url(#paint2_linear_2432_59659)"/>
<path d="M104.524 137.169C103.739 137.166 103.067 136.959 102.511 136.548C101.954 136.137 101.528 135.538 101.233 134.753C100.938 133.967 100.79 133.021 100.79 131.914C100.79 130.81 100.938 129.867 101.233 129.085C101.531 128.303 101.959 127.706 102.516 127.295C103.076 126.884 103.745 126.679 104.524 126.679C105.303 126.679 105.971 126.886 106.528 127.3C107.085 127.711 107.51 128.308 107.805 129.09C108.104 129.869 108.253 130.81 108.253 131.914C108.253 133.024 108.105 133.972 107.81 134.758C107.515 135.54 107.089 136.138 106.533 136.553C105.976 136.964 105.306 137.169 104.524 137.169ZM104.524 135.842C105.214 135.842 105.752 135.505 106.14 134.832C106.531 134.16 106.727 133.187 106.727 131.914C106.727 131.069 106.637 130.355 106.458 129.771C106.282 129.185 106.029 128.741 105.697 128.439C105.369 128.134 104.978 127.982 104.524 127.982C103.838 127.982 103.299 128.32 102.908 128.996C102.517 129.672 102.32 130.645 102.317 131.914C102.317 132.763 102.405 133.48 102.58 134.067C102.759 134.65 103.013 135.093 103.341 135.394C103.669 135.692 104.063 135.842 104.524 135.842ZM116.087 135.31L110.369 129.592L111.309 128.653L117.026 134.37L116.087 135.31ZM111.309 135.31L110.369 134.37L116.087 128.653L117.026 129.592L111.309 135.31ZM122.726 126.679C123.18 126.682 123.628 126.765 124.069 126.928C124.51 127.09 124.907 127.355 125.262 127.723C125.62 128.091 125.905 128.588 126.117 129.214C126.332 129.838 126.442 130.613 126.445 131.541C126.445 132.433 126.356 133.227 126.177 133.923C125.998 134.615 125.741 135.2 125.406 135.678C125.075 136.155 124.672 136.518 124.198 136.766C123.724 137.015 123.19 137.139 122.597 137.139C121.991 137.139 121.452 137.02 120.981 136.781C120.511 136.543 120.128 136.213 119.833 135.792C119.538 135.368 119.354 134.88 119.281 134.33H120.797C120.897 134.768 121.099 135.122 121.404 135.394C121.712 135.663 122.11 135.797 122.597 135.797C123.343 135.797 123.925 135.472 124.342 134.822C124.76 134.17 124.97 133.258 124.974 132.088H124.894C124.722 132.373 124.506 132.618 124.248 132.824C123.992 133.029 123.706 133.188 123.388 133.301C123.069 133.414 122.73 133.47 122.368 133.47C121.782 133.47 121.248 133.326 120.768 133.038C120.287 132.749 119.904 132.353 119.619 131.849C119.334 131.346 119.192 130.771 119.192 130.124C119.192 129.481 119.337 128.898 119.629 128.374C119.924 127.851 120.335 127.436 120.862 127.131C121.392 126.823 122.014 126.672 122.726 126.679ZM122.731 127.972C122.344 127.972 121.994 128.068 121.682 128.26C121.374 128.449 121.131 128.706 120.952 129.031C120.773 129.352 120.683 129.71 120.683 130.104C120.683 130.499 120.769 130.857 120.942 131.178C121.117 131.496 121.356 131.75 121.657 131.939C121.962 132.125 122.31 132.217 122.702 132.217C122.993 132.217 123.265 132.161 123.517 132.048C123.769 131.936 123.989 131.78 124.178 131.581C124.367 131.379 124.515 131.15 124.621 130.895C124.727 130.64 124.78 130.371 124.78 130.089C124.78 129.715 124.69 129.367 124.511 129.045C124.336 128.724 124.094 128.465 123.785 128.27C123.477 128.071 123.126 127.972 122.731 127.972ZM128.38 137V126.818H129.867V130.602H129.956C130.042 130.442 130.167 130.259 130.329 130.05C130.492 129.841 130.717 129.659 131.005 129.503C131.294 129.344 131.675 129.264 132.149 129.264C132.765 129.264 133.315 129.42 133.799 129.732C134.283 130.043 134.663 130.492 134.938 131.079C135.216 131.665 135.355 132.371 135.355 133.197C135.355 134.022 135.218 134.73 134.943 135.32C134.668 135.906 134.29 136.359 133.809 136.677C133.329 136.992 132.78 137.149 132.164 137.149C131.7 137.149 131.32 137.071 131.025 136.915C130.734 136.76 130.505 136.577 130.339 136.369C130.173 136.16 130.046 135.974 129.956 135.812H129.832V137H128.38ZM129.837 133.182C129.837 133.719 129.915 134.189 130.071 134.594C130.226 134.998 130.452 135.315 130.747 135.543C131.042 135.769 131.403 135.881 131.831 135.881C132.275 135.881 132.646 135.764 132.944 135.528C133.243 135.29 133.468 134.967 133.62 134.559C133.776 134.151 133.854 133.692 133.854 133.182C133.854 132.678 133.778 132.226 133.625 131.825C133.476 131.424 133.251 131.107 132.949 130.875C132.651 130.643 132.278 130.527 131.831 130.527C131.4 130.527 131.035 130.638 130.737 130.86C130.442 131.082 130.218 131.392 130.066 131.79C129.913 132.187 129.837 132.652 129.837 133.182ZM138.004 137.094C137.732 137.094 137.499 136.998 137.303 136.806C137.108 136.611 137.01 136.375 137.01 136.1C137.01 135.828 137.108 135.596 137.303 135.404C137.499 135.209 137.732 135.111 138.004 135.111C138.276 135.111 138.51 135.209 138.705 135.404C138.901 135.596 138.998 135.828 138.998 136.1C138.998 136.282 138.952 136.45 138.859 136.602C138.77 136.751 138.65 136.871 138.501 136.96C138.352 137.05 138.186 137.094 138.004 137.094ZM141.969 137.094C141.697 137.094 141.463 136.998 141.268 136.806C141.072 136.611 140.975 136.375 140.975 136.1C140.975 135.828 141.072 135.596 141.268 135.404C141.463 135.209 141.697 135.111 141.969 135.111C142.241 135.111 142.474 135.209 142.67 135.404C142.865 135.596 142.963 135.828 142.963 136.1C142.963 136.282 142.917 136.45 142.824 136.602C142.735 136.751 142.615 136.871 142.466 136.96C142.317 137.05 142.151 137.094 141.969 137.094ZM145.934 137.094C145.662 137.094 145.428 136.998 145.233 136.806C145.037 136.611 144.939 136.375 144.939 136.1C144.939 135.828 145.037 135.596 145.233 135.404C145.428 135.209 145.662 135.111 145.934 135.111C146.206 135.111 146.439 135.209 146.635 135.404C146.83 135.596 146.928 135.828 146.928 136.1C146.928 136.282 146.882 136.45 146.789 136.602C146.699 136.751 146.58 136.871 146.431 136.96C146.282 137.05 146.116 137.094 145.934 137.094ZM152.075 137.139C151.392 137.139 150.782 137.022 150.245 136.786C149.712 136.551 149.289 136.224 148.978 135.807C148.669 135.386 148.504 134.899 148.48 134.345H150.042C150.061 134.647 150.163 134.909 150.345 135.131C150.53 135.349 150.772 135.518 151.071 135.638C151.369 135.757 151.7 135.817 152.065 135.817C152.466 135.817 152.821 135.747 153.129 135.608C153.44 135.469 153.684 135.275 153.86 135.026C154.035 134.774 154.123 134.484 154.123 134.156C154.123 133.815 154.035 133.515 153.86 133.256C153.687 132.995 153.434 132.789 153.099 132.64C152.768 132.491 152.367 132.416 151.896 132.416H151.036V131.163H151.896C152.274 131.163 152.605 131.095 152.89 130.96C153.179 130.824 153.404 130.635 153.566 130.393C153.729 130.147 153.81 129.861 153.81 129.533C153.81 129.218 153.739 128.944 153.596 128.712C153.457 128.477 153.258 128.293 153 128.161C152.744 128.028 152.443 127.962 152.095 127.962C151.763 127.962 151.453 128.023 151.165 128.146C150.88 128.265 150.648 128.437 150.469 128.663C150.29 128.885 150.194 129.152 150.181 129.463H148.694C148.711 128.913 148.873 128.429 149.181 128.011C149.493 127.594 149.904 127.267 150.414 127.032C150.925 126.797 151.492 126.679 152.115 126.679C152.768 126.679 153.331 126.807 153.805 127.062C154.282 127.314 154.65 127.65 154.909 128.071C155.171 128.492 155.3 128.953 155.297 129.453C155.3 130.023 155.141 130.507 154.819 130.905C154.501 131.303 154.077 131.569 153.547 131.705V131.785C154.223 131.888 154.746 132.156 155.118 132.59C155.492 133.024 155.678 133.563 155.674 134.206C155.678 134.766 155.522 135.268 155.207 135.712C154.895 136.156 154.47 136.506 153.929 136.761C153.389 137.013 152.771 137.139 152.075 137.139ZM161.417 126.818V137H159.875V128.359H159.816L157.38 129.95V128.479L159.92 126.818H161.417ZM168.034 126.818V137H166.493V128.359H166.433L163.997 129.95V128.479L166.537 126.818H168.034ZM174.174 126.679C174.628 126.682 175.075 126.765 175.516 126.928C175.957 127.09 176.355 127.355 176.709 127.723C177.067 128.091 177.352 128.588 177.564 129.214C177.78 129.838 177.889 130.613 177.892 131.541C177.892 132.433 177.803 133.227 177.624 133.923C177.445 134.615 177.188 135.2 176.853 135.678C176.522 136.155 176.119 136.518 175.645 136.766C175.171 137.015 174.638 137.139 174.044 137.139C173.438 137.139 172.899 137.02 172.429 136.781C171.958 136.543 171.575 136.213 171.28 135.792C170.985 135.368 170.801 134.88 170.728 134.33H172.245C172.344 134.768 172.546 135.122 172.851 135.394C173.159 135.663 173.557 135.797 174.044 135.797C174.79 135.797 175.372 135.472 175.789 134.822C176.207 134.17 176.417 133.258 176.421 132.088H176.341C176.169 132.373 175.953 132.618 175.695 132.824C175.44 133.029 175.153 133.188 174.835 133.301C174.517 133.414 174.177 133.47 173.816 133.47C173.229 133.47 172.695 133.326 172.215 133.038C171.734 132.749 171.351 132.353 171.066 131.849C170.781 131.346 170.639 130.771 170.639 130.124C170.639 129.481 170.785 128.898 171.076 128.374C171.371 127.851 171.782 127.436 172.309 127.131C172.84 126.823 173.461 126.672 174.174 126.679ZM174.179 127.972C173.791 127.972 173.441 128.068 173.13 128.26C172.821 128.449 172.578 128.706 172.399 129.031C172.22 129.352 172.13 129.71 172.13 130.104C172.13 130.499 172.217 130.857 172.389 131.178C172.565 131.496 172.803 131.75 173.105 131.939C173.41 132.125 173.758 132.217 174.149 132.217C174.44 132.217 174.712 132.161 174.964 132.048C175.216 131.936 175.436 131.78 175.625 131.581C175.814 131.379 175.962 131.15 176.068 130.895C176.174 130.64 176.227 130.371 176.227 130.089C176.227 129.715 176.137 129.367 175.958 129.045C175.783 128.724 175.541 128.465 175.233 128.27C174.924 128.071 174.573 127.972 174.179 127.972Z" fill="#4E4D52"/>
<path d="M369.453 137.139C368.704 137.139 368.066 136.935 367.539 136.528C367.012 136.117 366.609 135.522 366.331 134.743C366.053 133.961 365.913 133.016 365.913 131.909C365.913 130.809 366.053 129.869 366.331 129.09C366.613 128.308 367.017 127.711 367.544 127.3C368.074 126.886 368.711 126.679 369.453 126.679C370.196 126.679 370.83 126.886 371.357 127.3C371.888 127.711 372.292 128.308 372.57 129.09C372.852 129.869 372.993 130.809 372.993 131.909C372.993 133.016 372.854 133.961 372.575 134.743C372.297 135.522 371.894 136.117 371.367 136.528C370.84 136.935 370.202 137.139 369.453 137.139ZM369.453 136.045C370.196 136.045 370.772 135.687 371.183 134.972C371.594 134.256 371.8 133.235 371.8 131.909C371.8 131.027 371.705 130.277 371.516 129.657C371.331 129.037 371.062 128.565 370.711 128.24C370.363 127.915 369.944 127.753 369.453 127.753C368.717 127.753 368.142 128.116 367.728 128.842C367.314 129.564 367.107 130.587 367.107 131.909C367.107 132.791 367.199 133.54 367.385 134.156C367.571 134.773 367.837 135.242 368.185 135.563C368.537 135.885 368.959 136.045 369.453 136.045ZM375.402 137.08C375.156 137.08 374.946 136.992 374.77 136.816C374.595 136.64 374.507 136.43 374.507 136.185C374.507 135.939 374.595 135.729 374.77 135.553C374.946 135.378 375.156 135.29 375.402 135.29C375.647 135.29 375.857 135.378 376.033 135.553C376.209 135.729 376.297 135.939 376.297 136.185C376.297 136.347 376.255 136.496 376.172 136.632C376.093 136.768 375.985 136.877 375.849 136.96C375.717 137.04 375.567 137.08 375.402 137.08ZM380.745 126.818V137H379.512V128.111H379.452L376.966 129.761V128.509L379.512 126.818H380.745ZM383.673 137V136.105L387.034 132.426C387.428 131.995 387.753 131.621 388.008 131.303C388.264 130.981 388.452 130.679 388.575 130.398C388.701 130.113 388.764 129.814 388.764 129.503C388.764 129.145 388.678 128.835 388.506 128.573C388.336 128.311 388.104 128.109 387.809 127.967C387.515 127.824 387.183 127.753 386.815 127.753C386.424 127.753 386.083 127.834 385.791 127.996C385.503 128.156 385.279 128.379 385.12 128.668C384.964 128.956 384.886 129.294 384.886 129.682H383.713C383.713 129.085 383.85 128.562 384.126 128.111C384.401 127.66 384.775 127.309 385.249 127.057C385.726 126.805 386.262 126.679 386.855 126.679C387.452 126.679 387.98 126.805 388.441 127.057C388.902 127.309 389.263 127.648 389.525 128.076C389.787 128.504 389.917 128.979 389.917 129.503C389.917 129.877 389.849 130.244 389.714 130.602C389.581 130.956 389.349 131.352 389.018 131.79C388.689 132.224 388.234 132.754 387.65 133.381L385.363 135.827V135.906H390.096V137H383.673ZM395.331 137.139C394.748 137.139 394.223 137.023 393.756 136.791C393.288 136.559 392.914 136.241 392.632 135.837C392.35 135.432 392.196 134.972 392.17 134.455H393.363C393.409 134.915 393.618 135.296 393.989 135.598C394.364 135.896 394.811 136.045 395.331 136.045C395.749 136.045 396.12 135.948 396.445 135.752C396.773 135.557 397.03 135.288 397.216 134.947C397.405 134.602 397.499 134.213 397.499 133.778C397.499 133.334 397.401 132.938 397.206 132.59C397.014 132.239 396.748 131.962 396.41 131.76C396.072 131.558 395.686 131.455 395.252 131.452C394.94 131.448 394.621 131.496 394.292 131.596C393.964 131.692 393.694 131.816 393.482 131.969L392.329 131.83L392.945 126.818H398.235V127.912H393.979L393.621 130.915H393.681C393.89 130.749 394.152 130.612 394.466 130.502C394.781 130.393 395.109 130.338 395.451 130.338C396.074 130.338 396.629 130.487 397.116 130.786C397.607 131.08 397.991 131.485 398.27 131.999C398.551 132.512 398.692 133.099 398.692 133.759C398.692 134.408 398.546 134.988 398.255 135.499C397.966 136.006 397.569 136.407 397.062 136.702C396.555 136.993 395.978 137.139 395.331 137.139ZM404.048 137.139C403.63 137.133 403.213 137.053 402.795 136.901C402.377 136.748 401.996 136.491 401.652 136.13C401.307 135.765 401.03 135.273 400.821 134.653C400.613 134.03 400.508 133.248 400.508 132.307C400.508 131.405 400.593 130.607 400.762 129.911C400.931 129.211 401.176 128.623 401.498 128.146C401.819 127.665 402.207 127.3 402.661 127.052C403.118 126.803 403.634 126.679 404.207 126.679C404.777 126.679 405.284 126.793 405.728 127.022C406.176 127.247 406.54 127.562 406.822 127.967C407.104 128.371 407.286 128.837 407.369 129.364H406.156C406.043 128.906 405.824 128.527 405.5 128.225C405.175 127.924 404.744 127.773 404.207 127.773C403.418 127.773 402.797 128.116 402.343 128.802C401.892 129.488 401.665 130.451 401.662 131.69H401.741C401.927 131.409 402.147 131.168 402.402 130.969C402.661 130.767 402.946 130.612 403.257 130.502C403.569 130.393 403.899 130.338 404.247 130.338C404.83 130.338 405.364 130.484 405.848 130.776C406.332 131.064 406.719 131.463 407.011 131.974C407.303 132.481 407.449 133.062 407.449 133.719C407.449 134.348 407.308 134.925 407.026 135.449C406.744 135.969 406.348 136.384 405.838 136.692C405.331 136.997 404.734 137.146 404.048 137.139ZM404.048 136.045C404.466 136.045 404.84 135.941 405.172 135.732C405.506 135.523 405.77 135.243 405.962 134.892C406.158 134.541 406.255 134.15 406.255 133.719C406.255 133.298 406.161 132.915 405.972 132.57C405.786 132.222 405.529 131.946 405.201 131.74C404.877 131.535 404.505 131.432 404.088 131.432C403.773 131.432 403.48 131.495 403.208 131.621C402.936 131.743 402.697 131.912 402.492 132.128C402.29 132.343 402.131 132.59 402.015 132.869C401.899 133.144 401.841 133.434 401.841 133.739C401.841 134.143 401.935 134.521 402.124 134.872C402.316 135.223 402.578 135.507 402.909 135.722C403.244 135.938 403.624 136.045 404.048 136.045ZM413.52 137V126.818H419.665V127.912H414.753V131.352H419.347V132.446H414.753V135.906H419.744V137H413.52ZM421.33 127.912V126.818H428.967V127.912H425.765V137H424.532V127.912H421.33ZM430.87 137V126.818H432.103V131.352H437.532V126.818H438.765V137H437.532V132.446H432.103V137H430.87Z" fill="#4E4D52"/>
<path d="M56 109H456V107H56V109ZM456 155H56V157H456V155Z" fill="#EDEDF3" mask="url(#path-23-inside-1_2432_59659)"/>
<g clip-path="url(#clip0_2432_59659)">
<path d="M280 204C280 217.254 269.254 228 256 228C242.746 228 232 217.254 232 204C232 190.746 242.746 180 256 180C269.257 180 280 190.746 280 204Z" fill="url(#paint3_linear_2432_59659)"/>
<path d="M248 195H257C261.971 195 266 199.029 266 204C266 208.971 261.971 213 257 213H248V195Z" stroke="#F9FAFB" stroke-width="4"/>
</g>
</g>
<defs>
<filter id="filter0_d_2432_59659" x="0" y="0" width="512" height="732" filterUnits="userSpaceOnUse" color-interpolation-filters="sRGB">
<feFlood flood-opacity="0" result="BackgroundImageFix"/>
<feColorMatrix in="SourceAlpha" type="matrix" values="0 0 0 0 0 0 0 0 0 0 0 0 0 0 0 0 0 0 127 0" result="hardAlpha"/>
<feOffset dy="12"/>
<feGaussianBlur stdDeviation="28"/>
<feColorMatrix type="matrix" values="0 0 0 0 0.466667 0 0 0 0 0.462745 0 0 0 0 0.478431 0 0 0 0.15 0"/>
<feBlend mode="multiply" in2="BackgroundImageFix" result="effect1_dropShadow_2432_59659"/>
<feBlend mode="normal" in="SourceGraphic" in2="effect1_dropShadow_2432_59659" result="shape"/>
</filter>
<linearGradient id="paint0_linear_2432_59659" x1="80.9594" y1="124.125" x2="80.9594" y2="132.125" gradientUnits="userSpaceOnUse">
<stop stop-color="#6851FF"/>
<stop offset="1" stop-color="#EDEBFF"/>
</linearGradient>
<linearGradient id="paint1_linear_2432_59659" x1="73.499" y1="127.125" x2="79.999" y2="139.625" gradientUnits="userSpaceOnUse">
<stop stop-color="#A799FF"/>
<stop offset="1" stop-color="#6851FF"/>
</linearGradient>
<linearGradient id="paint2_linear_2432_59659" x1="86.502" y1="132.125" x2="86.502" y2="134.625" gradientUnits="userSpaceOnUse">
<stop stop-color="white"/>
<stop offset="1" stop-color="white" stop-opacity="0"/>
</linearGradient>
<linearGradient id="paint3_linear_2432_59659" x1="232" y1="180" x2="286.392" y2="196.044" gradientUnits="userSpaceOnUse">
<stop stop-color="#522FD4"/>
<stop offset="1" stop-color="#6BDCFF"/>
</linearGradient>
<clipPath id="clip0_2432_59659">
<rect width="48" height="48" fill="white" transform="translate(232 180)"/>
</clipPath>
</defs>
</svg>
