<svg width="512" height="672" viewBox="0 0 512 672" fill="none" xmlns="http://www.w3.org/2000/svg">
<g filter="url(#filter0_d_2432_59536)">
<rect x="56" y="44" width="400" height="560" rx="28" fill="white"/>
<rect x="104" y="232" width="304" height="56" rx="12" fill="#F8F8FA"/>
<path d="M121.519 265.684H123.342V256.18H120.608C120.271 256.18 120 255.934 120 255.627V254.109C120 253.874 120.162 253.673 120.388 253.593L129.984 249.053C131 248.499 131.5 248.5 132.505 249.053L142.139 253.61C142.279 253.675 142.487 253.886 142.487 254.109V255.627C142.487 255.934 142.216 256.181 141.881 256.181H139.144V265.684H140.968C141.303 265.684 141.576 265.931 141.576 266.236V268.446C141.576 268.751 141.303 269 140.968 269H121.519C121.184 269 120.911 268.751 120.911 268.446V266.236C120.911 265.931 121.184 265.684 121.519 265.684ZM126.989 256.18V265.684H129.421V256.18H126.989ZM133.068 256.18V265.684H135.497V256.18H133.068Z" fill="#6851FF"/>
<path d="M140.693 259.173C140.677 259.167 140.66 259.162 140.644 259.157C140.358 259.071 140.053 259.081 139.772 259.184C139.477 259.293 139.235 259.497 139.073 259.749L139.073 259.749L135.502 265.305L135.502 265.305C135.363 265.522 135.285 265.769 135.27 266.02C135.255 266.271 135.303 266.525 135.413 266.755C135.523 266.986 135.695 267.189 135.917 267.336C136.14 267.483 136.403 267.565 136.677 267.565C136.678 267.565 136.678 267.565 136.678 267.565H137.818V269.443C137.818 269.735 137.903 270.026 138.07 270.275C138.238 270.524 138.484 270.722 138.783 270.825C139.083 270.928 139.408 270.923 139.706 270.813C140.001 270.704 140.242 270.5 140.404 270.248C140.404 270.247 140.404 270.247 140.404 270.247L143.975 264.693L143.975 264.692C144.114 264.476 144.192 264.228 144.207 263.977C144.222 263.726 144.174 263.472 144.064 263.242C143.954 263.012 143.782 262.808 143.56 262.661C143.337 262.514 143.074 262.432 142.799 262.432C142.799 262.432 142.799 262.432 142.799 262.432H141.659V260.554C141.659 260.554 141.659 260.554 141.659 260.554C141.659 260.262 141.574 259.971 141.406 259.723C141.238 259.473 140.992 259.275 140.693 259.173Z" fill="#6851FF" stroke="#F8F8FA" stroke-width="1.8" stroke-linejoin="round"/>
<path d="M159.036 254.364V266H157.28V254.364H159.036ZM163.155 260.818V266H161.456V257.273H163.087V258.693H163.195C163.396 258.231 163.71 257.86 164.138 257.58C164.57 257.299 165.114 257.159 165.769 257.159C166.364 257.159 166.885 257.284 167.331 257.534C167.778 257.78 168.125 258.148 168.371 258.636C168.617 259.125 168.741 259.729 168.741 260.449V266H167.042V260.653C167.042 260.021 166.877 259.527 166.547 259.17C166.218 258.811 165.765 258.631 165.189 258.631C164.796 258.631 164.445 258.716 164.138 258.886C163.835 259.057 163.595 259.307 163.417 259.636C163.242 259.962 163.155 260.356 163.155 260.818ZM177.559 259.403L176.019 259.676C175.955 259.479 175.852 259.292 175.712 259.114C175.576 258.936 175.39 258.79 175.155 258.676C174.921 258.563 174.627 258.506 174.275 258.506C173.794 258.506 173.392 258.614 173.07 258.83C172.748 259.042 172.587 259.316 172.587 259.653C172.587 259.945 172.695 260.18 172.911 260.358C173.127 260.536 173.475 260.682 173.956 260.795L175.343 261.114C176.146 261.299 176.744 261.585 177.138 261.972C177.532 262.358 177.729 262.86 177.729 263.477C177.729 264 177.578 264.466 177.275 264.875C176.975 265.28 176.557 265.598 176.019 265.83C175.485 266.061 174.866 266.176 174.161 266.176C173.184 266.176 172.386 265.968 171.769 265.551C171.152 265.131 170.773 264.534 170.633 263.761L172.275 263.511C172.377 263.939 172.587 264.263 172.905 264.483C173.224 264.699 173.638 264.807 174.15 264.807C174.706 264.807 175.152 264.691 175.485 264.46C175.818 264.225 175.985 263.939 175.985 263.602C175.985 263.33 175.883 263.1 175.678 262.915C175.477 262.729 175.169 262.589 174.752 262.494L173.275 262.17C172.46 261.985 171.858 261.689 171.468 261.284C171.081 260.879 170.888 260.366 170.888 259.744C170.888 259.229 171.032 258.778 171.32 258.392C171.608 258.006 172.006 257.705 172.513 257.489C173.021 257.269 173.602 257.159 174.258 257.159C175.201 257.159 175.943 257.364 176.485 257.773C177.027 258.178 177.385 258.722 177.559 259.403ZM183.671 257.273V258.636H178.904V257.273H183.671ZM180.182 255.182H181.881V263.438C181.881 263.767 181.93 264.015 182.029 264.182C182.127 264.345 182.254 264.456 182.41 264.517C182.569 264.574 182.741 264.602 182.927 264.602C183.063 264.602 183.182 264.593 183.285 264.574C183.387 264.555 183.466 264.54 183.523 264.528L183.83 265.932C183.732 265.97 183.591 266.008 183.41 266.045C183.228 266.087 183.001 266.11 182.728 266.114C182.281 266.121 181.864 266.042 181.478 265.875C181.091 265.708 180.779 265.451 180.54 265.102C180.302 264.754 180.182 264.316 180.182 263.79V255.182ZM188.09 266.193C187.537 266.193 187.037 266.091 186.59 265.886C186.143 265.678 185.789 265.377 185.528 264.983C185.27 264.589 185.141 264.106 185.141 263.534C185.141 263.042 185.236 262.636 185.425 262.318C185.615 262 185.87 261.748 186.192 261.563C186.514 261.377 186.874 261.237 187.272 261.142C187.67 261.047 188.075 260.975 188.488 260.926C189.01 260.866 189.435 260.816 189.76 260.778C190.086 260.737 190.323 260.67 190.471 260.58C190.618 260.489 190.692 260.341 190.692 260.136V260.097C190.692 259.6 190.552 259.216 190.272 258.943C189.995 258.67 189.582 258.534 189.033 258.534C188.461 258.534 188.01 258.661 187.681 258.915C187.355 259.165 187.13 259.443 187.005 259.75L185.408 259.386C185.598 258.856 185.874 258.428 186.238 258.102C186.605 257.773 187.028 257.534 187.505 257.386C187.982 257.235 188.484 257.159 189.01 257.159C189.359 257.159 189.728 257.201 190.118 257.284C190.512 257.364 190.88 257.511 191.221 257.727C191.565 257.943 191.848 258.252 192.067 258.653C192.287 259.051 192.397 259.568 192.397 260.205V266H190.738V264.807H190.67C190.56 265.027 190.395 265.242 190.175 265.455C189.956 265.667 189.673 265.843 189.329 265.983C188.984 266.123 188.571 266.193 188.09 266.193ZM188.459 264.83C188.929 264.83 189.331 264.737 189.664 264.551C190.001 264.366 190.257 264.123 190.431 263.824C190.609 263.521 190.698 263.197 190.698 262.852V261.727C190.637 261.788 190.52 261.845 190.346 261.898C190.175 261.947 189.98 261.991 189.76 262.028C189.541 262.063 189.327 262.095 189.118 262.125C188.91 262.152 188.736 262.174 188.596 262.193C188.266 262.235 187.965 262.305 187.692 262.403C187.423 262.502 187.207 262.644 187.045 262.83C186.885 263.011 186.806 263.254 186.806 263.557C186.806 263.977 186.961 264.295 187.272 264.511C187.582 264.723 187.978 264.83 188.459 264.83ZM196.358 260.818V266H194.66V257.273H196.29V258.693H196.398C196.599 258.231 196.913 257.86 197.341 257.58C197.773 257.299 198.317 257.159 198.972 257.159C199.567 257.159 200.088 257.284 200.535 257.534C200.982 257.78 201.328 258.148 201.574 258.636C201.821 259.125 201.944 259.729 201.944 260.449V266H200.245V260.653C200.245 260.021 200.08 259.527 199.751 259.17C199.421 258.811 198.968 258.631 198.393 258.631C197.999 258.631 197.648 258.716 197.341 258.886C197.038 259.057 196.798 259.307 196.62 259.636C196.446 259.962 196.358 260.356 196.358 260.818ZM208.296 257.273V258.636H203.529V257.273H208.296ZM204.807 255.182H206.506V263.438C206.506 263.767 206.555 264.015 206.654 264.182C206.752 264.345 206.879 264.456 207.035 264.517C207.194 264.574 207.366 264.602 207.552 264.602C207.688 264.602 207.807 264.593 207.91 264.574C208.012 264.555 208.091 264.54 208.148 264.528L208.455 265.932C208.357 265.97 208.216 266.008 208.035 266.045C207.853 266.087 207.626 266.11 207.353 266.114C206.906 266.121 206.489 266.042 206.103 265.875C205.716 265.708 205.404 265.451 205.165 265.102C204.927 264.754 204.807 264.316 204.807 263.79V255.182ZM214.546 266V254.364H218.807C219.633 254.364 220.317 254.5 220.858 254.773C221.4 255.042 221.805 255.407 222.074 255.869C222.343 256.328 222.478 256.845 222.478 257.42C222.478 257.905 222.389 258.314 222.211 258.648C222.033 258.977 221.794 259.242 221.495 259.443C221.199 259.64 220.874 259.784 220.518 259.875V259.989C220.904 260.008 221.281 260.133 221.648 260.364C222.019 260.591 222.326 260.915 222.569 261.335C222.811 261.756 222.932 262.267 222.932 262.869C222.932 263.464 222.792 263.998 222.512 264.472C222.235 264.941 221.807 265.314 221.228 265.591C220.648 265.864 219.908 266 219.006 266H214.546ZM216.302 264.494H218.836C219.677 264.494 220.279 264.331 220.643 264.006C221.006 263.68 221.188 263.273 221.188 262.784C221.188 262.417 221.095 262.08 220.91 261.773C220.724 261.466 220.459 261.222 220.114 261.04C219.773 260.858 219.368 260.767 218.898 260.767H216.302V264.494ZM216.302 259.398H218.654C219.048 259.398 219.402 259.322 219.716 259.17C220.035 259.019 220.287 258.807 220.472 258.534C220.662 258.258 220.756 257.932 220.756 257.557C220.756 257.076 220.588 256.672 220.251 256.347C219.913 256.021 219.396 255.858 218.699 255.858H216.302V259.398ZM227.418 266.193C226.865 266.193 226.365 266.091 225.918 265.886C225.471 265.678 225.117 265.377 224.856 264.983C224.598 264.589 224.469 264.106 224.469 263.534C224.469 263.042 224.564 262.636 224.753 262.318C224.943 262 225.198 261.748 225.52 261.563C225.842 261.377 226.202 261.237 226.6 261.142C226.998 261.047 227.403 260.975 227.816 260.926C228.339 260.866 228.763 260.816 229.089 260.778C229.414 260.737 229.651 260.67 229.799 260.58C229.947 260.489 230.02 260.341 230.02 260.136V260.097C230.02 259.6 229.88 259.216 229.6 258.943C229.323 258.67 228.911 258.534 228.361 258.534C227.789 258.534 227.339 258.661 227.009 258.915C226.683 259.165 226.458 259.443 226.333 259.75L224.736 259.386C224.926 258.856 225.202 258.428 225.566 258.102C225.933 257.773 226.356 257.534 226.833 257.386C227.31 257.235 227.812 257.159 228.339 257.159C228.687 257.159 229.056 257.201 229.447 257.284C229.84 257.364 230.208 257.511 230.549 257.727C230.894 257.943 231.176 258.252 231.395 258.653C231.615 259.051 231.725 259.568 231.725 260.205V266H230.066V264.807H229.998C229.888 265.027 229.723 265.242 229.503 265.455C229.284 265.667 229.001 265.843 228.657 265.983C228.312 266.123 227.899 266.193 227.418 266.193ZM227.787 264.83C228.257 264.83 228.659 264.737 228.992 264.551C229.329 264.366 229.585 264.123 229.759 263.824C229.937 263.521 230.026 263.197 230.026 262.852V261.727C229.965 261.788 229.848 261.845 229.674 261.898C229.503 261.947 229.308 261.991 229.089 262.028C228.869 262.063 228.655 262.095 228.447 262.125C228.238 262.152 228.064 262.174 227.924 262.193C227.594 262.235 227.293 262.305 227.02 262.403C226.751 262.502 226.536 262.644 226.373 262.83C226.214 263.011 226.134 263.254 226.134 263.557C226.134 263.977 226.289 264.295 226.6 264.511C226.911 264.723 227.306 264.83 227.787 264.83ZM235.687 260.818V266H233.988V257.273H235.618V258.693H235.726C235.927 258.231 236.242 257.86 236.67 257.58C237.101 257.299 237.645 257.159 238.3 257.159C238.895 257.159 239.416 257.284 239.863 257.534C240.31 257.78 240.656 258.148 240.903 258.636C241.149 259.125 241.272 259.729 241.272 260.449V266H239.573V260.653C239.573 260.021 239.408 259.527 239.079 259.17C238.749 258.811 238.296 258.631 237.721 258.631C237.327 258.631 236.976 258.716 236.67 258.886C236.367 259.057 236.126 259.307 235.948 259.636C235.774 259.962 235.687 260.356 235.687 260.818ZM245.113 263.04L245.101 260.966H245.397L248.874 257.273H250.908L246.942 261.477H246.675L245.113 263.04ZM243.55 266V254.364H245.249V266H243.55ZM249.062 266L245.937 261.852L247.107 260.665L251.147 266H249.062ZM256.253 255.875V254.364H265.259V255.875H261.628V266H259.878V255.875H256.253ZM266.206 266V257.273H267.849V258.659H267.939C268.099 258.189 268.379 257.82 268.78 257.551C269.186 257.278 269.644 257.142 270.155 257.142C270.261 257.142 270.386 257.146 270.53 257.153C270.678 257.161 270.794 257.17 270.877 257.182V258.807C270.809 258.788 270.688 258.767 270.513 258.744C270.339 258.718 270.165 258.705 269.991 258.705C269.589 258.705 269.231 258.79 268.917 258.96C268.606 259.127 268.36 259.36 268.178 259.659C267.996 259.955 267.905 260.292 267.905 260.67V266H266.206ZM274.809 266.193C274.256 266.193 273.756 266.091 273.309 265.886C272.862 265.678 272.508 265.377 272.246 264.983C271.989 264.589 271.86 264.106 271.86 263.534C271.86 263.042 271.955 262.636 272.144 262.318C272.333 262 272.589 261.748 272.911 261.563C273.233 261.377 273.593 261.237 273.991 261.142C274.388 261.047 274.794 260.975 275.206 260.926C275.729 260.866 276.153 260.816 276.479 260.778C276.805 260.737 277.042 260.67 277.189 260.58C277.337 260.489 277.411 260.341 277.411 260.136V260.097C277.411 259.6 277.271 259.216 276.991 258.943C276.714 258.67 276.301 258.534 275.752 258.534C275.18 258.534 274.729 258.661 274.4 258.915C274.074 259.165 273.849 259.443 273.724 259.75L272.127 259.386C272.316 258.856 272.593 258.428 272.956 258.102C273.324 257.773 273.746 257.534 274.224 257.386C274.701 257.235 275.203 257.159 275.729 257.159C276.078 257.159 276.447 257.201 276.837 257.284C277.231 257.364 277.599 257.511 277.939 257.727C278.284 257.943 278.566 258.252 278.786 258.653C279.006 259.051 279.116 259.568 279.116 260.205V266H277.456V264.807H277.388C277.278 265.027 277.114 265.242 276.894 265.455C276.674 265.667 276.392 265.843 276.047 265.983C275.703 266.123 275.29 266.193 274.809 266.193ZM275.178 264.83C275.648 264.83 276.049 264.737 276.383 264.551C276.72 264.366 276.975 264.123 277.15 263.824C277.328 263.521 277.417 263.197 277.417 262.852V261.727C277.356 261.788 277.239 261.845 277.064 261.898C276.894 261.947 276.699 261.991 276.479 262.028C276.26 262.063 276.045 262.095 275.837 262.125C275.629 262.152 275.455 262.174 275.314 262.193C274.985 262.235 274.684 262.305 274.411 262.403C274.142 262.502 273.926 262.644 273.763 262.83C273.604 263.011 273.525 263.254 273.525 263.557C273.525 263.977 273.68 264.295 273.991 264.511C274.301 264.723 274.697 264.83 275.178 264.83ZM283.077 260.818V266H281.378V257.273H283.009V258.693H283.117C283.318 258.231 283.632 257.86 284.06 257.58C284.492 257.299 285.036 257.159 285.691 257.159C286.286 257.159 286.806 257.284 287.253 257.534C287.7 257.78 288.047 258.148 288.293 258.636C288.539 259.125 288.662 259.729 288.662 260.449V266H286.964V260.653C286.964 260.021 286.799 259.527 286.469 259.17C286.14 258.811 285.687 258.631 285.111 258.631C284.717 258.631 284.367 258.716 284.06 258.886C283.757 259.057 283.517 259.307 283.339 259.636C283.164 259.962 283.077 260.356 283.077 260.818ZM297.481 259.403L295.941 259.676C295.876 259.479 295.774 259.292 295.634 259.114C295.498 258.936 295.312 258.79 295.077 258.676C294.842 258.563 294.549 258.506 294.197 258.506C293.715 258.506 293.314 258.614 292.992 258.83C292.67 259.042 292.509 259.316 292.509 259.653C292.509 259.945 292.617 260.18 292.833 260.358C293.049 260.536 293.397 260.682 293.878 260.795L295.265 261.114C296.068 261.299 296.666 261.585 297.06 261.972C297.454 262.358 297.651 262.86 297.651 263.477C297.651 264 297.5 264.466 297.197 264.875C296.897 265.28 296.479 265.598 295.941 265.83C295.407 266.061 294.787 266.176 294.083 266.176C293.106 266.176 292.308 265.968 291.691 265.551C291.073 265.131 290.695 264.534 290.554 263.761L292.197 263.511C292.299 263.939 292.509 264.263 292.827 264.483C293.145 264.699 293.56 264.807 294.072 264.807C294.628 264.807 295.073 264.691 295.407 264.46C295.74 264.225 295.907 263.939 295.907 263.602C295.907 263.33 295.804 263.1 295.6 262.915C295.399 262.729 295.09 262.589 294.674 262.494L293.197 262.17C292.382 261.985 291.78 261.689 291.39 261.284C291.003 260.879 290.81 260.366 290.81 259.744C290.81 259.229 290.954 258.778 291.242 258.392C291.53 258.006 291.928 257.705 292.435 257.489C292.943 257.269 293.524 257.159 294.179 257.159C295.123 257.159 295.865 257.364 296.407 257.773C296.948 258.178 297.306 258.722 297.481 259.403ZM303.672 257.273V258.636H298.741V257.273H303.672ZM300.093 266V256.261C300.093 255.716 300.212 255.263 300.451 254.903C300.689 254.54 301.006 254.269 301.4 254.091C301.794 253.909 302.222 253.818 302.684 253.818C303.025 253.818 303.316 253.847 303.559 253.903C303.801 253.956 303.981 254.006 304.099 254.051L303.701 255.426C303.621 255.403 303.519 255.377 303.394 255.347C303.269 255.313 303.117 255.295 302.939 255.295C302.527 255.295 302.231 255.398 302.053 255.602C301.879 255.807 301.792 256.102 301.792 256.489V266H300.093ZM308.843 266.176C307.983 266.176 307.242 265.992 306.621 265.625C306.004 265.254 305.527 264.733 305.189 264.063C304.856 263.388 304.689 262.598 304.689 261.693C304.689 260.799 304.856 260.011 305.189 259.33C305.527 258.648 305.996 258.116 306.599 257.733C307.205 257.35 307.913 257.159 308.724 257.159C309.216 257.159 309.693 257.241 310.155 257.403C310.617 257.566 311.032 257.822 311.4 258.17C311.767 258.519 312.057 258.972 312.269 259.528C312.481 260.081 312.587 260.754 312.587 261.545V262.148H305.65V260.875H310.922C310.922 260.428 310.831 260.032 310.65 259.688C310.468 259.339 310.212 259.064 309.883 258.864C309.557 258.663 309.174 258.563 308.735 258.563C308.258 258.563 307.841 258.68 307.485 258.915C307.133 259.146 306.86 259.449 306.667 259.824C306.477 260.195 306.383 260.598 306.383 261.034V262.028C306.383 262.612 306.485 263.108 306.689 263.517C306.898 263.926 307.188 264.239 307.559 264.455C307.93 264.667 308.364 264.773 308.86 264.773C309.182 264.773 309.475 264.727 309.741 264.636C310.006 264.542 310.235 264.402 310.428 264.216C310.621 264.03 310.769 263.801 310.871 263.528L312.479 263.818C312.35 264.292 312.119 264.706 311.786 265.063C311.456 265.415 311.042 265.689 310.542 265.886C310.045 266.08 309.479 266.176 308.843 266.176ZM314.472 266V257.273H316.114V258.659H316.205C316.364 258.189 316.644 257.82 317.046 257.551C317.451 257.278 317.91 257.142 318.421 257.142C318.527 257.142 318.652 257.146 318.796 257.153C318.944 257.161 319.059 257.17 319.143 257.182V258.807C319.074 258.788 318.953 258.767 318.779 258.744C318.605 258.718 318.43 258.705 318.256 258.705C317.855 258.705 317.497 258.79 317.182 258.96C316.872 259.127 316.626 259.36 316.444 259.659C316.262 259.955 316.171 260.292 316.171 260.67V266H314.472Z" fill="#18171A"/>
<path d="M386.527 260.354C386.706 260.146 386.706 259.855 386.563 259.647L382.329 254.823C382.149 254.615 381.862 254.615 381.719 254.823L381.468 255.114C381.288 255.322 381.288 255.613 381.468 255.821L385.128 259.98L381.468 264.18C381.288 264.388 381.288 264.679 381.468 264.887L381.719 265.178C381.862 265.386 382.149 265.386 382.329 265.178L386.527 260.354Z" fill="#B6B4BA"/>
<rect x="104" y="300" width="304" height="56" rx="12" fill="#F8F8FA"/>
<g clip-path="url(#clip0_2432_59536)">
<path fill-rule="evenodd" clip-rule="evenodd" d="M122.5 318.999C121.119 318.999 120 320.118 120 321.499V333.954C120 335.334 121.119 336.454 122.5 336.454H141.5C142.881 336.454 144 335.334 144 333.954V324.453H120V322.271H144V321.499C144 320.118 142.881 318.999 141.5 318.999H122.5ZM122.18 330.908C122.18 330.356 122.627 329.908 123.18 329.908H125.543C126.096 329.908 126.543 330.356 126.543 330.908V333.272C126.543 333.824 126.096 334.272 125.543 334.272H123.18C122.627 334.272 122.18 333.824 122.18 333.272V330.908ZM133.631 330.453C133.33 330.453 133.086 330.697 133.086 330.998C133.086 331.3 133.33 331.544 133.631 331.544H141.268C141.569 331.544 141.813 331.3 141.813 330.998C141.813 330.697 141.569 330.453 141.268 330.453H133.631ZM136.359 333.18C136.359 332.879 136.604 332.634 136.905 332.634H141.269C141.57 332.634 141.814 332.879 141.814 333.18C141.814 333.481 141.57 333.725 141.269 333.725H136.905C136.604 333.725 136.359 333.481 136.359 333.18Z" fill="#6851FF"/>
</g>
<path d="M166.943 326.148H165.17C165.102 325.769 164.975 325.436 164.79 325.148C164.604 324.86 164.377 324.616 164.108 324.415C163.839 324.214 163.538 324.063 163.205 323.96C162.875 323.858 162.525 323.807 162.153 323.807C161.483 323.807 160.883 323.975 160.352 324.313C159.826 324.65 159.409 325.144 159.102 325.795C158.799 326.447 158.648 327.242 158.648 328.182C158.648 329.129 158.799 329.928 159.102 330.58C159.409 331.231 159.828 331.723 160.358 332.057C160.888 332.39 161.485 332.557 162.148 332.557C162.515 332.557 162.864 332.508 163.193 332.409C163.527 332.307 163.828 332.157 164.097 331.96C164.366 331.763 164.593 331.523 164.778 331.239C164.968 330.951 165.098 330.621 165.17 330.25L166.943 330.256C166.848 330.828 166.665 331.354 166.392 331.835C166.123 332.313 165.777 332.725 165.352 333.074C164.932 333.419 164.451 333.686 163.909 333.875C163.367 334.064 162.777 334.159 162.136 334.159C161.129 334.159 160.231 333.92 159.443 333.443C158.655 332.962 158.034 332.275 157.58 331.381C157.129 330.487 156.903 329.42 156.903 328.182C156.903 326.939 157.131 325.873 157.585 324.983C158.04 324.089 158.661 323.403 159.449 322.926C160.237 322.445 161.133 322.205 162.136 322.205C162.754 322.205 163.33 322.294 163.864 322.472C164.402 322.646 164.884 322.903 165.312 323.244C165.741 323.581 166.095 323.994 166.375 324.483C166.655 324.968 166.845 325.523 166.943 326.148ZM168.908 334V325.273H170.55V326.659H170.641C170.8 326.189 171.08 325.82 171.482 325.551C171.887 325.278 172.345 325.142 172.857 325.142C172.963 325.142 173.088 325.146 173.232 325.153C173.379 325.161 173.495 325.17 173.578 325.182V326.807C173.51 326.788 173.389 326.767 173.214 326.744C173.04 326.718 172.866 326.705 172.692 326.705C172.29 326.705 171.932 326.79 171.618 326.96C171.307 327.127 171.061 327.36 170.879 327.659C170.697 327.955 170.607 328.292 170.607 328.67V334H168.908ZM178.497 334.176C177.637 334.176 176.897 333.992 176.276 333.625C175.658 333.254 175.181 332.733 174.844 332.063C174.51 331.388 174.344 330.598 174.344 329.693C174.344 328.799 174.51 328.011 174.844 327.33C175.181 326.648 175.651 326.116 176.253 325.733C176.859 325.35 177.567 325.159 178.378 325.159C178.87 325.159 179.348 325.241 179.81 325.403C180.272 325.566 180.687 325.822 181.054 326.17C181.421 326.519 181.711 326.972 181.923 327.528C182.135 328.081 182.241 328.754 182.241 329.545V330.148H175.304V328.875H180.577C180.577 328.428 180.486 328.032 180.304 327.688C180.122 327.339 179.866 327.064 179.537 326.864C179.211 326.663 178.829 326.563 178.389 326.563C177.912 326.563 177.495 326.68 177.139 326.915C176.787 327.146 176.514 327.449 176.321 327.824C176.132 328.195 176.037 328.598 176.037 329.034V330.028C176.037 330.612 176.139 331.108 176.344 331.517C176.552 331.926 176.842 332.239 177.213 332.455C177.584 332.667 178.018 332.773 178.514 332.773C178.836 332.773 179.13 332.727 179.395 332.636C179.66 332.542 179.889 332.402 180.082 332.216C180.276 332.03 180.423 331.801 180.526 331.528L182.134 331.818C182.005 332.292 181.774 332.706 181.44 333.063C181.111 333.415 180.696 333.689 180.196 333.886C179.7 334.08 179.134 334.176 178.497 334.176ZM187.393 334.17C186.689 334.17 186.06 333.991 185.507 333.631C184.958 333.267 184.526 332.75 184.212 332.08C183.901 331.405 183.746 330.597 183.746 329.653C183.746 328.71 183.903 327.903 184.217 327.233C184.536 326.563 184.971 326.049 185.524 325.693C186.077 325.337 186.704 325.159 187.405 325.159C187.946 325.159 188.382 325.25 188.712 325.432C189.045 325.61 189.303 325.818 189.484 326.057C189.67 326.295 189.814 326.506 189.916 326.688H190.018V322.364H191.717V334H190.058V332.642H189.916C189.814 332.828 189.666 333.04 189.473 333.278C189.284 333.517 189.022 333.725 188.689 333.903C188.356 334.081 187.924 334.17 187.393 334.17ZM187.768 332.722C188.257 332.722 188.67 332.593 189.007 332.335C189.348 332.074 189.606 331.712 189.78 331.25C189.958 330.788 190.047 330.25 190.047 329.636C190.047 329.03 189.96 328.5 189.786 328.045C189.611 327.591 189.356 327.237 189.018 326.983C188.681 326.729 188.265 326.602 187.768 326.602C187.257 326.602 186.831 326.735 186.49 327C186.149 327.265 185.892 327.627 185.717 328.085C185.547 328.544 185.462 329.061 185.462 329.636C185.462 330.22 185.549 330.744 185.723 331.21C185.897 331.676 186.155 332.045 186.496 332.318C186.84 332.587 187.265 332.722 187.768 332.722ZM194.142 334V325.273H195.841V334H194.142ZM195 323.926C194.705 323.926 194.451 323.828 194.239 323.631C194.03 323.43 193.926 323.191 193.926 322.915C193.926 322.634 194.03 322.396 194.239 322.199C194.451 321.998 194.705 321.898 195 321.898C195.295 321.898 195.547 321.998 195.756 322.199C195.968 322.396 196.074 322.634 196.074 322.915C196.074 323.191 195.968 323.43 195.756 323.631C195.547 323.828 195.295 323.926 195 323.926ZM202.2 325.273V326.636H197.433V325.273H202.2ZM198.712 323.182H200.411V331.438C200.411 331.767 200.46 332.015 200.558 332.182C200.657 332.345 200.784 332.456 200.939 332.517C201.098 332.574 201.27 332.602 201.456 332.602C201.592 332.602 201.712 332.593 201.814 332.574C201.916 332.555 201.996 332.54 202.053 332.528L202.359 333.932C202.261 333.97 202.121 334.008 201.939 334.045C201.757 334.087 201.53 334.11 201.257 334.114C200.81 334.121 200.393 334.042 200.007 333.875C199.621 333.708 199.308 333.451 199.07 333.102C198.831 332.754 198.712 332.316 198.712 331.79V323.182ZM211.99 334.176C211.172 334.176 210.458 333.989 209.848 333.614C209.238 333.239 208.765 332.714 208.428 332.04C208.09 331.366 207.922 330.578 207.922 329.676C207.922 328.771 208.09 327.979 208.428 327.301C208.765 326.623 209.238 326.097 209.848 325.722C210.458 325.347 211.172 325.159 211.99 325.159C212.808 325.159 213.522 325.347 214.132 325.722C214.742 326.097 215.215 326.623 215.553 327.301C215.89 327.979 216.058 328.771 216.058 329.676C216.058 330.578 215.89 331.366 215.553 332.04C215.215 332.714 214.742 333.239 214.132 333.614C213.522 333.989 212.808 334.176 211.99 334.176ZM211.996 332.75C212.526 332.75 212.965 332.61 213.314 332.33C213.662 332.049 213.92 331.676 214.087 331.21C214.257 330.744 214.342 330.231 214.342 329.67C214.342 329.114 214.257 328.602 214.087 328.136C213.92 327.667 213.662 327.29 213.314 327.006C212.965 326.722 212.526 326.58 211.996 326.58C211.462 326.58 211.018 326.722 210.666 327.006C210.318 327.29 210.058 327.667 209.888 328.136C209.721 328.602 209.638 329.114 209.638 329.67C209.638 330.231 209.721 330.744 209.888 331.21C210.058 331.676 210.318 332.049 210.666 332.33C211.018 332.61 211.462 332.75 211.996 332.75ZM217.955 334V325.273H219.597V326.659H219.687C219.847 326.189 220.127 325.82 220.528 325.551C220.934 325.278 221.392 325.142 221.903 325.142C222.009 325.142 222.134 325.146 222.278 325.153C222.426 325.161 222.542 325.17 222.625 325.182V326.807C222.557 326.788 222.436 326.767 222.261 326.744C222.087 326.718 221.913 326.705 221.739 326.705C221.337 326.705 220.979 326.79 220.665 326.96C220.354 327.127 220.108 327.36 219.926 327.659C219.744 327.955 219.653 328.292 219.653 328.67V334H217.955ZM232.233 334H228.466V322.364H232.352C233.492 322.364 234.472 322.597 235.29 323.063C236.108 323.525 236.735 324.189 237.17 325.057C237.61 325.92 237.83 326.956 237.83 328.165C237.83 329.377 237.608 330.419 237.165 331.29C236.725 332.161 236.089 332.831 235.256 333.301C234.422 333.767 233.415 334 232.233 334ZM230.222 332.466H232.136C233.023 332.466 233.759 332.299 234.347 331.966C234.934 331.629 235.373 331.142 235.665 330.506C235.956 329.866 236.102 329.085 236.102 328.165C236.102 327.252 235.956 326.477 235.665 325.841C235.377 325.205 234.947 324.722 234.375 324.392C233.803 324.063 233.093 323.898 232.244 323.898H230.222V332.466ZM243.638 334.176C242.778 334.176 242.037 333.992 241.416 333.625C240.799 333.254 240.321 332.733 239.984 332.063C239.651 331.388 239.484 330.598 239.484 329.693C239.484 328.799 239.651 328.011 239.984 327.33C240.321 326.648 240.791 326.116 241.393 325.733C242 325.35 242.708 325.159 243.518 325.159C244.011 325.159 244.488 325.241 244.95 325.403C245.412 325.566 245.827 325.822 246.195 326.17C246.562 326.519 246.852 326.972 247.064 327.528C247.276 328.081 247.382 328.754 247.382 329.545V330.148H240.445V328.875H245.717C245.717 328.428 245.626 328.032 245.445 327.688C245.263 327.339 245.007 327.064 244.678 326.864C244.352 326.663 243.969 326.563 243.53 326.563C243.053 326.563 242.636 326.68 242.28 326.915C241.928 327.146 241.655 327.449 241.462 327.824C241.272 328.195 241.178 328.598 241.178 329.034V330.028C241.178 330.612 241.28 331.108 241.484 331.517C241.693 331.926 241.982 332.239 242.354 332.455C242.725 332.667 243.159 332.773 243.655 332.773C243.977 332.773 244.27 332.727 244.536 332.636C244.801 332.542 245.03 332.402 245.223 332.216C245.416 332.03 245.564 331.801 245.666 331.528L247.274 331.818C247.145 332.292 246.914 332.706 246.581 333.063C246.251 333.415 245.837 333.689 245.337 333.886C244.84 334.08 244.274 334.176 243.638 334.176ZM249.403 334V322.364H251.102V326.688H251.205C251.303 326.506 251.445 326.295 251.631 326.057C251.816 325.818 252.074 325.61 252.403 325.432C252.733 325.25 253.169 325.159 253.71 325.159C254.415 325.159 255.044 325.337 255.597 325.693C256.15 326.049 256.583 326.563 256.898 327.233C257.216 327.903 257.375 328.71 257.375 329.653C257.375 330.597 257.218 331.405 256.903 332.08C256.589 332.75 256.157 333.267 255.608 333.631C255.059 333.991 254.432 334.17 253.727 334.17C253.197 334.17 252.763 334.081 252.426 333.903C252.093 333.725 251.831 333.517 251.642 333.278C251.453 333.04 251.307 332.828 251.205 332.642H251.062V334H249.403ZM251.068 329.636C251.068 330.25 251.157 330.788 251.335 331.25C251.513 331.712 251.771 332.074 252.108 332.335C252.445 332.593 252.858 332.722 253.347 332.722C253.854 332.722 254.278 332.587 254.619 332.318C254.96 332.045 255.218 331.676 255.392 331.21C255.57 330.744 255.659 330.22 255.659 329.636C255.659 329.061 255.572 328.544 255.398 328.085C255.227 327.627 254.97 327.265 254.625 327C254.284 326.735 253.858 326.602 253.347 326.602C252.854 326.602 252.437 326.729 252.097 326.983C251.759 327.237 251.504 327.591 251.33 328.045C251.155 328.5 251.068 329.03 251.068 329.636ZM259.283 334V325.273H260.982V334H259.283ZM260.141 323.926C259.845 323.926 259.591 323.828 259.379 323.631C259.171 323.43 259.067 323.191 259.067 322.915C259.067 322.634 259.171 322.396 259.379 322.199C259.591 321.998 259.845 321.898 260.141 321.898C260.436 321.898 260.688 321.998 260.896 322.199C261.108 322.396 261.214 322.634 261.214 322.915C261.214 323.191 261.108 323.43 260.896 323.631C260.688 323.828 260.436 323.926 260.141 323.926ZM267.341 325.273V326.636H262.574V325.273H267.341ZM263.852 323.182H265.551V331.438C265.551 331.767 265.6 332.015 265.699 332.182C265.797 332.345 265.924 332.456 266.08 332.517C266.239 332.574 266.411 332.602 266.597 332.602C266.733 332.602 266.852 332.593 266.955 332.574C267.057 332.555 267.136 332.54 267.193 332.528L267.5 333.932C267.402 333.97 267.261 334.008 267.08 334.045C266.898 334.087 266.67 334.11 266.398 334.114C265.951 334.121 265.534 334.042 265.148 333.875C264.761 333.708 264.449 333.451 264.21 333.102C263.972 332.754 263.852 332.316 263.852 331.79V323.182Z" fill="#18171A"/>
<path d="M386.527 328.354C386.706 328.146 386.706 327.855 386.563 327.647L382.329 322.823C382.149 322.615 381.862 322.615 381.719 322.823L381.468 323.114C381.288 323.322 381.288 323.613 381.468 323.821L385.128 327.98L381.468 332.18C381.288 332.388 381.288 332.679 381.468 332.887L381.719 333.178C381.862 333.386 382.149 333.386 382.329 333.178L386.527 328.354Z" fill="#B6B4BA"/>
<rect x="104" y="368" width="304" height="56" rx="12" fill="#F8F8FA"/>
<path d="M136.999 395.658C136.989 394.005 137.738 392.76 139.25 391.841C138.404 390.629 137.125 389.962 135.438 389.834C133.84 389.708 132.093 390.765 131.453 390.765C130.777 390.765 129.23 389.878 128.014 389.878C125.503 389.916 122.834 391.88 122.834 395.874C122.834 397.054 123.05 398.274 123.481 399.529C124.058 401.182 126.138 405.232 128.307 405.167C129.441 405.14 130.243 404.362 131.72 404.362C133.152 404.362 133.894 405.167 135.159 405.167C137.348 405.135 139.228 401.454 139.776 399.796C136.841 398.412 136.999 395.743 136.999 395.658V395.658ZM134.451 388.266C135.68 386.807 135.569 385.478 135.532 385.001C134.446 385.064 133.191 385.74 132.476 386.572C131.688 387.464 131.225 388.566 131.324 389.81C132.498 389.899 133.569 389.296 134.451 388.266V388.266Z" fill="black"/>
<path d="M158.261 402H156.398L160.585 390.364H162.614L166.801 402H164.937L161.648 392.477H161.557L158.261 402ZM158.574 397.443H164.619V398.92H158.574V397.443ZM168.345 405.273V393.273H170.004V394.688H170.146C170.245 394.506 170.387 394.295 170.572 394.057C170.758 393.818 171.016 393.61 171.345 393.432C171.675 393.25 172.11 393.159 172.652 393.159C173.357 393.159 173.985 393.337 174.538 393.693C175.091 394.049 175.525 394.563 175.839 395.233C176.158 395.903 176.317 396.71 176.317 397.653C176.317 398.597 176.16 399.405 175.845 400.08C175.531 400.75 175.099 401.267 174.55 401.631C174 401.991 173.374 402.17 172.669 402.17C172.139 402.17 171.705 402.081 171.368 401.903C171.035 401.725 170.773 401.517 170.584 401.278C170.394 401.04 170.249 400.828 170.146 400.642H170.044V405.273H168.345ZM170.01 397.636C170.01 398.25 170.099 398.788 170.277 399.25C170.455 399.712 170.713 400.074 171.05 400.335C171.387 400.593 171.8 400.722 172.288 400.722C172.796 400.722 173.22 400.587 173.561 400.318C173.902 400.045 174.16 399.676 174.334 399.21C174.512 398.744 174.601 398.22 174.601 397.636C174.601 397.061 174.514 396.544 174.339 396.085C174.169 395.627 173.911 395.265 173.567 395C173.226 394.735 172.8 394.602 172.288 394.602C171.796 394.602 171.379 394.729 171.038 394.983C170.701 395.237 170.446 395.591 170.271 396.045C170.097 396.5 170.01 397.03 170.01 397.636ZM178.22 405.273V393.273H179.879V394.688H180.021C180.12 394.506 180.262 394.295 180.447 394.057C180.633 393.818 180.891 393.61 181.22 393.432C181.55 393.25 181.985 393.159 182.527 393.159C183.232 393.159 183.86 393.337 184.413 393.693C184.966 394.049 185.4 394.563 185.714 395.233C186.033 395.903 186.192 396.71 186.192 397.653C186.192 398.597 186.035 399.405 185.72 400.08C185.406 400.75 184.974 401.267 184.425 401.631C183.875 401.991 183.249 402.17 182.544 402.17C182.014 402.17 181.58 402.081 181.243 401.903C180.91 401.725 180.648 401.517 180.459 401.278C180.269 401.04 180.124 400.828 180.021 400.642H179.919V405.273H178.22ZM179.885 397.636C179.885 398.25 179.974 398.788 180.152 399.25C180.33 399.712 180.588 400.074 180.925 400.335C181.262 400.593 181.675 400.722 182.163 400.722C182.671 400.722 183.095 400.587 183.436 400.318C183.777 400.045 184.035 399.676 184.209 399.21C184.387 398.744 184.476 398.22 184.476 397.636C184.476 397.061 184.389 396.544 184.214 396.085C184.044 395.627 183.786 395.265 183.442 395C183.101 394.735 182.675 394.602 182.163 394.602C181.671 394.602 181.254 394.729 180.913 394.983C180.576 395.237 180.321 395.591 180.146 396.045C179.972 396.5 179.885 397.03 179.885 397.636ZM189.794 390.364V402H188.095V390.364H189.794ZM195.841 402.176C194.981 402.176 194.241 401.992 193.619 401.625C193.002 401.254 192.525 400.733 192.187 400.063C191.854 399.388 191.687 398.598 191.687 397.693C191.687 396.799 191.854 396.011 192.187 395.33C192.525 394.648 192.994 394.116 193.597 393.733C194.203 393.35 194.911 393.159 195.722 393.159C196.214 393.159 196.691 393.241 197.153 393.403C197.616 393.566 198.03 393.822 198.398 394.17C198.765 394.519 199.055 394.972 199.267 395.528C199.479 396.081 199.585 396.754 199.585 397.545V398.148H192.648V396.875H197.92C197.92 396.428 197.83 396.032 197.648 395.688C197.466 395.339 197.21 395.064 196.881 394.864C196.555 394.663 196.172 394.563 195.733 394.563C195.256 394.563 194.839 394.68 194.483 394.915C194.131 395.146 193.858 395.449 193.665 395.824C193.475 396.195 193.381 396.598 193.381 397.034V398.028C193.381 398.612 193.483 399.108 193.687 399.517C193.896 399.926 194.186 400.239 194.557 400.455C194.928 400.667 195.362 400.773 195.858 400.773C196.18 400.773 196.473 400.727 196.739 400.636C197.004 400.542 197.233 400.402 197.426 400.216C197.619 400.03 197.767 399.801 197.869 399.528L199.477 399.818C199.348 400.292 199.117 400.706 198.784 401.063C198.455 401.415 198.04 401.689 197.54 401.886C197.044 402.08 196.477 402.176 195.841 402.176ZM205.841 402V390.364H209.989C210.894 390.364 211.644 390.528 212.239 390.858C212.833 391.188 213.278 391.638 213.574 392.21C213.869 392.778 214.017 393.419 214.017 394.131C214.017 394.847 213.867 395.491 213.568 396.063C213.273 396.631 212.826 397.081 212.227 397.415C211.633 397.744 210.884 397.909 209.983 397.909H207.131V396.42H209.824C210.396 396.42 210.86 396.322 211.216 396.125C211.572 395.924 211.833 395.652 212 395.307C212.167 394.962 212.25 394.57 212.25 394.131C212.25 393.691 212.167 393.301 212 392.96C211.833 392.619 211.57 392.352 211.21 392.159C210.854 391.966 210.384 391.869 209.801 391.869H207.597V402H205.841ZM218.401 402.193C217.848 402.193 217.348 402.091 216.901 401.886C216.454 401.678 216.099 401.377 215.838 400.983C215.58 400.589 215.452 400.106 215.452 399.534C215.452 399.042 215.546 398.636 215.736 398.318C215.925 398 216.181 397.748 216.503 397.563C216.825 397.377 217.185 397.237 217.582 397.142C217.98 397.047 218.385 396.975 218.798 396.926C219.321 396.866 219.745 396.816 220.071 396.778C220.397 396.737 220.634 396.67 220.781 396.58C220.929 396.489 221.003 396.341 221.003 396.136V396.097C221.003 395.6 220.863 395.216 220.582 394.943C220.306 394.67 219.893 394.534 219.344 394.534C218.772 394.534 218.321 394.661 217.991 394.915C217.666 395.165 217.44 395.443 217.315 395.75L215.719 395.386C215.908 394.856 216.185 394.428 216.548 394.102C216.916 393.773 217.338 393.534 217.815 393.386C218.293 393.235 218.795 393.159 219.321 393.159C219.67 393.159 220.039 393.201 220.429 393.284C220.823 393.364 221.19 393.511 221.531 393.727C221.876 393.943 222.158 394.252 222.378 394.653C222.598 395.051 222.707 395.568 222.707 396.205V402H221.048V400.807H220.98C220.87 401.027 220.705 401.242 220.486 401.455C220.266 401.667 219.984 401.843 219.639 401.983C219.295 402.123 218.882 402.193 218.401 402.193ZM218.77 400.83C219.24 400.83 219.641 400.737 219.974 400.551C220.312 400.366 220.567 400.123 220.741 399.824C220.92 399.521 221.009 399.197 221.009 398.852V397.727C220.948 397.788 220.83 397.845 220.656 397.898C220.486 397.947 220.291 397.991 220.071 398.028C219.851 398.063 219.637 398.095 219.429 398.125C219.221 398.152 219.046 398.174 218.906 398.193C218.577 398.235 218.276 398.305 218.003 398.403C217.734 398.502 217.518 398.644 217.355 398.83C217.196 399.011 217.116 399.254 217.116 399.557C217.116 399.977 217.272 400.295 217.582 400.511C217.893 400.723 218.289 400.83 218.77 400.83ZM225.732 405.273C225.478 405.273 225.247 405.252 225.038 405.21C224.83 405.172 224.675 405.131 224.572 405.085L224.982 403.693C225.292 403.777 225.569 403.812 225.811 403.801C226.053 403.79 226.268 403.699 226.453 403.528C226.643 403.358 226.809 403.08 226.953 402.693L227.163 402.114L223.97 393.273H225.788L227.999 400.045H228.089L230.3 393.273H232.124L228.527 403.165C228.36 403.619 228.148 404.004 227.891 404.318C227.633 404.636 227.326 404.875 226.97 405.034C226.614 405.193 226.201 405.273 225.732 405.273Z" fill="#18171A"/>
<path d="M386.527 396.354C386.706 396.146 386.706 395.855 386.563 395.647L382.329 390.823C382.149 390.615 381.862 390.615 381.719 390.823L381.468 391.114C381.288 391.322 381.288 391.613 381.468 391.821L385.128 395.98L381.468 400.18C381.288 400.388 381.288 400.679 381.468 400.887L381.719 401.178C381.862 401.386 382.149 401.386 382.329 401.178L386.527 396.354Z" fill="#B6B4BA"/>
<rect x="104" y="436" width="304" height="56" rx="12" fill="#F8F8FA"/>
<path d="M140.86 457.419C139.301 457.103 136.787 456.676 136.084 458.146C133.938 461.869 132.705 465.767 131.778 467.439C131.875 467.495 136.151 469.98 136.453 470.127C137.414 470.594 139.019 470.384 139.703 469.149C141.6 465.723 141.117 466.615 143.133 463.119C144.435 460.861 142.807 457.813 140.86 457.419Z" fill="#EA4335"/>
<path d="M127.37 472.536C126.323 471.337 125.555 468.937 126.475 467.593C129.162 462.931 131.314 460.108 133.006 457.279C133.903 457.798 137.498 459.84 137.737 460.051C138.54 460.757 139.206 462.105 138.48 463.315C136.466 466.673 135.639 468.193 133.592 471.744C132.29 474.003 128.678 474.035 127.37 472.536Z" fill="#FDBD00"/>
<path d="M137.01 455.042C134.915 453.817 133.839 453.977 132.712 454.158C131.688 454.414 130.304 455.16 129.72 456.117C128.247 458.532 126.853 460.922 125.046 464.161C124.49 465.159 124.903 466.384 125.416 466.871C125.764 467.2 128.325 468.615 128.797 468.819C129.466 469.106 130.467 468.906 131.071 468.284C131.238 468.112 135.058 461.541 136.133 459.602C136.587 458.785 136.996 458.332 137.676 457.896C138.987 457.206 140.012 457.117 141.58 457.692C141.58 457.692 138.166 455.71 137.01 455.042Z" fill="#2DA94F"/>
<path d="M123.533 470.464C121.426 469.26 121.026 468.246 120.62 467.179C120.329 466.163 120.282 464.589 120.818 463.604C122.17 461.119 122.161 461.107 124.058 457.92C124.642 456.939 125.909 456.684 126.586 456.887C127.045 457.024 129.549 458.537 129.961 458.845C130.544 459.281 130.871 460.249 130.635 461.084C130.57 461.315 128.176 465.522 127.038 467.424C126.558 468.227 126.371 468.808 126.333 469.615C126.393 471.097 126.828 472.03 128.11 473.104C128.11 473.104 124.688 471.133 123.533 470.464Z" fill="#297AEC"/>
<path d="M165.153 462.04C165.044 461.695 164.896 461.386 164.71 461.114C164.528 460.837 164.311 460.602 164.057 460.409C163.803 460.212 163.513 460.063 163.187 459.96C162.866 459.858 162.511 459.807 162.125 459.807C161.47 459.807 160.879 459.975 160.352 460.313C159.826 460.65 159.409 461.144 159.102 461.795C158.799 462.443 158.648 463.237 158.648 464.176C158.648 465.119 158.801 465.917 159.108 466.568C159.415 467.22 159.835 467.714 160.369 468.051C160.903 468.388 161.511 468.557 162.193 468.557C162.826 468.557 163.377 468.428 163.847 468.17C164.32 467.913 164.686 467.549 164.943 467.08C165.205 466.606 165.335 466.049 165.335 465.409L165.79 465.494H162.46V464.045H167.034V465.369C167.034 466.347 166.826 467.195 166.409 467.915C165.996 468.631 165.424 469.184 164.693 469.574C163.966 469.964 163.133 470.159 162.193 470.159C161.14 470.159 160.216 469.917 159.42 469.432C158.629 468.947 158.011 468.259 157.568 467.369C157.125 466.475 156.903 465.415 156.903 464.188C156.903 463.259 157.032 462.426 157.29 461.688C157.547 460.949 157.909 460.322 158.375 459.807C158.845 459.288 159.396 458.892 160.028 458.619C160.665 458.343 161.36 458.205 162.114 458.205C162.742 458.205 163.328 458.297 163.869 458.483C164.415 458.669 164.9 458.932 165.324 459.273C165.752 459.614 166.106 460.019 166.386 460.489C166.667 460.955 166.856 461.472 166.955 462.04H165.153ZM172.803 470.176C171.984 470.176 171.27 469.989 170.661 469.614C170.051 469.239 169.577 468.714 169.24 468.04C168.903 467.366 168.734 466.578 168.734 465.676C168.734 464.771 168.903 463.979 169.24 463.301C169.577 462.623 170.051 462.097 170.661 461.722C171.27 461.347 171.984 461.159 172.803 461.159C173.621 461.159 174.335 461.347 174.945 461.722C175.554 462.097 176.028 462.623 176.365 463.301C176.702 463.979 176.871 464.771 176.871 465.676C176.871 466.578 176.702 467.366 176.365 468.04C176.028 468.714 175.554 469.239 174.945 469.614C174.335 469.989 173.621 470.176 172.803 470.176ZM172.808 468.75C173.339 468.75 173.778 468.61 174.126 468.33C174.475 468.049 174.732 467.676 174.899 467.21C175.07 466.744 175.155 466.231 175.155 465.67C175.155 465.114 175.07 464.602 174.899 464.136C174.732 463.667 174.475 463.29 174.126 463.006C173.778 462.722 173.339 462.58 172.808 462.58C172.274 462.58 171.831 462.722 171.479 463.006C171.13 463.29 170.871 463.667 170.7 464.136C170.534 464.602 170.45 465.114 170.45 465.67C170.45 466.231 170.534 466.744 170.7 467.21C170.871 467.676 171.13 468.049 171.479 468.33C171.831 468.61 172.274 468.75 172.808 468.75ZM182.443 470.176C181.625 470.176 180.911 469.989 180.301 469.614C179.691 469.239 179.218 468.714 178.881 468.04C178.544 467.366 178.375 466.578 178.375 465.676C178.375 464.771 178.544 463.979 178.881 463.301C179.218 462.623 179.691 462.097 180.301 461.722C180.911 461.347 181.625 461.159 182.443 461.159C183.261 461.159 183.975 461.347 184.585 461.722C185.195 462.097 185.669 462.623 186.006 463.301C186.343 463.979 186.511 464.771 186.511 465.676C186.511 466.578 186.343 467.366 186.006 468.04C185.669 468.714 185.195 469.239 184.585 469.614C183.975 469.989 183.261 470.176 182.443 470.176ZM182.449 468.75C182.979 468.75 183.419 468.61 183.767 468.33C184.116 468.049 184.373 467.676 184.54 467.21C184.71 466.744 184.795 466.231 184.795 465.67C184.795 465.114 184.71 464.602 184.54 464.136C184.373 463.667 184.116 463.29 183.767 463.006C183.419 462.722 182.979 462.58 182.449 462.58C181.915 462.58 181.472 462.722 181.119 463.006C180.771 463.29 180.511 463.667 180.341 464.136C180.174 464.602 180.091 465.114 180.091 465.67C180.091 466.231 180.174 466.744 180.341 467.21C180.511 467.676 180.771 468.049 181.119 468.33C181.472 468.61 181.915 468.75 182.449 468.75ZM192.067 473.455C191.374 473.455 190.777 473.364 190.277 473.182C189.781 473 189.375 472.759 189.061 472.46C188.747 472.161 188.512 471.833 188.357 471.477L189.817 470.875C189.919 471.042 190.055 471.218 190.226 471.403C190.4 471.593 190.635 471.754 190.93 471.886C191.23 472.019 191.614 472.085 192.084 472.085C192.728 472.085 193.26 471.928 193.68 471.614C194.101 471.303 194.311 470.807 194.311 470.125V468.409H194.203C194.101 468.595 193.953 468.801 193.76 469.028C193.571 469.256 193.309 469.453 192.976 469.619C192.643 469.786 192.209 469.869 191.675 469.869C190.985 469.869 190.364 469.708 189.811 469.386C189.262 469.061 188.826 468.581 188.504 467.949C188.186 467.313 188.027 466.53 188.027 465.602C188.027 464.674 188.184 463.879 188.499 463.216C188.817 462.553 189.252 462.045 189.805 461.693C190.358 461.337 190.985 461.159 191.686 461.159C192.228 461.159 192.665 461.25 192.999 461.432C193.332 461.61 193.591 461.818 193.777 462.057C193.966 462.295 194.112 462.506 194.214 462.688H194.339V461.273H196.004V470.193C196.004 470.943 195.83 471.559 195.482 472.04C195.133 472.521 194.661 472.877 194.067 473.108C193.476 473.339 192.809 473.455 192.067 473.455ZM192.05 468.46C192.538 468.46 192.951 468.347 193.288 468.119C193.629 467.888 193.887 467.559 194.061 467.131C194.239 466.699 194.328 466.182 194.328 465.58C194.328 464.992 194.241 464.475 194.067 464.028C193.893 463.581 193.637 463.233 193.3 462.983C192.963 462.729 192.546 462.602 192.05 462.602C191.538 462.602 191.112 462.735 190.771 463C190.43 463.261 190.173 463.617 189.999 464.068C189.828 464.519 189.743 465.023 189.743 465.58C189.743 466.152 189.83 466.653 190.004 467.085C190.178 467.517 190.436 467.854 190.777 468.097C191.122 468.339 191.546 468.46 192.05 468.46ZM199.982 458.364V470H198.283V458.364H199.982ZM206.028 470.176C205.169 470.176 204.428 469.992 203.807 469.625C203.189 469.254 202.712 468.733 202.375 468.063C202.042 467.388 201.875 466.598 201.875 465.693C201.875 464.799 202.042 464.011 202.375 463.33C202.712 462.648 203.182 462.116 203.784 461.733C204.39 461.35 205.098 461.159 205.909 461.159C206.402 461.159 206.879 461.241 207.341 461.403C207.803 461.566 208.218 461.822 208.585 462.17C208.953 462.519 209.242 462.972 209.455 463.528C209.667 464.081 209.773 464.754 209.773 465.545V466.148H202.835V464.875H208.108C208.108 464.428 208.017 464.032 207.835 463.688C207.653 463.339 207.398 463.064 207.068 462.864C206.742 462.663 206.36 462.563 205.92 462.563C205.443 462.563 205.027 462.68 204.67 462.915C204.318 463.146 204.045 463.449 203.852 463.824C203.663 464.195 203.568 464.598 203.568 465.034V466.028C203.568 466.612 203.67 467.108 203.875 467.517C204.083 467.926 204.373 468.239 204.744 468.455C205.116 468.667 205.549 468.773 206.045 468.773C206.367 468.773 206.661 468.727 206.926 468.636C207.191 468.542 207.42 468.402 207.614 468.216C207.807 468.03 207.955 467.801 208.057 467.528L209.665 467.818C209.536 468.292 209.305 468.706 208.972 469.063C208.642 469.415 208.227 469.689 207.727 469.886C207.231 470.08 206.665 470.176 206.028 470.176ZM216.028 470V458.364H220.176C221.081 458.364 221.831 458.528 222.426 458.858C223.021 459.188 223.466 459.638 223.761 460.21C224.057 460.778 224.205 461.419 224.205 462.131C224.205 462.847 224.055 463.491 223.756 464.063C223.46 464.631 223.013 465.081 222.415 465.415C221.82 465.744 221.072 465.909 220.17 465.909H217.318V464.42H220.011C220.583 464.42 221.047 464.322 221.403 464.125C221.759 463.924 222.021 463.652 222.187 463.307C222.354 462.962 222.437 462.57 222.437 462.131C222.437 461.691 222.354 461.301 222.187 460.96C222.021 460.619 221.758 460.352 221.398 460.159C221.042 459.966 220.572 459.869 219.989 459.869H217.784V470H216.028ZM228.588 470.193C228.035 470.193 227.535 470.091 227.088 469.886C226.641 469.678 226.287 469.377 226.026 468.983C225.768 468.589 225.639 468.106 225.639 467.534C225.639 467.042 225.734 466.636 225.923 466.318C226.113 466 226.368 465.748 226.69 465.563C227.012 465.377 227.372 465.237 227.77 465.142C228.168 465.047 228.573 464.975 228.986 464.926C229.509 464.866 229.933 464.816 230.259 464.778C230.584 464.737 230.821 464.67 230.969 464.58C231.116 464.489 231.19 464.341 231.19 464.136V464.097C231.19 463.6 231.05 463.216 230.77 462.943C230.493 462.67 230.08 462.534 229.531 462.534C228.959 462.534 228.509 462.661 228.179 462.915C227.853 463.165 227.628 463.443 227.503 463.75L225.906 463.386C226.096 462.856 226.372 462.428 226.736 462.102C227.103 461.773 227.526 461.534 228.003 461.386C228.48 461.235 228.982 461.159 229.509 461.159C229.857 461.159 230.226 461.201 230.616 461.284C231.01 461.364 231.378 461.511 231.719 461.727C232.063 461.943 232.346 462.252 232.565 462.653C232.785 463.051 232.895 463.568 232.895 464.205V470H231.236V468.807H231.168C231.058 469.027 230.893 469.242 230.673 469.455C230.454 469.667 230.171 469.843 229.827 469.983C229.482 470.123 229.069 470.193 228.588 470.193ZM228.957 468.83C229.427 468.83 229.829 468.737 230.162 468.551C230.499 468.366 230.755 468.123 230.929 467.824C231.107 467.521 231.196 467.197 231.196 466.852V465.727C231.135 465.788 231.018 465.845 230.844 465.898C230.673 465.947 230.478 465.991 230.259 466.028C230.039 466.063 229.825 466.095 229.616 466.125C229.408 466.152 229.234 466.174 229.094 466.193C228.764 466.235 228.463 466.305 228.19 466.403C227.921 466.502 227.705 466.644 227.543 466.83C227.384 467.011 227.304 467.254 227.304 467.557C227.304 467.977 227.459 468.295 227.77 468.511C228.08 468.723 228.476 468.83 228.957 468.83ZM235.919 473.273C235.665 473.273 235.434 473.252 235.226 473.21C235.018 473.172 234.862 473.131 234.76 473.085L235.169 471.693C235.48 471.777 235.756 471.812 235.999 471.801C236.241 471.79 236.455 471.699 236.641 471.528C236.83 471.358 236.997 471.08 237.141 470.693L237.351 470.114L234.158 461.273H235.976L238.186 468.045H238.277L240.487 461.273H242.311L238.714 471.165C238.548 471.619 238.336 472.004 238.078 472.318C237.821 472.636 237.514 472.875 237.158 473.034C236.802 473.193 236.389 473.273 235.919 473.273Z" fill="#18171A"/>
<path d="M386.527 464.354C386.706 464.146 386.706 463.855 386.563 463.647L382.329 458.823C382.149 458.615 381.862 458.615 381.719 458.823L381.468 459.114C381.288 459.322 381.288 459.613 381.468 459.821L385.128 463.98L381.468 468.18C381.288 468.388 381.288 468.679 381.468 468.887L381.719 469.178C381.862 469.386 382.149 469.386 382.329 469.178L386.527 464.354Z" fill="#B6B4BA"/>
<path d="M105.264 201V186.455H111.003C112.106 186.455 113.046 186.665 113.822 187.087C114.599 187.503 115.191 188.083 115.598 188.827C116.01 189.565 116.216 190.418 116.216 191.384C116.216 192.349 116.008 193.202 115.591 193.94C115.174 194.679 114.571 195.254 113.78 195.666C112.994 196.078 112.042 196.284 110.925 196.284H107.267V193.82H110.428C111.019 193.82 111.507 193.718 111.891 193.514C112.279 193.306 112.568 193.019 112.757 192.655C112.951 192.286 113.048 191.862 113.048 191.384C113.048 190.901 112.951 190.479 112.757 190.119C112.568 189.755 112.279 189.473 111.891 189.274C111.502 189.071 111.01 188.969 110.413 188.969H108.339V201H105.264ZM120.974 201.206C120.278 201.206 119.658 201.085 119.114 200.844C118.569 200.598 118.138 200.235 117.821 199.757C117.509 199.274 117.352 198.673 117.352 197.953C117.352 197.347 117.464 196.838 117.686 196.426C117.909 196.014 118.212 195.683 118.595 195.432C118.979 195.181 119.414 194.991 119.902 194.864C120.394 194.736 120.911 194.646 121.45 194.594C122.085 194.527 122.596 194.466 122.984 194.409C123.373 194.348 123.654 194.258 123.83 194.139C124.005 194.021 124.092 193.846 124.092 193.614V193.571C124.092 193.121 123.95 192.773 123.666 192.527C123.387 192.281 122.989 192.158 122.473 192.158C121.929 192.158 121.495 192.278 121.173 192.52C120.851 192.757 120.638 193.055 120.534 193.415L117.736 193.188C117.878 192.525 118.157 191.952 118.574 191.469C118.991 190.981 119.528 190.607 120.186 190.347C120.849 190.081 121.616 189.949 122.487 189.949C123.093 189.949 123.673 190.02 124.227 190.162C124.786 190.304 125.281 190.524 125.712 190.822C126.147 191.121 126.491 191.504 126.741 191.973C126.992 192.437 127.118 192.993 127.118 193.642V201H124.249V199.487H124.163C123.988 199.828 123.754 200.129 123.46 200.389C123.167 200.645 122.814 200.846 122.402 200.993C121.99 201.135 121.514 201.206 120.974 201.206ZM121.841 199.118C122.286 199.118 122.679 199.03 123.02 198.855C123.361 198.675 123.628 198.434 123.822 198.131C124.017 197.828 124.114 197.484 124.114 197.101V195.943C124.019 196.005 123.889 196.062 123.723 196.114C123.562 196.161 123.38 196.206 123.176 196.249C122.973 196.286 122.769 196.322 122.565 196.355C122.362 196.384 122.177 196.41 122.011 196.433C121.656 196.485 121.346 196.568 121.081 196.682C120.816 196.795 120.61 196.949 120.463 197.143C120.316 197.333 120.243 197.57 120.243 197.854C120.243 198.266 120.392 198.58 120.69 198.798C120.993 199.011 121.377 199.118 121.841 199.118ZM130.942 205.091C130.559 205.091 130.199 205.06 129.863 204.999C129.531 204.942 129.257 204.868 129.039 204.778L129.721 202.52C130.076 202.629 130.396 202.688 130.68 202.697C130.969 202.707 131.217 202.641 131.425 202.499C131.638 202.357 131.811 202.115 131.944 201.774L132.121 201.312L128.208 190.091H131.39L133.648 198.102H133.762L136.042 190.091H139.245L135.005 202.179C134.801 202.766 134.524 203.277 134.174 203.713C133.828 204.153 133.39 204.492 132.86 204.729C132.33 204.97 131.691 205.091 130.942 205.091ZM140.793 201V190.091H143.677V192.016H143.805C144.032 191.376 144.411 190.872 144.941 190.503C145.471 190.134 146.106 189.949 146.844 189.949C147.593 189.949 148.229 190.136 148.755 190.51C149.281 190.879 149.631 191.381 149.806 192.016H149.92C150.142 191.391 150.545 190.891 151.127 190.517C151.714 190.138 152.408 189.949 153.208 189.949C154.226 189.949 155.052 190.273 155.687 190.922C156.326 191.566 156.646 192.48 156.646 193.663V201H153.627V194.26C153.627 193.654 153.466 193.199 153.144 192.896C152.822 192.593 152.42 192.442 151.937 192.442C151.388 192.442 150.959 192.617 150.651 192.967C150.344 193.313 150.19 193.77 150.19 194.338V201H147.256V194.196C147.256 193.661 147.103 193.235 146.795 192.918C146.492 192.6 146.092 192.442 145.594 192.442C145.258 192.442 144.955 192.527 144.685 192.697C144.42 192.863 144.21 193.098 144.053 193.401C143.897 193.699 143.819 194.049 143.819 194.452V201H140.793ZM164.007 201.213C162.885 201.213 161.919 200.986 161.109 200.531C160.304 200.072 159.684 199.423 159.249 198.585C158.813 197.742 158.595 196.746 158.595 195.595C158.595 194.473 158.813 193.488 159.249 192.641C159.684 191.793 160.297 191.133 161.088 190.659C161.884 190.186 162.816 189.949 163.886 189.949C164.606 189.949 165.276 190.065 165.896 190.297C166.521 190.524 167.066 190.867 167.53 191.327C167.999 191.786 168.363 192.364 168.624 193.06C168.884 193.751 169.014 194.561 169.014 195.489V196.32H159.803V194.445H166.166C166.166 194.009 166.071 193.623 165.882 193.287C165.693 192.951 165.43 192.688 165.094 192.499C164.762 192.304 164.376 192.207 163.936 192.207C163.477 192.207 163.07 192.314 162.714 192.527C162.364 192.735 162.089 193.017 161.891 193.372C161.692 193.723 161.59 194.113 161.585 194.544V196.327C161.585 196.866 161.685 197.333 161.884 197.726C162.087 198.119 162.374 198.422 162.743 198.635C163.112 198.848 163.55 198.955 164.057 198.955C164.393 198.955 164.701 198.907 164.98 198.813C165.259 198.718 165.499 198.576 165.697 198.386C165.896 198.197 166.048 197.965 166.152 197.69L168.95 197.875C168.808 198.547 168.517 199.134 168.077 199.636C167.641 200.134 167.078 200.522 166.386 200.801C165.7 201.076 164.907 201.213 164.007 201.213ZM174.014 194.693V201H170.989V190.091H173.872V192.016H174C174.241 191.381 174.646 190.879 175.214 190.51C175.783 190.136 176.472 189.949 177.281 189.949C178.039 189.949 178.699 190.115 179.263 190.446C179.826 190.777 180.264 191.251 180.577 191.866C180.889 192.477 181.045 193.206 181.045 194.054V201H178.02V194.594C178.025 193.926 177.854 193.405 177.509 193.031C177.163 192.652 176.687 192.463 176.081 192.463C175.674 192.463 175.314 192.551 175.001 192.726C174.694 192.901 174.452 193.157 174.277 193.493C174.107 193.824 174.019 194.224 174.014 194.693ZM189.233 190.091V192.364H182.663V190.091H189.233ZM184.154 187.477H187.18V197.648C187.18 197.927 187.223 198.145 187.308 198.301C187.393 198.453 187.511 198.559 187.663 198.621C187.819 198.682 187.999 198.713 188.203 198.713C188.345 198.713 188.487 198.701 188.629 198.678C188.771 198.649 188.88 198.628 188.956 198.614L189.431 200.865C189.28 200.912 189.067 200.967 188.792 201.028C188.518 201.095 188.184 201.135 187.791 201.149C187.062 201.178 186.422 201.08 185.873 200.858C185.329 200.635 184.905 200.29 184.602 199.821C184.299 199.352 184.15 198.76 184.154 198.045V187.477ZM195.832 201V190.091H198.716V192.016H198.844C199.071 191.376 199.45 190.872 199.98 190.503C200.51 190.134 201.145 189.949 201.884 189.949C202.632 189.949 203.268 190.136 203.794 190.51C204.32 190.879 204.67 191.381 204.845 192.016H204.959C205.181 191.391 205.584 190.891 206.166 190.517C206.753 190.138 207.447 189.949 208.247 189.949C209.265 189.949 210.091 190.273 210.726 190.922C211.365 191.566 211.685 192.48 211.685 193.663V201H208.666V194.26C208.666 193.654 208.505 193.199 208.183 192.896C207.861 192.593 207.459 192.442 206.976 192.442C206.427 192.442 205.998 192.617 205.69 192.967C205.383 193.313 205.229 193.77 205.229 194.338V201H202.295V194.196C202.295 193.661 202.142 193.235 201.834 192.918C201.531 192.6 201.131 192.442 200.634 192.442C200.297 192.442 199.994 192.527 199.724 192.697C199.459 192.863 199.249 193.098 199.092 193.401C198.936 193.699 198.858 194.049 198.858 194.452V201H195.832ZM219.046 201.213C217.924 201.213 216.958 200.986 216.148 200.531C215.344 200.072 214.723 199.423 214.288 198.585C213.852 197.742 213.634 196.746 213.634 195.595C213.634 194.473 213.852 193.488 214.288 192.641C214.723 191.793 215.336 191.133 216.127 190.659C216.923 190.186 217.855 189.949 218.925 189.949C219.645 189.949 220.315 190.065 220.935 190.297C221.56 190.524 222.105 190.867 222.569 191.327C223.038 191.786 223.402 192.364 223.663 193.06C223.923 193.751 224.053 194.561 224.053 195.489V196.32H214.842V194.445H221.205C221.205 194.009 221.111 193.623 220.921 193.287C220.732 192.951 220.469 192.688 220.133 192.499C219.801 192.304 219.415 192.207 218.975 192.207C218.516 192.207 218.109 192.314 217.754 192.527C217.403 192.735 217.129 193.017 216.93 193.372C216.731 193.723 216.629 194.113 216.624 194.544V196.327C216.624 196.866 216.724 197.333 216.923 197.726C217.126 198.119 217.413 198.422 217.782 198.635C218.151 198.848 218.589 198.955 219.096 198.955C219.432 198.955 219.74 198.907 220.019 198.813C220.299 198.718 220.538 198.576 220.736 198.386C220.935 198.197 221.087 197.965 221.191 197.69L223.989 197.875C223.847 198.547 223.556 199.134 223.116 199.636C222.68 200.134 222.117 200.522 221.425 200.801C220.739 201.076 219.946 201.213 219.046 201.213ZM231.83 190.091V192.364H225.261V190.091H231.83ZM226.752 187.477H229.778V197.648C229.778 197.927 229.82 198.145 229.906 198.301C229.991 198.453 230.109 198.559 230.261 198.621C230.417 198.682 230.597 198.713 230.8 198.713C230.942 198.713 231.085 198.701 231.227 198.678C231.369 198.649 231.478 198.628 231.553 198.614L232.029 200.865C231.878 200.912 231.665 200.967 231.39 201.028C231.115 201.095 230.781 201.135 230.388 201.149C229.659 201.178 229.02 201.08 228.471 200.858C227.926 200.635 227.503 200.29 227.2 199.821C226.897 199.352 226.747 198.76 226.752 198.045V187.477ZM237.061 194.693V201H234.035V186.455H236.976V192.016H237.104C237.35 191.372 237.748 190.867 238.297 190.503C238.846 190.134 239.535 189.949 240.364 189.949C241.121 189.949 241.782 190.115 242.345 190.446C242.913 190.773 243.354 191.244 243.666 191.859C243.983 192.47 244.14 193.202 244.135 194.054V201H241.109V194.594C241.114 193.921 240.944 193.398 240.598 193.024C240.257 192.65 239.779 192.463 239.163 192.463C238.751 192.463 238.387 192.551 238.07 192.726C237.757 192.901 237.511 193.157 237.331 193.493C237.156 193.824 237.066 194.224 237.061 194.693ZM251.445 201.213C250.342 201.213 249.388 200.979 248.583 200.51C247.783 200.036 247.165 199.378 246.729 198.536C246.293 197.688 246.076 196.705 246.076 195.588C246.076 194.461 246.293 193.476 246.729 192.634C247.165 191.786 247.783 191.128 248.583 190.659C249.388 190.186 250.342 189.949 251.445 189.949C252.548 189.949 253.5 190.186 254.3 190.659C255.105 191.128 255.725 191.786 256.161 192.634C256.596 193.476 256.814 194.461 256.814 195.588C256.814 196.705 256.596 197.688 256.161 198.536C255.725 199.378 255.105 200.036 254.3 200.51C253.5 200.979 252.548 201.213 251.445 201.213ZM251.459 198.869C251.961 198.869 252.38 198.727 252.716 198.443C253.052 198.154 253.306 197.761 253.476 197.264C253.651 196.767 253.739 196.201 253.739 195.567C253.739 194.932 253.651 194.366 253.476 193.869C253.306 193.372 253.052 192.979 252.716 192.69C252.38 192.402 251.961 192.257 251.459 192.257C250.953 192.257 250.526 192.402 250.181 192.69C249.84 192.979 249.582 193.372 249.407 193.869C249.236 194.366 249.151 194.932 249.151 195.567C249.151 196.201 249.236 196.767 249.407 197.264C249.582 197.761 249.84 198.154 250.181 198.443C250.526 198.727 250.953 198.869 251.459 198.869ZM262.801 201.178C261.973 201.178 261.222 200.964 260.55 200.538C259.882 200.107 259.352 199.475 258.959 198.642C258.571 197.804 258.377 196.777 258.377 195.56C258.377 194.31 258.578 193.27 258.98 192.442C259.383 191.608 259.918 190.986 260.586 190.574C261.258 190.157 261.994 189.949 262.794 189.949C263.405 189.949 263.914 190.053 264.321 190.261C264.733 190.465 265.065 190.721 265.316 191.028C265.571 191.331 265.765 191.63 265.898 191.923H265.99V186.455H269.009V201H266.026V199.253H265.898C265.756 199.556 265.555 199.857 265.294 200.155C265.039 200.448 264.705 200.692 264.293 200.886C263.886 201.08 263.389 201.178 262.801 201.178ZM263.76 198.77C264.248 198.77 264.66 198.637 264.996 198.372C265.337 198.102 265.597 197.726 265.777 197.243C265.962 196.76 266.054 196.194 266.054 195.545C266.054 194.897 265.964 194.333 265.784 193.855C265.605 193.377 265.344 193.008 265.003 192.747C264.662 192.487 264.248 192.357 263.76 192.357C263.263 192.357 262.844 192.491 262.503 192.761C262.162 193.031 261.904 193.405 261.729 193.884C261.554 194.362 261.466 194.916 261.466 195.545C261.466 196.18 261.554 196.741 261.729 197.229C261.909 197.712 262.167 198.09 262.503 198.365C262.844 198.635 263.263 198.77 263.76 198.77Z" fill="#18171A"/>
<path d="M192.105 549.761H193.375C193.337 548.363 192.101 547.349 190.328 547.349C188.577 547.349 187.234 548.35 187.234 549.854C187.234 551.069 188.104 551.78 189.506 552.16L190.537 552.441C191.47 552.688 192.19 552.995 192.19 553.771C192.19 554.623 191.376 555.185 190.256 555.185C189.241 555.185 188.398 554.734 188.321 553.783H187C187.085 555.364 188.308 556.34 190.264 556.34C192.314 556.34 193.494 555.262 193.494 553.783C193.494 552.211 192.092 551.601 190.984 551.329L190.132 551.107C189.45 550.932 188.543 550.613 188.547 549.778C188.547 549.036 189.224 548.486 190.298 548.486C191.3 548.486 192.011 548.955 192.105 549.761Z" fill="#B6B4BA"/>
<path d="M197.787 556.327C199.214 556.327 200.224 555.624 200.514 554.559L199.308 554.342C199.078 554.959 198.524 555.275 197.799 555.275C196.708 555.275 195.975 554.567 195.941 553.306H200.595V552.854C200.595 550.489 199.18 549.565 197.697 549.565C195.873 549.565 194.672 550.954 194.672 552.965C194.672 554.998 195.856 556.327 197.787 556.327ZM195.946 552.351C195.997 551.422 196.67 550.617 197.706 550.617C198.694 550.617 199.342 551.35 199.346 552.351H195.946Z" fill="#B6B4BA"/>
<path d="M204.766 556.327C206.312 556.327 207.314 555.398 207.455 554.124H206.214C206.053 554.832 205.503 555.249 204.774 555.249C203.696 555.249 203.001 554.35 203.001 552.922C203.001 551.521 203.709 550.638 204.774 550.638C205.584 550.638 206.078 551.15 206.214 551.763H207.455C207.318 550.442 206.24 549.565 204.753 549.565C202.908 549.565 201.714 550.954 201.714 552.952C201.714 554.925 202.865 556.327 204.766 556.327Z" fill="#B6B4BA"/>
<path d="M212.963 553.481C212.968 554.593 212.141 555.121 211.425 555.121C210.637 555.121 210.091 554.55 210.091 553.66V549.65H208.817V553.813C208.817 555.437 209.708 556.28 210.965 556.28C211.949 556.28 212.618 555.761 212.921 555.062H212.989V556.195H214.242V549.65H212.963V553.481Z" fill="#B6B4BA"/>
<path d="M215.954 556.195H217.228V552.198C217.228 551.342 217.888 550.724 218.792 550.724C219.056 550.724 219.354 550.771 219.457 550.8V549.582C219.329 549.565 219.077 549.552 218.915 549.552C218.148 549.552 217.492 549.986 217.254 550.69H217.185V549.65H215.954V556.195Z" fill="#B6B4BA"/>
<path d="M223.146 556.327C224.574 556.327 225.583 555.624 225.873 554.559L224.667 554.342C224.437 554.959 223.883 555.275 223.159 555.275C222.068 555.275 221.335 554.567 221.301 553.306H225.954V552.854C225.954 550.489 224.539 549.565 223.056 549.565C221.233 549.565 220.031 550.954 220.031 552.965C220.031 554.998 221.216 556.327 223.146 556.327ZM221.305 552.351C221.356 551.422 222.029 550.617 223.065 550.617C224.054 550.617 224.701 551.35 224.706 552.351H221.305Z" fill="#B6B4BA"/>
<path d="M229.818 556.323C231.011 556.323 231.48 555.594 231.71 555.177H231.817V556.195H233.061V547.468H231.787V550.711H231.71C231.48 550.306 231.045 549.565 229.827 549.565C228.246 549.565 227.082 550.813 227.082 552.935C227.082 555.053 228.229 556.323 229.818 556.323ZM230.099 555.236C228.962 555.236 228.369 554.235 228.369 552.922C228.369 551.623 228.949 550.647 230.099 550.647C231.212 550.647 231.808 551.555 231.808 552.922C231.808 554.299 231.199 555.236 230.099 555.236Z" fill="#B6B4BA"/>
<path d="M238.158 556.195H239.402V555.177H239.509C239.739 555.594 240.207 556.323 241.401 556.323C242.986 556.323 244.136 555.053 244.136 552.935C244.136 550.813 242.969 549.565 241.388 549.565C240.173 549.565 239.734 550.306 239.509 550.711H239.432V547.468H238.158V556.195ZM239.406 552.922C239.406 551.555 240.003 550.647 241.115 550.647C242.27 550.647 242.849 551.623 242.849 552.922C242.849 554.235 242.253 555.236 241.115 555.236C240.02 555.236 239.406 554.299 239.406 552.922Z" fill="#B6B4BA"/>
<path d="M246.138 558.65C247.191 558.65 247.855 558.1 248.235 557.069L250.941 549.663L249.564 549.65L247.907 554.729H247.838L246.181 549.65H244.817L247.212 556.28L247.054 556.715C246.73 557.584 246.275 557.657 245.576 557.465L245.269 558.509C245.422 558.577 245.755 558.65 246.138 558.65Z" fill="#B6B4BA"/>
<path fill-rule="evenodd" clip-rule="evenodd" d="M315.869 548.471C316.574 548.471 317.145 547.9 317.145 547.195C317.145 546.49 316.574 545.919 315.869 545.919C315.164 545.919 314.593 546.49 314.593 547.195C314.593 547.9 315.164 548.471 315.869 548.471ZM285.246 547.035H287.878L290.657 553.671H290.775L293.554 547.035H296.186V556.911H294.116V550.483H294.032L291.421 556.863H290.011L287.4 550.459H287.316V556.911H285.246V547.035ZM300.185 557.051C299.462 557.051 298.862 556.866 298.386 556.497C297.91 556.127 297.672 555.576 297.672 554.843C297.672 554.29 297.805 553.856 298.071 553.541C298.337 553.226 298.685 552.996 299.115 552.851C299.549 552.703 300.016 552.607 300.515 552.562C301.172 552.497 301.642 552.43 301.924 552.359C302.207 552.288 302.348 552.134 302.348 551.896V551.867C302.348 551.562 302.249 551.326 302.052 551.158C301.859 550.991 301.583 550.908 301.224 550.908C300.847 550.908 300.546 550.988 300.323 551.149C300.099 551.309 299.951 551.514 299.879 551.761L297.938 551.607C298.082 550.932 298.44 550.396 299.012 550.001C299.587 549.606 300.328 549.408 301.234 549.408C301.796 549.408 302.322 549.495 302.811 549.668C303.301 549.842 303.695 550.114 303.994 550.483C304.296 550.85 304.447 551.327 304.447 551.915V556.911H302.456V555.884H302.397C302.213 556.228 301.937 556.509 301.569 556.728C301.205 556.943 300.743 557.051 300.185 557.051ZM300.786 555.633C301.246 555.633 301.624 555.503 301.919 555.243C302.215 554.979 302.363 554.653 302.363 554.264V553.478C302.281 553.533 302.153 553.581 301.978 553.623C301.808 553.664 301.624 553.701 301.427 553.733C301.233 553.762 301.059 553.788 300.904 553.811C300.536 553.862 300.239 553.963 300.012 554.114C299.789 554.265 299.677 554.486 299.677 554.775C299.677 555.058 299.781 555.272 299.988 555.416C300.198 555.561 300.464 555.633 300.786 555.633ZM307.086 559.207C307.668 559.599 308.468 559.795 309.486 559.795C310.209 559.795 310.848 559.689 311.403 559.477C311.958 559.264 312.393 558.949 312.709 558.532C313.027 558.114 313.187 557.598 313.187 556.984V549.504H311.102V550.749H311.023C310.931 550.546 310.797 550.342 310.619 550.136C310.442 549.93 310.21 549.758 309.925 549.62C309.639 549.479 309.284 549.408 308.86 549.408C308.308 549.408 307.799 549.549 307.332 549.832C306.869 550.112 306.496 550.532 306.214 551.091C305.935 551.65 305.795 552.351 305.795 553.193C305.795 554.013 305.931 554.69 306.204 555.223C306.48 555.757 306.85 556.154 307.313 556.415C307.779 556.675 308.297 556.805 308.865 556.805C309.47 556.805 309.946 556.681 310.294 556.434C310.642 556.183 310.885 555.905 311.023 555.6H311.112V556.955C311.112 557.44 310.963 557.789 310.664 558.001C310.368 558.213 309.992 558.319 309.535 558.319C309.072 558.319 308.716 558.236 308.466 558.069C308.22 557.905 308.054 557.723 307.968 557.524L306.027 557.779C306.151 558.339 306.505 558.814 307.086 559.207ZM310.703 554.712C310.427 555.079 310.036 555.262 309.53 555.262C309.015 555.262 308.62 555.076 308.348 554.703C308.075 554.33 307.939 553.823 307.939 553.184C307.939 552.554 308.073 552.039 308.343 551.641C308.615 551.242 309.011 551.043 309.53 551.043C310.039 551.043 310.432 551.237 310.708 551.626C310.984 552.015 311.122 552.534 311.122 553.184C311.122 553.836 310.982 554.346 310.703 554.712ZM314.857 556.911V549.504H316.956V556.911H314.857ZM320.057 556.574C320.616 556.895 321.283 557.056 322.058 557.056C322.731 557.056 323.315 556.937 323.807 556.699C324.3 556.458 324.686 556.122 324.965 555.691C325.248 555.26 325.406 554.762 325.438 554.196H323.457C323.395 554.592 323.241 554.897 322.994 555.113C322.748 555.325 322.444 555.431 322.083 555.431C321.593 555.431 321.201 555.238 320.905 554.852C320.612 554.463 320.466 553.915 320.466 553.208C320.466 552.507 320.614 551.965 320.91 551.583C321.205 551.2 321.596 551.009 322.083 551.009C322.467 551.009 322.777 551.123 323.014 551.351C323.254 551.576 323.402 551.874 323.457 552.243H325.438C325.409 551.671 325.25 551.173 324.96 550.749C324.675 550.324 324.282 549.995 323.783 549.76C323.287 549.525 322.708 549.408 322.048 549.408C321.283 549.408 320.622 549.57 320.067 549.895C319.512 550.216 319.083 550.665 318.781 551.24C318.482 551.813 318.333 552.478 318.333 553.237C318.333 553.986 318.48 554.648 318.776 555.223C319.075 555.799 319.502 556.249 320.057 556.574Z" fill="#B6B4BA"/>
<path fill-rule="evenodd" clip-rule="evenodd" d="M268.894 539.999C269.932 541.271 271.078 542.452 272.317 543.529C271.491 546.206 271.047 549.051 271.047 551.999C271.047 554.947 271.491 557.792 272.317 560.469C271.078 561.546 269.932 562.727 268.894 563.999C267.855 562.727 266.71 561.546 265.471 560.469C266.296 557.791 266.741 554.947 266.741 551.999C266.741 549.051 266.296 546.207 265.471 543.529C266.71 542.452 267.855 541.271 268.894 539.999ZM263.103 558.618C261.792 557.699 260.4 556.886 258.941 556.194C259.346 554.867 259.563 553.458 259.563 551.999C259.563 550.54 259.346 549.131 258.941 547.804C260.4 547.112 261.792 546.299 263.103 545.38C263.605 547.505 263.87 549.721 263.87 551.999C263.87 554.277 263.605 556.493 263.103 558.618ZM273.918 551.999C273.918 554.277 274.183 556.493 274.684 558.618C275.996 557.699 277.387 556.886 278.847 556.194C278.442 554.867 278.224 553.458 278.224 551.999C278.224 550.54 278.442 549.131 278.847 547.804C277.387 547.112 275.996 546.299 274.684 545.38C274.183 547.505 273.918 549.721 273.918 551.999Z" fill="#B6B4BA"/>
<path d="M56 72C56 56.536 68.536 44 84 44H428C443.464 44 456 56.536 456 72V108H56V72Z" fill="white"/>
<g style="mix-blend-mode:multiply">
<rect x="114" y="60" width="284" height="32" fill="white"/>
</g>
<rect x="408" y="60" width="32" height="32" rx="16" fill="#F5F5F7"/>
<path d="M424 75.041L427.987 71.0224C428.182 70.8258 428.5 70.8252 428.696 71.021L428.979 71.3041C429.175 71.4999 429.174 71.8176 428.977 72.0126L424.959 75.9995L428.963 80.0035C429.158 80.1988 429.158 80.5154 428.963 80.7106L428.696 80.9778C428.5 81.1737 428.182 81.173 427.987 80.9764L424 76.958L419.996 80.962C419.801 81.1573 419.484 81.1573 419.289 80.962L419.038 80.7106C418.842 80.5153 418.842 80.1987 419.038 80.0034L423.042 75.9994L419.023 72.0126C418.827 71.8176 418.826 71.4999 419.022 71.3041L419.289 71.0369C419.485 70.8417 419.801 70.8417 419.996 71.037L424 75.041Z" fill="#4E4D52"/>
<rect x="212" y="60" width="88" height="32" rx="16" fill="white"/>
<path d="M225.233 81V70.8182H231.378V71.9119H226.466V75.3523H231.06V76.446H226.466V79.9062H231.457V81H225.233ZM236.762 73.3636V74.358H232.805V73.3636H236.762ZM233.958 71.5341H235.131V78.8125C235.131 79.1439 235.179 79.3925 235.276 79.5582C235.375 79.7206 235.501 79.83 235.653 79.8864C235.809 79.9394 235.973 79.9659 236.146 79.9659C236.275 79.9659 236.381 79.9593 236.464 79.946C236.547 79.9295 236.613 79.9162 236.663 79.9062L236.901 80.9602C236.822 80.9901 236.711 81.0199 236.568 81.0497C236.426 81.0829 236.245 81.0994 236.026 81.0994C235.695 81.0994 235.37 81.0282 235.052 80.8857C234.737 80.7431 234.475 80.526 234.266 80.2344C234.061 79.9427 233.958 79.5748 233.958 79.1307V71.5341ZM239.864 76.4062V81H238.691V70.8182H239.864V74.5568H239.964C240.143 74.1624 240.411 73.8492 240.769 73.6172C241.13 73.3819 241.611 73.2642 242.211 73.2642C242.731 73.2642 243.187 73.3686 243.578 73.5774C243.969 73.7829 244.272 74.0994 244.488 74.527C244.707 74.9512 244.816 75.4915 244.816 76.1477V81H243.643V76.2273C243.643 75.6207 243.485 75.1518 243.17 74.8203C242.859 74.4856 242.426 74.3182 241.873 74.3182C241.488 74.3182 241.144 74.3994 240.839 74.5618C240.537 74.7242 240.299 74.9612 240.123 75.2727C239.951 75.5843 239.864 75.9621 239.864 76.4062ZM250.164 81.1591C249.428 81.1591 248.794 80.9967 248.26 80.6719C247.73 80.3438 247.32 79.8864 247.032 79.2997C246.747 78.7098 246.605 78.0237 246.605 77.2415C246.605 76.4593 246.747 75.7699 247.032 75.1733C247.32 74.5734 247.722 74.1061 248.235 73.7713C248.752 73.4332 249.356 73.2642 250.045 73.2642C250.443 73.2642 250.835 73.3305 251.223 73.4631C251.611 73.5956 251.964 73.8111 252.282 74.1094C252.6 74.4044 252.854 74.7955 253.043 75.2827C253.232 75.7699 253.326 76.3698 253.326 77.0824V77.5795H247.44V76.5653H252.133C252.133 76.1345 252.047 75.75 251.874 75.4119C251.705 75.0739 251.463 74.8071 251.149 74.6115C250.837 74.416 250.469 74.3182 250.045 74.3182C249.578 74.3182 249.173 74.4342 248.832 74.6662C248.494 74.8949 248.234 75.1932 248.051 75.5611C247.869 75.929 247.778 76.3234 247.778 76.7443V77.4205C247.778 77.9972 247.877 78.486 248.076 78.8871C248.278 79.2848 248.558 79.5881 248.916 79.7969C249.274 80.0024 249.69 80.1051 250.164 80.1051C250.472 80.1051 250.751 80.062 250.999 79.9759C251.251 79.8864 251.468 79.7538 251.651 79.5781C251.833 79.3991 251.974 79.1771 252.073 78.9119L253.207 79.2301C253.088 79.6146 252.887 79.9527 252.605 80.2443C252.324 80.5327 251.976 80.758 251.561 80.9205C251.147 81.0795 250.681 81.1591 250.164 81.1591ZM255.111 81V73.3636H256.244V74.517H256.324C256.463 74.1392 256.715 73.8326 257.08 73.5973C257.444 73.362 257.855 73.2443 258.313 73.2443C258.399 73.2443 258.507 73.246 258.636 73.2493C258.765 73.2526 258.863 73.2576 258.929 73.2642V74.4574C258.889 74.4474 258.798 74.4325 258.656 74.4126C258.517 74.3894 258.369 74.3778 258.213 74.3778C257.842 74.3778 257.511 74.4557 257.219 74.6115C256.931 74.764 256.702 74.9761 256.533 75.2479C256.367 75.5163 256.284 75.8229 256.284 76.1676V81H255.111ZM263.289 81.1591C262.553 81.1591 261.919 80.9967 261.385 80.6719C260.855 80.3438 260.445 79.8864 260.157 79.2997C259.872 78.7098 259.73 78.0237 259.73 77.2415C259.73 76.4593 259.872 75.7699 260.157 75.1733C260.445 74.5734 260.847 74.1061 261.36 73.7713C261.877 73.4332 262.481 73.2642 263.17 73.2642C263.568 73.2642 263.96 73.3305 264.348 73.4631C264.736 73.5956 265.089 73.8111 265.407 74.1094C265.725 74.4044 265.979 74.7955 266.168 75.2827C266.357 75.7699 266.451 76.3698 266.451 77.0824V77.5795H260.565V76.5653H265.258C265.258 76.1345 265.172 75.75 264.999 75.4119C264.83 75.0739 264.588 74.8071 264.274 74.6115C263.962 74.416 263.594 74.3182 263.17 74.3182C262.703 74.3182 262.298 74.4342 261.957 74.6662C261.619 74.8949 261.359 75.1932 261.176 75.5611C260.994 75.929 260.903 76.3234 260.903 76.7443V77.4205C260.903 77.9972 261.002 78.486 261.201 78.8871C261.403 79.2848 261.683 79.5881 262.041 79.7969C262.399 80.0024 262.815 80.1051 263.289 80.1051C263.597 80.1051 263.876 80.062 264.124 79.9759C264.376 79.8864 264.593 79.7538 264.776 79.5781C264.958 79.3991 265.099 79.1771 265.198 78.9119L266.332 79.2301C266.213 79.6146 266.012 79.9527 265.73 80.2443C265.449 80.5327 265.101 80.758 264.686 80.9205C264.272 81.0795 263.806 81.1591 263.289 81.1591ZM273.048 77.8778V73.3636H274.222V81H273.048V79.7074H272.969C272.79 80.0952 272.512 80.425 272.134 80.6967C271.756 80.9652 271.279 81.0994 270.702 81.0994C270.225 81.0994 269.8 80.995 269.429 80.7862C269.058 80.5741 268.766 80.2559 268.554 79.8317C268.342 79.4041 268.236 78.8655 268.236 78.2159V73.3636H269.409V78.1364C269.409 78.6932 269.565 79.1373 269.877 79.4688C270.191 79.8002 270.593 79.9659 271.08 79.9659C271.371 79.9659 271.668 79.8913 271.97 79.7422C272.275 79.593 272.53 79.3643 272.735 79.0561C272.944 78.7479 273.048 78.3551 273.048 77.8778ZM276.371 81V73.3636H277.504V74.5568H277.604C277.763 74.1491 278.02 73.8326 278.374 73.6072C278.729 73.3786 279.155 73.2642 279.652 73.2642C280.156 73.2642 280.575 73.3786 280.91 73.6072C281.248 73.8326 281.511 74.1491 281.7 74.5568H281.78C281.975 74.1624 282.269 73.8492 282.66 73.6172C283.051 73.3819 283.52 73.2642 284.067 73.2642C284.75 73.2642 285.308 73.478 285.742 73.9055C286.176 74.3298 286.393 74.991 286.393 75.8892V81H285.22V75.8892C285.22 75.3258 285.066 74.9231 284.758 74.6811C284.45 74.4392 284.087 74.3182 283.669 74.3182C283.132 74.3182 282.716 74.4806 282.421 74.8054C282.126 75.1269 281.979 75.5346 281.979 76.0284V81H280.786V75.7699C280.786 75.3357 280.645 74.986 280.363 74.7209C280.081 74.4524 279.718 74.3182 279.274 74.3182C278.969 74.3182 278.684 74.3994 278.419 74.5618C278.157 74.7242 277.945 74.9496 277.783 75.2379C277.624 75.523 277.544 75.8527 277.544 76.2273V81H276.371Z" fill="#77767A"/>
<mask id="path-29-inside-1_2432_59536" fill="white">
<path d="M56 108H456V156H56V108Z"/>
</mask>
<path d="M56 108H456V156H56V108Z" fill="white"/>
<path fill-rule="evenodd" clip-rule="evenodd" d="M75.397 125.793L75.3591 125.799H75.3473C75.2597 125.816 75.1733 125.837 75.0886 125.863C73.6704 126.264 73.252 127.575 73.252 128.375V132.262L75.3418 131.344L78.252 128.043C78.252 128.043 78.9746 127.125 78.252 127.125C77.5895 127.125 77.5179 126.321 78.0823 126.187H88.2302C88.3762 126.187 88.522 126.196 88.6669 126.215C88.6178 125.87 88.4994 125.539 88.3189 125.241C88.1384 124.944 87.8994 124.686 87.6165 124.483C87.3336 124.28 87.0125 124.137 86.6727 124.061C86.3329 123.986 85.9813 123.98 85.6391 124.044L75.6938 125.742C75.5954 125.758 75.4962 125.775 75.397 125.793Z" fill="url(#paint0_linear_2432_59536)"/>
<path d="M88.2295 127.125H75.7295C75.0667 127.126 74.4312 127.389 73.9625 127.858C73.4938 128.327 73.2302 128.962 73.2295 129.625V137.125C73.2302 137.788 73.4938 138.423 73.9625 138.892C74.4312 139.361 75.0667 139.624 75.7295 139.625H88.2295C88.8923 139.624 89.5278 139.361 89.9965 138.892C90.4651 138.423 90.7288 137.788 90.7295 137.125V129.625C90.7288 128.962 90.4651 128.327 89.9965 127.858C89.5278 127.389 88.8923 127.126 88.2295 127.125Z" fill="url(#paint1_linear_2432_59536)"/>
<path d="M85.6825 134.414C85.8881 134.552 86.1297 134.625 86.377 134.625C86.7085 134.625 87.0264 134.493 87.2608 134.259C87.4953 134.024 87.627 133.707 87.627 133.375C87.627 133.128 87.5536 132.886 87.4163 132.681C87.2789 132.475 87.0837 132.315 86.8553 132.22C86.6269 132.126 86.3756 132.101 86.1331 132.149C85.8906 132.197 85.6679 132.316 85.4931 132.491C85.3183 132.666 85.1992 132.889 85.151 133.131C85.1027 133.374 85.1275 133.625 85.2221 133.853C85.3167 134.082 85.4769 134.277 85.6825 134.414Z" fill="url(#paint2_linear_2432_59536)"/>
<path d="M104.524 137.169C103.739 137.166 103.067 136.959 102.511 136.548C101.954 136.137 101.528 135.538 101.233 134.753C100.938 133.967 100.79 133.021 100.79 131.914C100.79 130.81 100.938 129.867 101.233 129.085C101.531 128.303 101.959 127.706 102.516 127.295C103.076 126.884 103.745 126.679 104.524 126.679C105.303 126.679 105.971 126.886 106.528 127.3C107.085 127.711 107.51 128.308 107.805 129.09C108.104 129.869 108.253 130.81 108.253 131.914C108.253 133.024 108.105 133.972 107.81 134.758C107.515 135.54 107.089 136.138 106.533 136.553C105.976 136.964 105.306 137.169 104.524 137.169ZM104.524 135.842C105.214 135.842 105.752 135.505 106.14 134.832C106.531 134.16 106.727 133.187 106.727 131.914C106.727 131.069 106.637 130.355 106.458 129.771C106.282 129.185 106.029 128.741 105.697 128.439C105.369 128.134 104.978 127.982 104.524 127.982C103.838 127.982 103.299 128.32 102.908 128.996C102.517 129.672 102.32 130.645 102.317 131.914C102.317 132.763 102.405 133.48 102.58 134.067C102.759 134.65 103.013 135.093 103.341 135.394C103.669 135.692 104.063 135.842 104.524 135.842ZM116.087 135.31L110.369 129.592L111.309 128.653L117.026 134.37L116.087 135.31ZM111.309 135.31L110.369 134.37L116.087 128.653L117.026 129.592L111.309 135.31ZM122.726 126.679C123.18 126.682 123.628 126.765 124.069 126.928C124.51 127.09 124.907 127.355 125.262 127.723C125.62 128.091 125.905 128.588 126.117 129.214C126.332 129.838 126.442 130.613 126.445 131.541C126.445 132.433 126.356 133.227 126.177 133.923C125.998 134.615 125.741 135.2 125.406 135.678C125.075 136.155 124.672 136.518 124.198 136.766C123.724 137.015 123.19 137.139 122.597 137.139C121.991 137.139 121.452 137.02 120.981 136.781C120.511 136.543 120.128 136.213 119.833 135.792C119.538 135.368 119.354 134.88 119.281 134.33H120.797C120.897 134.768 121.099 135.122 121.404 135.394C121.712 135.663 122.11 135.797 122.597 135.797C123.343 135.797 123.925 135.472 124.342 134.822C124.76 134.17 124.97 133.258 124.974 132.088H124.894C124.722 132.373 124.506 132.618 124.248 132.824C123.992 133.029 123.706 133.188 123.388 133.301C123.069 133.414 122.73 133.47 122.368 133.47C121.782 133.47 121.248 133.326 120.768 133.038C120.287 132.749 119.904 132.353 119.619 131.849C119.334 131.346 119.192 130.771 119.192 130.124C119.192 129.481 119.337 128.898 119.629 128.374C119.924 127.851 120.335 127.436 120.862 127.131C121.392 126.823 122.014 126.672 122.726 126.679ZM122.731 127.972C122.344 127.972 121.994 128.068 121.682 128.26C121.374 128.449 121.131 128.706 120.952 129.031C120.773 129.352 120.683 129.71 120.683 130.104C120.683 130.499 120.769 130.857 120.942 131.178C121.117 131.496 121.356 131.75 121.657 131.939C121.962 132.125 122.31 132.217 122.702 132.217C122.993 132.217 123.265 132.161 123.517 132.048C123.769 131.936 123.989 131.78 124.178 131.581C124.367 131.379 124.515 131.15 124.621 130.895C124.727 130.64 124.78 130.371 124.78 130.089C124.78 129.715 124.69 129.367 124.511 129.045C124.336 128.724 124.094 128.465 123.785 128.27C123.477 128.071 123.126 127.972 122.731 127.972ZM128.38 137V126.818H129.867V130.602H129.956C130.042 130.442 130.167 130.259 130.329 130.05C130.492 129.841 130.717 129.659 131.005 129.503C131.294 129.344 131.675 129.264 132.149 129.264C132.765 129.264 133.315 129.42 133.799 129.732C134.283 130.043 134.663 130.492 134.938 131.079C135.216 131.665 135.355 132.371 135.355 133.197C135.355 134.022 135.218 134.73 134.943 135.32C134.668 135.906 134.29 136.359 133.809 136.677C133.329 136.992 132.78 137.149 132.164 137.149C131.7 137.149 131.32 137.071 131.025 136.915C130.734 136.76 130.505 136.577 130.339 136.369C130.173 136.16 130.046 135.974 129.956 135.812H129.832V137H128.38ZM129.837 133.182C129.837 133.719 129.915 134.189 130.071 134.594C130.226 134.998 130.452 135.315 130.747 135.543C131.042 135.769 131.403 135.881 131.831 135.881C132.275 135.881 132.646 135.764 132.944 135.528C133.243 135.29 133.468 134.967 133.62 134.559C133.776 134.151 133.854 133.692 133.854 133.182C133.854 132.678 133.778 132.226 133.625 131.825C133.476 131.424 133.251 131.107 132.949 130.875C132.651 130.643 132.278 130.527 131.831 130.527C131.4 130.527 131.035 130.638 130.737 130.86C130.442 131.082 130.218 131.392 130.066 131.79C129.913 132.187 129.837 132.652 129.837 133.182ZM138.004 137.094C137.732 137.094 137.499 136.998 137.303 136.806C137.108 136.611 137.01 136.375 137.01 136.1C137.01 135.828 137.108 135.596 137.303 135.404C137.499 135.209 137.732 135.111 138.004 135.111C138.276 135.111 138.51 135.209 138.705 135.404C138.901 135.596 138.998 135.828 138.998 136.1C138.998 136.282 138.952 136.45 138.859 136.602C138.77 136.751 138.65 136.871 138.501 136.96C138.352 137.05 138.186 137.094 138.004 137.094ZM141.969 137.094C141.697 137.094 141.463 136.998 141.268 136.806C141.072 136.611 140.975 136.375 140.975 136.1C140.975 135.828 141.072 135.596 141.268 135.404C141.463 135.209 141.697 135.111 141.969 135.111C142.241 135.111 142.474 135.209 142.67 135.404C142.865 135.596 142.963 135.828 142.963 136.1C142.963 136.282 142.917 136.45 142.824 136.602C142.735 136.751 142.615 136.871 142.466 136.96C142.317 137.05 142.151 137.094 141.969 137.094ZM145.934 137.094C145.662 137.094 145.428 136.998 145.233 136.806C145.037 136.611 144.939 136.375 144.939 136.1C144.939 135.828 145.037 135.596 145.233 135.404C145.428 135.209 145.662 135.111 145.934 135.111C146.206 135.111 146.439 135.209 146.635 135.404C146.83 135.596 146.928 135.828 146.928 136.1C146.928 136.282 146.882 136.45 146.789 136.602C146.699 136.751 146.58 136.871 146.431 136.96C146.282 137.05 146.116 137.094 145.934 137.094ZM152.075 137.139C151.392 137.139 150.782 137.022 150.245 136.786C149.712 136.551 149.289 136.224 148.978 135.807C148.669 135.386 148.504 134.899 148.48 134.345H150.042C150.061 134.647 150.163 134.909 150.345 135.131C150.53 135.349 150.772 135.518 151.071 135.638C151.369 135.757 151.7 135.817 152.065 135.817C152.466 135.817 152.821 135.747 153.129 135.608C153.44 135.469 153.684 135.275 153.86 135.026C154.035 134.774 154.123 134.484 154.123 134.156C154.123 133.815 154.035 133.515 153.86 133.256C153.687 132.995 153.434 132.789 153.099 132.64C152.768 132.491 152.367 132.416 151.896 132.416H151.036V131.163H151.896C152.274 131.163 152.605 131.095 152.89 130.96C153.179 130.824 153.404 130.635 153.566 130.393C153.729 130.147 153.81 129.861 153.81 129.533C153.81 129.218 153.739 128.944 153.596 128.712C153.457 128.477 153.258 128.293 153 128.161C152.744 128.028 152.443 127.962 152.095 127.962C151.763 127.962 151.453 128.023 151.165 128.146C150.88 128.265 150.648 128.437 150.469 128.663C150.29 128.885 150.194 129.152 150.181 129.463H148.694C148.711 128.913 148.873 128.429 149.181 128.011C149.493 127.594 149.904 127.267 150.414 127.032C150.925 126.797 151.492 126.679 152.115 126.679C152.768 126.679 153.331 126.807 153.805 127.062C154.282 127.314 154.65 127.65 154.909 128.071C155.171 128.492 155.3 128.953 155.297 129.453C155.3 130.023 155.141 130.507 154.819 130.905C154.501 131.303 154.077 131.569 153.547 131.705V131.785C154.223 131.888 154.746 132.156 155.118 132.59C155.492 133.024 155.678 133.563 155.674 134.206C155.678 134.766 155.522 135.268 155.207 135.712C154.895 136.156 154.47 136.506 153.929 136.761C153.389 137.013 152.771 137.139 152.075 137.139ZM161.417 126.818V137H159.875V128.359H159.816L157.38 129.95V128.479L159.92 126.818H161.417ZM168.034 126.818V137H166.493V128.359H166.433L163.997 129.95V128.479L166.537 126.818H168.034ZM174.174 126.679C174.628 126.682 175.075 126.765 175.516 126.928C175.957 127.09 176.355 127.355 176.709 127.723C177.067 128.091 177.352 128.588 177.564 129.214C177.78 129.838 177.889 130.613 177.892 131.541C177.892 132.433 177.803 133.227 177.624 133.923C177.445 134.615 177.188 135.2 176.853 135.678C176.522 136.155 176.119 136.518 175.645 136.766C175.171 137.015 174.638 137.139 174.044 137.139C173.438 137.139 172.899 137.02 172.429 136.781C171.958 136.543 171.575 136.213 171.28 135.792C170.985 135.368 170.801 134.88 170.728 134.33H172.245C172.344 134.768 172.546 135.122 172.851 135.394C173.159 135.663 173.557 135.797 174.044 135.797C174.79 135.797 175.372 135.472 175.789 134.822C176.207 134.17 176.417 133.258 176.421 132.088H176.341C176.169 132.373 175.953 132.618 175.695 132.824C175.44 133.029 175.153 133.188 174.835 133.301C174.517 133.414 174.177 133.47 173.816 133.47C173.229 133.47 172.695 133.326 172.215 133.038C171.734 132.749 171.351 132.353 171.066 131.849C170.781 131.346 170.639 130.771 170.639 130.124C170.639 129.481 170.785 128.898 171.076 128.374C171.371 127.851 171.782 127.436 172.309 127.131C172.84 126.823 173.461 126.672 174.174 126.679ZM174.179 127.972C173.791 127.972 173.441 128.068 173.13 128.26C172.821 128.449 172.578 128.706 172.399 129.031C172.22 129.352 172.13 129.71 172.13 130.104C172.13 130.499 172.217 130.857 172.389 131.178C172.565 131.496 172.803 131.75 173.105 131.939C173.41 132.125 173.758 132.217 174.149 132.217C174.44 132.217 174.712 132.161 174.964 132.048C175.216 131.936 175.436 131.78 175.625 131.581C175.814 131.379 175.962 131.15 176.068 130.895C176.174 130.64 176.227 130.371 176.227 130.089C176.227 129.715 176.137 129.367 175.958 129.045C175.783 128.724 175.541 128.465 175.233 128.27C174.924 128.071 174.573 127.972 174.179 127.972Z" fill="#4E4D52"/>
<path d="M369.453 137.139C368.704 137.139 368.066 136.935 367.539 136.528C367.012 136.117 366.609 135.522 366.331 134.743C366.053 133.961 365.913 133.016 365.913 131.909C365.913 130.809 366.053 129.869 366.331 129.09C366.613 128.308 367.017 127.711 367.544 127.3C368.074 126.886 368.711 126.679 369.453 126.679C370.196 126.679 370.83 126.886 371.357 127.3C371.888 127.711 372.292 128.308 372.57 129.09C372.852 129.869 372.993 130.809 372.993 131.909C372.993 133.016 372.854 133.961 372.575 134.743C372.297 135.522 371.894 136.117 371.367 136.528C370.84 136.935 370.202 137.139 369.453 137.139ZM369.453 136.045C370.196 136.045 370.772 135.687 371.183 134.972C371.594 134.256 371.8 133.235 371.8 131.909C371.8 131.027 371.705 130.277 371.516 129.657C371.331 129.037 371.062 128.565 370.711 128.24C370.363 127.915 369.944 127.753 369.453 127.753C368.717 127.753 368.142 128.116 367.728 128.842C367.314 129.564 367.107 130.587 367.107 131.909C367.107 132.791 367.199 133.54 367.385 134.156C367.571 134.773 367.837 135.242 368.185 135.563C368.537 135.885 368.959 136.045 369.453 136.045ZM375.402 137.08C375.156 137.08 374.946 136.992 374.77 136.816C374.595 136.64 374.507 136.43 374.507 136.185C374.507 135.939 374.595 135.729 374.77 135.553C374.946 135.378 375.156 135.29 375.402 135.29C375.647 135.29 375.857 135.378 376.033 135.553C376.209 135.729 376.297 135.939 376.297 136.185C376.297 136.347 376.255 136.496 376.172 136.632C376.093 136.768 375.985 136.877 375.849 136.96C375.717 137.04 375.567 137.08 375.402 137.08ZM380.745 126.818V137H379.512V128.111H379.452L376.966 129.761V128.509L379.512 126.818H380.745ZM383.673 137V136.105L387.034 132.426C387.428 131.995 387.753 131.621 388.008 131.303C388.264 130.981 388.452 130.679 388.575 130.398C388.701 130.113 388.764 129.814 388.764 129.503C388.764 129.145 388.678 128.835 388.506 128.573C388.336 128.311 388.104 128.109 387.809 127.967C387.515 127.824 387.183 127.753 386.815 127.753C386.424 127.753 386.083 127.834 385.791 127.996C385.503 128.156 385.279 128.379 385.12 128.668C384.964 128.956 384.886 129.294 384.886 129.682H383.713C383.713 129.085 383.85 128.562 384.126 128.111C384.401 127.66 384.775 127.309 385.249 127.057C385.726 126.805 386.262 126.679 386.855 126.679C387.452 126.679 387.98 126.805 388.441 127.057C388.902 127.309 389.263 127.648 389.525 128.076C389.787 128.504 389.917 128.979 389.917 129.503C389.917 129.877 389.849 130.244 389.714 130.602C389.581 130.956 389.349 131.352 389.018 131.79C388.689 132.224 388.234 132.754 387.65 133.381L385.363 135.827V135.906H390.096V137H383.673ZM395.331 137.139C394.748 137.139 394.223 137.023 393.756 136.791C393.288 136.559 392.914 136.241 392.632 135.837C392.35 135.432 392.196 134.972 392.17 134.455H393.363C393.409 134.915 393.618 135.296 393.989 135.598C394.364 135.896 394.811 136.045 395.331 136.045C395.749 136.045 396.12 135.948 396.445 135.752C396.773 135.557 397.03 135.288 397.216 134.947C397.405 134.602 397.499 134.213 397.499 133.778C397.499 133.334 397.401 132.938 397.206 132.59C397.014 132.239 396.748 131.962 396.41 131.76C396.072 131.558 395.686 131.455 395.252 131.452C394.94 131.448 394.621 131.496 394.292 131.596C393.964 131.692 393.694 131.816 393.482 131.969L392.329 131.83L392.945 126.818H398.235V127.912H393.979L393.621 130.915H393.681C393.89 130.749 394.152 130.612 394.466 130.502C394.781 130.393 395.109 130.338 395.451 130.338C396.074 130.338 396.629 130.487 397.116 130.786C397.607 131.08 397.991 131.485 398.27 131.999C398.551 132.512 398.692 133.099 398.692 133.759C398.692 134.408 398.546 134.988 398.255 135.499C397.966 136.006 397.569 136.407 397.062 136.702C396.555 136.993 395.978 137.139 395.331 137.139ZM404.048 137.139C403.63 137.133 403.213 137.053 402.795 136.901C402.377 136.748 401.996 136.491 401.652 136.13C401.307 135.765 401.03 135.273 400.821 134.653C400.613 134.03 400.508 133.248 400.508 132.307C400.508 131.405 400.593 130.607 400.762 129.911C400.931 129.211 401.176 128.623 401.498 128.146C401.819 127.665 402.207 127.3 402.661 127.052C403.118 126.803 403.634 126.679 404.207 126.679C404.777 126.679 405.284 126.793 405.728 127.022C406.176 127.247 406.54 127.562 406.822 127.967C407.104 128.371 407.286 128.837 407.369 129.364H406.156C406.043 128.906 405.824 128.527 405.5 128.225C405.175 127.924 404.744 127.773 404.207 127.773C403.418 127.773 402.797 128.116 402.343 128.802C401.892 129.488 401.665 130.451 401.662 131.69H401.741C401.927 131.409 402.147 131.168 402.402 130.969C402.661 130.767 402.946 130.612 403.257 130.502C403.569 130.393 403.899 130.338 404.247 130.338C404.83 130.338 405.364 130.484 405.848 130.776C406.332 131.064 406.719 131.463 407.011 131.974C407.303 132.481 407.449 133.062 407.449 133.719C407.449 134.348 407.308 134.925 407.026 135.449C406.744 135.969 406.348 136.384 405.838 136.692C405.331 136.997 404.734 137.146 404.048 137.139ZM404.048 136.045C404.466 136.045 404.84 135.941 405.172 135.732C405.506 135.523 405.77 135.243 405.962 134.892C406.158 134.541 406.255 134.15 406.255 133.719C406.255 133.298 406.161 132.915 405.972 132.57C405.786 132.222 405.529 131.946 405.201 131.74C404.877 131.535 404.505 131.432 404.088 131.432C403.773 131.432 403.48 131.495 403.208 131.621C402.936 131.743 402.697 131.912 402.492 132.128C402.29 132.343 402.131 132.59 402.015 132.869C401.899 133.144 401.841 133.434 401.841 133.739C401.841 134.143 401.935 134.521 402.124 134.872C402.316 135.223 402.578 135.507 402.909 135.722C403.244 135.938 403.624 136.045 404.048 136.045ZM413.52 137V126.818H419.665V127.912H414.753V131.352H419.347V132.446H414.753V135.906H419.744V137H413.52ZM421.33 127.912V126.818H428.967V127.912H425.765V137H424.532V127.912H421.33ZM430.87 137V126.818H432.103V131.352H437.532V126.818H438.765V137H437.532V132.446H432.103V137H430.87Z" fill="#4E4D52"/>
<path d="M56 109H456V107H56V109ZM456 155H56V157H456V155Z" fill="#EDEDF3" mask="url(#path-29-inside-1_2432_59536)"/>
</g>
<defs>
<filter id="filter0_d_2432_59536" x="0" y="0" width="512" height="672" filterUnits="userSpaceOnUse" color-interpolation-filters="sRGB">
<feFlood flood-opacity="0" result="BackgroundImageFix"/>
<feColorMatrix in="SourceAlpha" type="matrix" values="0 0 0 0 0 0 0 0 0 0 0 0 0 0 0 0 0 0 127 0" result="hardAlpha"/>
<feOffset dy="12"/>
<feGaussianBlur stdDeviation="28"/>
<feColorMatrix type="matrix" values="0 0 0 0 0.466667 0 0 0 0 0.462745 0 0 0 0 0.478431 0 0 0 0.15 0"/>
<feBlend mode="multiply" in2="BackgroundImageFix" result="effect1_dropShadow_2432_59536"/>
<feBlend mode="normal" in="SourceGraphic" in2="effect1_dropShadow_2432_59536" result="shape"/>
</filter>
<linearGradient id="paint0_linear_2432_59536" x1="80.9594" y1="124.125" x2="80.9594" y2="132.125" gradientUnits="userSpaceOnUse">
<stop stop-color="#6851FF"/>
<stop offset="1" stop-color="#EDEBFF"/>
</linearGradient>
<linearGradient id="paint1_linear_2432_59536" x1="73.499" y1="127.125" x2="79.999" y2="139.625" gradientUnits="userSpaceOnUse">
<stop stop-color="#A799FF"/>
<stop offset="1" stop-color="#6851FF"/>
</linearGradient>
<linearGradient id="paint2_linear_2432_59536" x1="86.502" y1="132.125" x2="86.502" y2="134.625" gradientUnits="userSpaceOnUse">
<stop stop-color="white"/>
<stop offset="1" stop-color="white" stop-opacity="0"/>
</linearGradient>
<clipPath id="clip0_2432_59536">
<rect width="24" height="24" fill="white" transform="translate(120 316)"/>
</clipPath>
</defs>
</svg>
