<svg width="35" height="35" viewBox="0 0 35 35" fill="none" xmlns="http://www.w3.org/2000/svg">
<path opacity="1" d="M17.5003 0.312836C8.00034 0.312836 0.312836 8.00034 0.312836 17.5003C0.312836 27.0003 8.00034 34.6878 17.5003 34.6878C27.0003 34.6878 34.6878 27.0003 34.6878 17.5003C34.6878 8.00034 27.0003 0.312836 17.5003 0.312836ZM18.5003 7.31284C19.2503 6.37534 20.6253 5.75034 21.6878 5.68784C21.8128 6.93784 21.3128 8.25033 20.5628 9.12533C19.8128 10.0628 18.5628 10.7503 17.3753 10.6253C17.1878 9.37534 17.8128 8.06284 18.5003 7.31284ZM24.6878 24.5628C23.8128 25.8753 22.8753 27.1878 21.3753 27.2503C19.9378 27.2503 19.4378 26.3753 17.8128 26.3753C16.1253 26.3753 15.6253 27.1878 14.2503 27.2503C12.8128 27.3128 11.7503 25.8128 10.8128 24.5003C8.93784 21.8128 7.56283 16.9378 9.43783 13.6253C10.3753 12.0003 12.0628 10.9378 13.9378 10.9378C15.3128 10.9378 16.6253 11.8753 17.5003 11.8753C18.3753 11.8753 19.9378 10.6878 21.6253 10.8753C22.3128 10.8753 24.3128 11.1878 25.5628 13.0003C25.4378 13.0628 23.1878 14.3753 23.2503 17.1253C23.2503 20.3753 26.1253 21.5003 26.1253 21.5003C26.1253 21.5628 25.6878 23.0628 24.6878 24.5628Z" fill="black"/>
</svg>
