<svg width="32" height="32" viewBox="0 0 32 32" fill="none" xmlns="http://www.w3.org/2000/svg">
<circle cx="16" cy="16" r="15" fill="#006FF8"/>
<g clip-path="url(#clip0)">
<path d="M8.57591 9.09575C8.50165 9.09479 8.42808 9.11009 8.36036 9.1406C8.29265 9.1711 8.23243 9.21606 8.18394 9.27232C8.13546 9.32857 8.09987 9.39476 8.07969 9.46623C8.05951 9.53771 8.05522 9.61273 8.06713 9.68604L10.227 22.7979C10.2539 22.9583 10.3365 23.1042 10.4602 23.2098C10.584 23.3154 10.741 23.374 10.9037 23.3754H21.2655C21.3874 23.3769 21.5059 23.3346 21.5992 23.2562C21.6926 23.1777 21.7547 23.0684 21.7742 22.948L23.9341 9.68858C23.946 9.61528 23.9417 9.54026 23.9215 9.4688C23.9013 9.39734 23.8657 9.33116 23.8172 9.27492C23.7688 9.21868 23.7085 9.17373 23.6408 9.14324C23.5731 9.11275 23.4996 9.09745 23.4253 9.09841L8.57591 9.09575ZM17.6707 18.5722H14.3635L13.468 13.8938H18.4721L17.6707 18.5722Z" fill="white"/>
<path d="M23.2345 13.8872H18.4633L17.6625 18.5619H14.358L10.4561 23.1934C10.5797 23.3004 10.7374 23.3598 10.9009 23.3612H21.2569C21.3788 23.3628 21.4972 23.3205 21.5905 23.2421C21.6838 23.1637 21.7459 23.0545 21.7654 22.9342L23.2345 13.8872Z" fill="url(#paint0_linear)"/>
</g>
<defs>
<linearGradient id="paint0_linear" x1="24.3377" y1="15.1963" x2="18.8261" y2="23.0221" gradientUnits="userSpaceOnUse">
<stop offset="0.18" stop-color="#57A2FF"/>
<stop offset="1" stop-color="white"/>
</linearGradient>
<clipPath id="clip0">
<rect width="16" height="14.4384" fill="white" transform="translate(8 9)"/>
</clipPath>
</defs>
</svg>
