<svg width="24" height="24" viewBox="0 0 24 24" fill="none" xmlns="http://www.w3.org/2000/svg">
<path fill-rule="evenodd" clip-rule="evenodd" d="M12.0001 2C10.1927 2 8.72749 3.46525 8.72749 5.27274C8.72749 7.08022 10.1927 8.54548 12.0001 8.54548C13.8075 8.54548 15.2727 7.08022 15.2727 5.27274C15.2727 3.46525 13.8075 2 12.0001 2ZM10.2275 5.27274C10.2275 4.29372 11.0211 3.50006 12.0001 3.50006C12.9791 3.50006 13.7727 4.29372 13.7727 5.27274C13.7727 6.25176 12.9791 7.04541 12.0001 7.04541C11.0211 7.04541 10.2275 6.25176 10.2275 5.27274Z" fill="#6851FF"/>
<path d="M17.4075 7.13871C17.0448 6.93867 16.5886 7.07056 16.3886 7.43329C16.1886 7.79601 16.3205 8.25223 16.6832 8.45227C17.9032 9.12513 18.6714 10.1518 18.825 11.2619C18.8818 11.6722 19.2605 11.9588 19.6708 11.902C20.0811 11.8453 20.3677 11.4666 20.3109 11.0563C20.0785 9.37706 18.9444 7.9863 17.4075 7.13871Z" fill="#6851FF"/>
<path d="M7.3171 8.45216C7.67976 8.25202 7.81151 7.79576 7.61137 7.43309C7.41123 7.07042 6.955 6.93867 6.59234 7.13881C5.04926 7.99041 3.90877 9.38169 3.68846 11.0616C3.6346 11.4723 3.92387 11.8489 4.33457 11.9028C4.74527 11.9566 5.12187 11.6673 5.17574 11.2566C5.31981 10.1581 6.0853 9.13196 7.3171 8.45216Z" fill="#6851FF"/>
<path d="M8.86314 19.9788C9.10074 19.6395 9.56841 19.5571 9.9077 19.7947C10.5646 20.2547 11.2929 20.4999 12.0466 20.4999C12.7751 20.4999 13.4679 20.2771 14.1052 19.85C14.4493 19.6194 14.9152 19.7114 15.1458 20.0555C15.3764 20.3996 15.2843 20.8655 14.9403 21.0961C14.0773 21.6744 13.0972 22 12.0466 22C10.9548 22 9.93047 21.6419 9.04728 21.0234C8.70798 20.7858 8.62554 20.3181 8.86314 19.9788Z" fill="#6851FF"/>
<path fill-rule="evenodd" clip-rule="evenodd" d="M2 17.0458C2 15.2383 3.4652 13.7731 5.27263 13.7731C7.08005 13.7731 8.54525 15.2383 8.54525 17.0458C8.54525 18.8533 7.08005 20.3185 5.27263 20.3185C3.4652 20.3185 2 18.8533 2 17.0458ZM5.27263 15.2731C4.29364 15.2731 3.50001 16.0668 3.50001 17.0458C3.50001 18.0248 4.29364 18.8185 5.27263 18.8185C6.25161 18.8185 7.04524 18.0248 7.04524 17.0458C7.04524 16.0668 6.25161 15.2731 5.27263 15.2731Z" fill="#6851FF"/>
<path fill-rule="evenodd" clip-rule="evenodd" d="M18.7274 13.7731C16.92 13.7731 15.4547 15.2383 15.4547 17.0458C15.4547 18.8533 16.92 20.3185 18.7274 20.3185C20.5348 20.3185 22 18.8533 22 17.0458C22 15.2383 20.5348 13.7731 18.7274 13.7731ZM16.9548 17.0458C16.9548 16.0668 17.7484 15.2731 18.7274 15.2731C19.7064 15.2731 20.5 16.0668 20.5 17.0458C20.5 18.0248 19.7064 18.8185 18.7274 18.8185C17.7484 18.8185 16.9548 18.0248 16.9548 17.0458Z" fill="#6851FF"/>
</svg>
