<svg width="16" height="16" viewBox="0 0 16 16" fill="none" xmlns="http://www.w3.org/2000/svg">
<path d="M14.4939 4.32901C13.8233 3.15108 12.9135 2.21851 11.7645 1.53109C10.6153 0.843639 9.36077 0.5 7.99993 0.5C6.63927 0.5 5.38429 0.843744 4.23534 1.53109C3.08623 2.21847 2.17654 3.15108 1.50587 4.32901C0.835301 5.5069 0.5 6.79317 0.5 8.18778C0.5 9.86302 0.976803 11.3694 1.93065 12.7074C2.88439 14.0455 4.11648 14.9714 5.62683 15.4853C5.80264 15.5187 5.93278 15.4952 6.0174 15.4153C6.10206 15.3353 6.14433 15.2351 6.14433 15.1151C6.14433 15.0951 6.14266 14.9149 6.13941 14.5745C6.13606 14.2341 6.13448 13.9371 6.13448 13.6838L5.90987 13.7236C5.76665 13.7505 5.58599 13.7619 5.36787 13.7586C5.14985 13.7555 4.92353 13.7321 4.6892 13.6886C4.45476 13.6454 4.23671 13.5453 4.03487 13.3885C3.83314 13.2316 3.68993 13.0264 3.60527 12.7729L3.50762 12.5426C3.44253 12.3892 3.34006 12.2188 3.20006 12.0321C3.06006 11.8452 2.91849 11.7185 2.77528 11.6518L2.70691 11.6016C2.66135 11.5682 2.61907 11.528 2.57998 11.4814C2.54092 11.4347 2.51167 11.388 2.49214 11.3412C2.47258 11.2944 2.48879 11.256 2.54095 11.2259C2.59311 11.1958 2.68738 11.1812 2.82416 11.1812L3.01939 11.2111C3.14961 11.2378 3.31067 11.3177 3.5028 11.4513C3.69482 11.5847 3.85267 11.7582 3.97639 11.9717C4.1262 12.2454 4.30669 12.4539 4.51838 12.5974C4.7299 12.7409 4.94316 12.8125 5.15796 12.8125C5.37276 12.8125 5.55828 12.7959 5.7146 12.7627C5.87074 12.7293 6.01723 12.6791 6.15401 12.6124C6.2126 12.1651 6.37213 11.8215 6.63246 11.5813C6.26141 11.5413 5.92782 11.4811 5.63151 11.401C5.33538 11.3209 5.02935 11.1908 4.71365 11.0105C4.39778 10.8303 4.13574 10.6067 3.92747 10.3399C3.71917 10.0729 3.54822 9.72243 3.41486 9.28875C3.28143 8.8549 3.2147 8.35443 3.2147 7.7872C3.2147 6.97956 3.47191 6.29228 3.98624 5.72498C3.7453 5.11779 3.76805 4.4371 4.05454 3.683C4.24335 3.62287 4.52334 3.66799 4.89439 3.81809C5.2655 3.96826 5.53721 4.0969 5.70981 4.20356C5.8824 4.31018 6.02069 4.40053 6.12487 4.47381C6.73045 4.30036 7.35539 4.21362 7.99986 4.21362C8.64433 4.21362 9.26941 4.30036 9.87503 4.47381L10.2461 4.23367C10.4999 4.07344 10.7995 3.9266 11.1444 3.79313C11.4894 3.65972 11.7533 3.62297 11.9356 3.6831C12.2285 4.43724 12.2546 5.11789 12.0136 5.72509C12.5279 6.29239 12.7852 6.97984 12.7852 7.78731C12.7852 8.35453 12.7182 8.85658 12.585 9.29377C12.4516 9.73102 12.2792 10.0811 12.0677 10.3449C11.8559 10.6086 11.5922 10.8305 11.2765 11.0106C10.9607 11.1908 10.6546 11.3209 10.3585 11.401C10.0622 11.4812 9.7286 11.5414 9.35756 11.5814C9.69597 11.8816 9.86521 12.3555 9.86521 13.0028V15.1148C9.86521 15.2348 9.90591 15.3349 9.98739 15.415C10.0688 15.4949 10.1973 15.5184 10.3731 15.4849C11.8836 14.9712 13.1157 14.0452 14.0694 12.7072C15.023 11.3692 15.5 9.86274 15.5 8.1875C15.4997 6.79307 15.1642 5.5069 14.4939 4.32901Z" fill="#24292E"/>
</svg>
