<svg width="20" height="17" viewBox="0 0 20 17" fill="none" xmlns="http://www.w3.org/2000/svg">
<path fill-rule="evenodd" clip-rule="evenodd" d="M2.55814 0.139648C1.14532 0.139648 0 1.26533 0 2.65393V13.6254C0 15.014 1.14532 16.1396 2.55814 16.1396H17.4419C18.8547 16.1396 20 15.014 20 13.6254V2.65393C20 1.26533 18.8547 0.139648 17.4419 0.139648H2.55814ZM1.55019 2.08372C1.75107 1.74145 2.12723 1.51108 2.55814 1.51108H17.4419C17.8727 1.51108 18.2489 1.74142 18.4498 2.08366C18.4408 2.08953 18.432 2.09562 18.4233 2.10194L10.3225 7.96865C10.1307 8.10755 9.86921 8.10755 9.67742 7.96865L1.57658 2.10194C1.56788 2.09564 1.55908 2.08957 1.55019 2.08372ZM1.39535 3.67421V13.6254C1.39535 14.2565 1.91595 14.7682 2.55814 14.7682H17.4419C18.0841 14.7682 18.6047 14.2565 18.6047 13.6254V3.67412L11.1502 9.07273C10.4662 9.56809 9.5337 9.56809 8.8497 9.07273L1.39535 3.67421Z" fill="#6851FF"/>
</svg>
