<svg width="20" height="21" viewBox="0 0 20 21" fill="none" xmlns="http://www.w3.org/2000/svg">
<path fill-rule="evenodd" clip-rule="evenodd" d="M1.39535 10.1393C1.39535 5.38706 5.24778 1.53463 10 1.53463C14.7522 1.53463 18.6047 5.38706 18.6047 10.1393C18.6047 14.8915 14.7522 18.7439 10 18.7439C8.59012 18.7439 7.26133 18.4054 6.08859 17.8058C5.94854 17.7342 5.7884 17.712 5.63415 17.7428L2.01982 18.4657C1.82257 18.5051 1.64947 18.3296 1.69161 18.133L2.44582 14.6133C2.48007 14.4535 2.45711 14.2867 2.38096 14.1421C1.75175 12.9471 1.39535 11.5859 1.39535 10.1393ZM10 0.139282C4.47715 0.139282 0 4.61643 0 10.1393C0 11.7264 0.370222 13.2288 1.02952 14.5633L0.0451616 19.1569C-0.0740381 19.7132 0.415556 20.2095 0.973365 20.098L5.67446 19.1577C6.98424 19.787 8.45189 20.1393 10 20.1393C15.5228 20.1393 20 15.6621 20 10.1393C20 4.61643 15.5228 0.139282 10 0.139282ZM5.34884 11.5346C5.99103 11.5346 6.51163 11.014 6.51163 10.3718C6.51163 9.72965 5.99103 9.20905 5.34884 9.20905C4.70665 9.20905 4.18605 9.72965 4.18605 10.3718C4.18605 11.014 4.70665 11.5346 5.34884 11.5346ZM11.1628 10.3718C11.1628 11.014 10.6422 11.5346 10 11.5346C9.35781 11.5346 8.83721 11.014 8.83721 10.3718C8.83721 9.72965 9.35781 9.20905 10 9.20905C10.6422 9.20905 11.1628 9.72965 11.1628 10.3718ZM14.6512 11.5346C15.2934 11.5346 15.814 11.014 15.814 10.3718C15.814 9.72965 15.2934 9.20905 14.6512 9.20905C14.009 9.20905 13.4884 9.72965 13.4884 10.3718C13.4884 11.014 14.009 11.5346 14.6512 11.5346Z" fill="#6851FF"/>
</svg>