<svg width="16" height="16" viewBox="0 0 16 16" fill="none" xmlns="http://www.w3.org/2000/svg">
<path d="M13.5769 4.28906H2.42308C1.49906 4.28906 0.75 5.03812 0.75 5.96214V12.6544C0.75 13.5785 1.49906 14.3275 2.42308 14.3275H13.5769C14.5009 14.3275 15.25 13.5785 15.25 12.6544V5.96214C15.25 5.03812 14.5009 4.28906 13.5769 4.28906Z" stroke="#6851FF" stroke-width="1.5" stroke-linejoin="round"/>
<path d="M13.4152 4.2879V3.24223C13.4151 2.98576 13.3584 2.73247 13.2492 2.50044C13.1399 2.2684 12.9808 2.06333 12.7832 1.89987C12.5856 1.73641 12.3543 1.61857 12.1059 1.55478C11.8575 1.49098 11.5981 1.4828 11.3462 1.53081L2.16654 3.09758C1.7679 3.17354 1.40827 3.38624 1.14967 3.69899C0.891076 4.01174 0.749725 4.40493 0.75 4.81074V6.51867" stroke="#6851FF" stroke-width="1.5" stroke-linejoin="round"/>
<path d="M11.9035 10.4222C11.6829 10.4222 11.4672 10.3568 11.2838 10.2342C11.1004 10.1116 10.9574 9.93744 10.873 9.73363C10.7886 9.52982 10.7665 9.30555 10.8095 9.08919C10.8526 8.87283 10.9588 8.67409 11.1148 8.5181C11.2708 8.36211 11.4695 8.25588 11.6859 8.21284C11.9022 8.1698 12.1265 8.19189 12.3303 8.27631C12.5341 8.36073 12.7083 8.50369 12.8309 8.68712C12.9534 8.87054 13.0189 9.08619 13.0189 9.30679C13.0189 9.60261 12.9013 9.88631 12.6922 10.0955C12.483 10.3047 12.1993 10.4222 11.9035 10.4222Z" fill="#6851FF"/>
</svg>
