<svg width="14" height="14" viewBox="0 0 14 14" fill="none" xmlns="http://www.w3.org/2000/svg">
<path d="M7.00451 4.74478C6.24907 4.77087 5.62388 5.00565 5.12894 5.50131C4.66005 5.97088 4.39955 6.59697 4.4256 7.24915C4.45165 8.5535 4.3214 9.88395 4.06091 11.1361C4.00881 11.3709 4.16511 11.6057 4.3735 11.6318C4.60795 11.684 4.81635 11.5535 4.86845 11.3187C5.15499 9.9883 5.28524 8.60568 5.25919 7.24915C5.25919 6.80567 5.41549 6.38827 5.72808 6.07523C6.19697 5.60566 6.82216 5.57957 7.00451 5.57957C7.96834 5.60566 8.72378 6.38827 8.72378 7.30132C8.74983 8.63177 8.67168 9.93612 8.43723 11.2405C8.41118 11.4492 8.56748 11.6579 8.80193 11.71C8.80193 11.71 8.82798 11.71 8.85402 11.71C9.06242 11.71 9.24477 11.5796 9.27082 11.3709C9.47921 10.0405 9.58341 8.65785 9.58341 7.30132C9.55736 5.9187 8.41118 4.77087 7.00451 4.74478ZM6.97846 7.01436C6.77006 7.01436 6.58772 7.19697 6.58772 7.43176C6.61376 9.33612 6.35327 11.2144 5.85833 13.0405L5.83228 13.1448C5.78018 13.3275 5.85833 13.6666 6.22302 13.6666C6.40537 13.6666 6.56167 13.5622 6.61376 13.3796L6.66586 13.2492C7.18685 11.3448 7.44735 9.41438 7.4213 7.40567C7.4213 7.17089 7.18685 6.98828 6.97846 7.01436ZM3.25337 4.22304C2.60214 5.03174 2.23744 6.04914 2.26349 7.09263C2.28954 8.13611 2.18534 9.1796 2.003 10.1709C1.97695 10.4057 2.13324 10.6144 2.34164 10.6666C2.36769 10.6666 2.39374 10.6666 2.41979 10.6666C2.62818 10.6666 2.81053 10.51 2.83658 10.3274C3.01893 9.25786 3.12313 8.18829 3.09708 7.09263C3.09708 6.23175 3.35757 5.42305 3.90461 4.74478C4.06091 4.58826 4.03486 4.32739 3.85251 4.17086C3.67017 4.01434 3.40967 4.04043 3.25337 4.22304ZM13.6471 6.91002C13.6471 6.49262 13.595 6.04914 13.5169 5.63174C13.4648 5.42305 13.2303 5.26652 13.022 5.3187C12.7875 5.37087 12.6312 5.57957 12.6833 5.81435C12.7615 6.17957 12.8136 6.5448 12.8136 6.9361C12.8396 7.11871 12.8396 7.32741 12.8136 7.53611C12.8136 7.77089 13.022 7.9535 13.2303 7.9535C13.4648 7.9535 13.6471 7.77089 13.6471 7.53611C13.6732 7.32741 13.6732 7.11871 13.6471 6.91002ZM6.90031 0.336054C5.07684 0.28388 3.40967 0.962146 2.15929 2.21433C0.961014 3.44042 0.309776 5.03174 0.335825 6.75349C0.335825 6.9361 0.335825 7.1448 0.335825 7.32741C0.309776 7.56219 0.492122 7.77089 0.726568 7.77089H0.752618C0.961014 7.77089 1.14336 7.58828 1.16941 7.3535C1.16941 7.1448 1.16941 6.9361 1.16941 6.72741C1.14336 5.24044 1.6904 3.85782 2.73238 2.81433C3.82646 1.71867 5.31129 1.14476 6.90031 1.17084C8.82798 1.19693 10.6514 2.16215 11.7716 3.75347C11.9018 3.93608 12.1623 3.98825 12.3707 3.85782C12.5531 3.72738 12.6052 3.46651 12.4749 3.25781C11.1985 1.4578 9.11452 0.362141 6.90031 0.336054ZM6.92636 2.52737C6.92636 2.52737 6.87426 2.52737 6.84821 2.52737C6.56167 2.52737 6.06672 2.60564 5.75413 2.65781C5.54573 2.70998 5.38944 2.94477 5.44153 3.17955C5.49363 3.38825 5.72808 3.54477 5.96253 3.4926C6.27512 3.41434 6.61376 3.36216 6.92636 3.36216C9.08847 3.41434 10.8598 5.13609 10.8859 7.22306C10.9119 8.26655 10.8598 9.31003 10.7296 10.3274C10.7035 10.5622 10.8859 10.7709 11.1203 10.797H11.1464C11.3548 10.797 11.5371 10.6405 11.5632 10.4318C11.6934 9.36221 11.7455 8.29263 11.7195 7.22306C11.6934 4.66652 9.53131 2.57955 6.92636 2.52737Z" fill="black"/>
</svg>
